<svg width="982" height="266" viewBox="0 0 982 266" fill="none" xmlns="http://www.w3.org/2000/svg">
<rect x="138.068" width="115.296" height="44.2222" fill="#3A3A3A"/>
<rect x="368.66" width="115.296" height="44.2222" fill="#3A3A3A"/>
<rect x="599.252" width="115.296" height="44.2222" fill="#3A3A3A"/>
<rect x="829.844" width="115.296" height="44.2222" fill="#3A3A3A"/>
<rect x="149.941" y="88.4443" width="115.296" height="44.2222" fill="#3A3A3A"/>
<rect x="380.537" y="88.4443" width="115.296" height="44.2222" fill="#3A3A3A"/>
<rect x="611.125" y="88.4443" width="115.296" height="44.2222" fill="#3A3A3A"/>
<rect x="841.719" y="88.4443" width="115.296" height="44.2222" fill="#3A3A3A"/>
<rect x="149.941" y="221.11" width="115.296" height="44.2222" fill="#1D1D1D"/>
<rect x="380.537" y="221.11" width="115.296" height="44.2222" fill="#1D1D1D"/>
<rect x="611.125" y="221.11" width="115.296" height="44.2222" fill="#1D1D1D"/>
<rect x="841.719" y="221.11" width="115.296" height="44.2222" fill="#1D1D1D"/>
<rect y="176.89" width="111.275" height="44.2222" fill="#3A3A3A"/>
<rect x="222.551" y="176.89" width="111.275" height="44.2222" fill="#3A3A3A"/>
<rect x="445.1" y="176.89" width="111.275" height="44.2222" fill="#3A3A3A"/>
<rect x="667.648" y="176.89" width="111.275" height="44.2222" fill="#3A3A3A"/>
<rect x="890.668" y="177.334" width="90.6667" height="44" fill="#3A3A3A"/>
<rect width="115.296" height="44.2222" transform="matrix(-1 0 0 1 807.07 44.2227)" fill="#1D1D1D"/>
<rect width="115.296" height="44.2222" transform="matrix(-1 0 0 1 576.48 44.2227)" fill="#1D1D1D"/>
<rect width="115.296" height="44.2222" transform="matrix(-1 0 0 1 345.889 44.2227)" fill="#1D1D1D"/>
<rect width="115.296" height="44.2222" transform="matrix(-1 0 0 1 115.297 44.2227)" fill="#1D1D1D"/>
<rect width="115.296" height="44.2222" transform="matrix(-1 0 0 1 863.07 132.667)" fill="#1D1D1D"/>
<rect width="115.296" height="44.2222" transform="matrix(-1 0 0 1 632.479 132.667)" fill="#1D1D1D"/>
<rect width="115.296" height="44.2222" transform="matrix(-1 0 0 1 401.887 132.667)" fill="#1D1D1D"/>
<rect width="115.296" height="44.2222" transform="matrix(-1 0 0 1 171.293 132.667)" fill="#1D1D1D"/>
</svg>
