<svg width="831" height="909" viewBox="0 0 831 909" fill="none" xmlns="http://www.w3.org/2000/svg">
<path d="M793.876 800.096L637.513 877.833L639.71 800.114L796.073 722.378L793.876 800.096Z" fill="#1C1C1C" stroke="#121212" stroke-width="1.33333"/>
<path d="M485.221 414.51L328.858 492.246L331.056 414.527L487.419 336.791L485.221 414.51Z" fill="#1C1C1C" stroke="#121212" stroke-width="1.33333"/>
<path d="M639.559 607.299L483.196 685.035L485.394 607.316L641.757 529.58L639.559 607.299Z" fill="#1C1C1C" stroke="#121212" stroke-width="1.33333"/>
<path d="M330.905 221.715L174.542 299.451L176.74 221.733L333.103 143.996L330.905 221.715Z" fill="#1C1C1C" stroke="#121212" stroke-width="1.33333"/>
<path d="M716.702 703.71L560.339 781.446L562.536 703.728L718.899 625.991L716.702 703.71Z" fill="#1C1C1C" stroke="#121212" stroke-width="1.33333"/>
<path d="M408.047 318.125L251.684 395.861L253.882 318.143L410.245 240.406L408.047 318.125Z" fill="#1C1C1C" stroke="#121212" stroke-width="1.33333"/>
<path d="M562.387 510.913L406.024 588.649L408.222 510.931L564.585 433.194L562.387 510.913Z" fill="#1C1C1C" stroke="#121212" stroke-width="1.33333"/>
<path d="M253.731 125.328L97.368 203.064L99.5658 125.346L255.929 47.6092L253.731 125.328Z" fill="#1C1C1C" stroke="#121212" stroke-width="1.33333"/>
<path d="M793.658 722.47L795.322 721.633L793.505 721.224L717.019 703.979L716.786 703.926L716.573 704.033L562.747 781.363L561.083 782.199L562.9 782.609L639.387 799.854L639.62 799.906L639.833 799.799L793.658 722.47Z" fill="#1C1C1C" stroke="#121212" stroke-width="1.33333"/>
<path d="M485 336.883L486.664 336.046L484.847 335.637L408.36 318.392L408.128 318.339L407.914 318.446L254.089 395.776L252.425 396.612L254.242 397.022L330.729 414.267L330.961 414.319L331.175 414.212L485 336.883Z" fill="#1C1C1C" stroke="#121212" stroke-width="1.33333"/>
<path d="M639.342 529.671L641.006 528.834L639.189 528.425L562.702 511.18L562.469 511.127L562.256 511.235L408.431 588.564L406.767 589.401L408.584 589.81L485.07 607.055L485.303 607.108L485.517 607L639.342 529.671Z" fill="#1C1C1C" stroke="#121212" stroke-width="1.33333"/>
<path d="M330.686 144.086L332.349 143.249L330.533 142.84L254.046 125.595L253.813 125.542L253.6 125.65L99.7746 202.979L98.1108 203.816L99.9274 204.225L176.414 221.47L176.647 221.523L176.86 221.415L330.686 144.086Z" fill="#1C1C1C" stroke="#121212" stroke-width="1.33333"/>
<path d="M716.484 626.083L718.148 625.246L716.332 624.837L639.845 607.592L639.612 607.539L639.399 607.647L485.573 684.976L483.91 685.813L485.726 686.222L562.213 703.467L562.446 703.52L562.659 703.412L716.484 626.083Z" fill="#1C1C1C" stroke="#121212" stroke-width="1.33333"/>
<path d="M407.828 240.495L409.492 239.659L407.675 239.249L331.189 222.004L330.956 221.952L330.742 222.059L176.917 299.388L175.253 300.225L177.07 300.634L253.557 317.879L253.79 317.932L254.003 317.825L407.828 240.495Z" fill="#1C1C1C" stroke="#121212" stroke-width="1.33333"/>
<path d="M562.168 433.285L563.832 432.449L562.015 432.039L485.528 414.794L485.296 414.742L485.082 414.849L331.257 492.178L329.593 493.015L331.41 493.424L407.897 510.669L408.129 510.722L408.343 510.615L562.168 433.285Z" fill="#1C1C1C" stroke="#121212" stroke-width="1.33333"/>
<path d="M253.512 47.6981L255.176 46.8617L253.359 46.4521L176.872 29.2072L176.639 29.1547L176.426 29.2619L22.6007 106.592L20.937 107.428L22.7536 107.838L99.2404 125.082L99.4732 125.135L99.6864 125.028L253.512 47.6981Z" fill="#1C1C1C" stroke="#121212" stroke-width="1.33333"/>
</svg>
