<svg width="1920" height="533" viewBox="0 0 1920 533" fill="none" xmlns="http://www.w3.org/2000/svg">
<path d="M634.012 1.33398L474.2 112.102V255.525L634.012 144.757V1.33398Z" fill="#3A3A3A" stroke="#1D1D1D" stroke-width="1.87962" stroke-linejoin="bevel"/>
<path d="M314.389 1.33398L474.201 112.102V255.525L314.389 144.757V1.33398Z" fill="#747474" stroke="#1D1D1D" stroke-width="1.87962" stroke-linejoin="bevel"/>
<path d="M314.389 1.33398L154.577 112.102V255.525L314.389 144.757V1.33398Z" fill="#3A3A3A" stroke="#1D1D1D" stroke-width="1.87962" stroke-linejoin="bevel"/>
<path d="M-5.23242 1.55273L154.579 112.102V255.525L-5.23242 144.757V1.55273Z" fill="#747474" stroke="#1D1D1D" stroke-width="1.87962" stroke-linejoin="bevel"/>
<path d="M442.288 188.396L400.415 159.426L398.917 106.942L440.119 135.488L442.288 188.396Z" fill="#1D1D1D" stroke="#1D1D1D" stroke-width="2.63147"/>
<path d="M390.078 128.652L450.157 170.118" stroke="#747474" stroke-width="2.63147"/>
<path d="M419.879 191.822L419.544 106.954" stroke="#747474" stroke-width="2.63147"/>
<path d="M120.188 188.397L78.3159 159.427L76.8171 106.943L118.02 135.489L120.188 188.397Z" fill="#1D1D1D" stroke="#1D1D1D" stroke-width="2.63147"/>
<path d="M67.9766 128.649L128.055 170.115" stroke="#747474" stroke-width="2.63147"/>
<path d="M97.7776 191.82L97.4427 106.952" stroke="#747474" stroke-width="2.63147"/>
<path d="M379.868 146.123L337.996 117.153L336.497 64.6684L377.7 93.2147L379.868 146.123Z" fill="#1D1D1D" stroke="#1D1D1D" stroke-width="2.63147"/>
<path d="M327.658 86.3809L387.737 127.847" stroke="#747474" stroke-width="2.63147"/>
<path d="M357.459 149.551L357.124 64.6834" stroke="#747474" stroke-width="2.63147"/>
<path d="M57.7719 146.124L15.8999 117.154L14.4011 64.6694L55.6039 93.2157L57.7719 146.124Z" fill="#1D1D1D" stroke="#1D1D1D" stroke-width="2.63147"/>
<path d="M5.55664 86.3809L65.6355 127.847" stroke="#747474" stroke-width="2.63147"/>
<path d="M35.3576 149.551L35.0228 64.6834" stroke="#747474" stroke-width="2.63147"/>
<path d="M634.012 138.852L474.2 249.62V393.043L634.012 282.275V138.852Z" fill="#3A3A3A" stroke="#1D1D1D" stroke-width="1.87962" stroke-linejoin="bevel"/>
<path d="M314.389 138.852L474.201 249.62V393.043L314.389 282.275V138.852Z" fill="#747474" stroke="#1D1D1D" stroke-width="1.87962" stroke-linejoin="bevel"/>
<path d="M314.389 138.852L154.577 249.62V393.043L314.389 282.275V138.852Z" fill="#3A3A3A" stroke="#1D1D1D" stroke-width="1.87962" stroke-linejoin="bevel"/>
<path d="M-5.23242 139.068L154.579 249.618V393.041L-5.23242 282.273V139.068Z" fill="#747474" stroke="#1D1D1D" stroke-width="1.87962" stroke-linejoin="bevel"/>
<path d="M442.288 325.913L400.415 296.943L398.917 244.458L440.119 273.005L442.288 325.913Z" fill="#1D1D1D" stroke="#1D1D1D" stroke-width="2.63147"/>
<path d="M390.078 266.17L450.157 307.636" stroke="#747474" stroke-width="2.63147"/>
<path d="M419.879 329.339L419.544 244.471" stroke="#747474" stroke-width="2.63147"/>
<path d="M120.186 325.915L78.3139 296.945L76.8151 244.46L118.018 273.007L120.186 325.915Z" fill="#1D1D1D" stroke="#1D1D1D" stroke-width="2.63147"/>
<path d="M67.9766 266.17L128.055 307.636" stroke="#747474" stroke-width="2.63147"/>
<path d="M97.7776 329.339L97.4427 244.471" stroke="#747474" stroke-width="2.63147"/>
<path d="M379.87 283.641L337.998 254.671L336.499 202.186L377.702 230.732L379.87 283.641Z" fill="#1D1D1D" stroke="#1D1D1D" stroke-width="2.63147"/>
<path d="M327.662 223.899L387.741 265.365" stroke="#747474" stroke-width="2.63147"/>
<path d="M357.463 287.07L357.128 202.202" stroke="#747474" stroke-width="2.63147"/>
<path d="M57.7719 283.641L15.8999 254.671L14.4011 202.186L55.6039 230.732L57.7719 283.641Z" fill="#1D1D1D" stroke="#1D1D1D" stroke-width="2.63147"/>
<path d="M5.55664 223.899L65.6355 265.365" stroke="#747474" stroke-width="2.63147"/>
<path d="M35.3576 287.07L35.0228 202.202" stroke="#747474" stroke-width="2.63147"/>
<path d="M634.012 276.355L474.2 387.124V530.547L634.012 419.779V276.355Z" fill="#3A3A3A" stroke="#1D1D1D" stroke-width="1.87962" stroke-linejoin="bevel"/>
<path d="M314.389 276.355L474.201 387.124V530.547L314.389 419.779V276.355Z" fill="#747474" stroke="#1D1D1D" stroke-width="1.87962" stroke-linejoin="bevel"/>
<path d="M314.389 276.355L154.577 387.124V530.547L314.389 419.779V276.355Z" fill="#3A3A3A" stroke="#1D1D1D" stroke-width="1.87962" stroke-linejoin="bevel"/>
<path d="M-5.23242 276.574L154.579 387.124V530.547L-5.23242 419.779V276.574Z" fill="#747474" stroke="#1D1D1D" stroke-width="1.87962" stroke-linejoin="bevel"/>
<path d="M442.288 463.42L400.415 434.45L398.917 381.965L440.119 410.512L442.288 463.42Z" fill="#1D1D1D" stroke="#1D1D1D" stroke-width="2.63147"/>
<path d="M390.078 403.672L450.157 445.138" stroke="#747474" stroke-width="2.63147"/>
<path d="M419.877 466.842L419.542 381.974" stroke="#747474" stroke-width="2.63147"/>
<path d="M120.188 463.418L78.3159 434.448L76.8171 381.963L118.02 410.51L120.188 463.418Z" fill="#1D1D1D" stroke="#1D1D1D" stroke-width="2.63147"/>
<path d="M67.9766 403.672L128.055 445.138" stroke="#747474" stroke-width="2.63147"/>
<path d="M97.7776 466.842L97.4427 381.974" stroke="#747474" stroke-width="2.63147"/>
<path d="M379.868 421.147L337.996 392.177L336.497 339.693L377.7 368.239L379.868 421.147Z" fill="#1D1D1D" stroke="#1D1D1D" stroke-width="2.63147"/>
<path d="M327.658 361.407L387.737 402.873" stroke="#747474" stroke-width="2.63147"/>
<path d="M357.459 424.578L357.124 339.71" stroke="#747474" stroke-width="2.63147"/>
<path d="M57.7738 421.147L15.9018 392.177L14.403 339.693L55.6058 368.239L57.7738 421.147Z" fill="#1D1D1D" stroke="#1D1D1D" stroke-width="2.63147"/>
<path d="M5.55859 361.407L65.6375 402.873" stroke="#747474" stroke-width="2.63147"/>
<path d="M35.3596 424.578L35.0247 339.71" stroke="#747474" stroke-width="2.63147"/>
<path d="M1272.12 1.33398L1112.31 112.102V255.525L1272.12 144.757V1.33398Z" fill="#3A3A3A" stroke="#1D1D1D" stroke-width="1.87962" stroke-linejoin="bevel"/>
<path d="M952.495 1.33398L1112.31 112.102V255.525L952.495 144.757V1.33398Z" fill="#747474" stroke="#1D1D1D" stroke-width="1.87962" stroke-linejoin="bevel"/>
<path d="M952.495 1.33398L792.683 112.102V255.525L952.495 144.757V1.33398Z" fill="#3A3A3A" stroke="#1D1D1D" stroke-width="1.87962" stroke-linejoin="bevel"/>
<path d="M633.252 1.5498L473.524 111.792V255.215L633.336 144.447L633.252 1.5498Z" fill="#3A3A3A" stroke="#1D1D1D" stroke-width="1.87962" stroke-linejoin="bevel"/>
<path d="M632.873 1.55273L792.685 112.102V255.525L632.873 144.757V1.55273Z" fill="#747474" stroke="#1D1D1D" stroke-width="1.87962" stroke-linejoin="bevel"/>
<path d="M1080.39 188.396L1038.52 159.426L1037.02 106.942L1078.23 135.488L1080.39 188.396Z" fill="#1D1D1D" stroke="#1D1D1D" stroke-width="2.63147"/>
<path d="M1028.19 128.651L1088.27 170.117" stroke="#747474" stroke-width="2.63147"/>
<path d="M1057.99 191.821L1057.65 106.953" stroke="#747474" stroke-width="2.63147"/>
<path d="M758.291 188.396L716.419 159.426L714.921 106.942L756.123 135.488L758.291 188.396Z" fill="#1D1D1D" stroke="#1D1D1D" stroke-width="2.63147"/>
<path d="M706.08 128.649L766.159 170.115" stroke="#747474" stroke-width="2.63147"/>
<path d="M735.881 191.821L735.546 106.953" stroke="#747474" stroke-width="2.63147"/>
<path d="M1017.98 146.123L976.104 117.153L974.605 64.6684L1015.81 93.2147L1017.98 146.123Z" fill="#1D1D1D" stroke="#1D1D1D" stroke-width="2.63147"/>
<path d="M965.768 86.3809L1025.85 127.847" stroke="#747474" stroke-width="2.63147"/>
<path d="M995.569 149.552L995.234 64.6844" stroke="#747474" stroke-width="2.63147"/>
<path d="M695.877 146.123L654.005 117.153L652.507 64.6684L693.709 93.2147L695.877 146.123Z" fill="#1D1D1D" stroke="#1D1D1D" stroke-width="2.63147"/>
<path d="M643.664 86.3799L703.743 127.846" stroke="#747474" stroke-width="2.63147"/>
<path d="M673.465 149.553L673.13 64.6853" stroke="#747474" stroke-width="2.63147"/>
<path d="M1272.12 138.852L1112.31 249.62V393.043L1272.12 282.275V138.852Z" fill="#3A3A3A" stroke="#1D1D1D" stroke-width="1.87962" stroke-linejoin="bevel"/>
<path d="M952.495 138.852L1112.31 249.62V393.043L952.495 282.275V138.852Z" fill="#747474" stroke="#1D1D1D" stroke-width="1.87962" stroke-linejoin="bevel"/>
<path d="M952.495 138.852L792.683 249.62V393.043L952.495 282.275V138.852Z" fill="#3A3A3A" stroke="#1D1D1D" stroke-width="1.87962" stroke-linejoin="bevel"/>
<path d="M633.252 139.066L473.524 249.309V392.732L633.336 281.964L633.252 139.066Z" fill="#3A3A3A" stroke="#1D1D1D" stroke-width="1.87962" stroke-linejoin="bevel"/>
<path d="M632.873 139.068L792.685 249.618V393.041L632.873 282.273V139.068Z" fill="#747474" stroke="#1D1D1D" stroke-width="1.87962" stroke-linejoin="bevel"/>
<path d="M1080.39 325.913L1038.52 296.943L1037.02 244.458L1078.23 273.005L1080.39 325.913Z" fill="#1D1D1D" stroke="#1D1D1D" stroke-width="2.63147"/>
<path d="M1028.19 266.17L1088.27 307.636" stroke="#747474" stroke-width="2.63147"/>
<path d="M1057.99 329.339L1057.65 244.471" stroke="#747474" stroke-width="2.63147"/>
<path d="M758.291 325.916L716.419 296.946L714.921 244.461L756.123 273.008L758.291 325.916Z" fill="#1D1D1D" stroke="#1D1D1D" stroke-width="2.63147"/>
<path d="M706.08 266.168L766.159 307.634" stroke="#747474" stroke-width="2.63147"/>
<path d="M735.881 329.339L735.546 244.471" stroke="#747474" stroke-width="2.63147"/>
<path d="M1017.98 283.641L976.105 254.671L974.606 202.186L1015.81 230.732L1017.98 283.641Z" fill="#1D1D1D" stroke="#1D1D1D" stroke-width="2.63147"/>
<path d="M965.769 223.899L1025.85 265.365" stroke="#747474" stroke-width="2.63147"/>
<path d="M995.57 287.071L995.235 202.203" stroke="#747474" stroke-width="2.63147"/>
<path d="M695.875 283.641L654.003 254.671L652.505 202.186L693.707 230.732L695.875 283.641Z" fill="#1D1D1D" stroke="#1D1D1D" stroke-width="2.63147"/>
<path d="M643.662 223.899L703.741 265.365" stroke="#747474" stroke-width="2.63147"/>
<path d="M673.463 287.07L673.128 202.202" stroke="#747474" stroke-width="2.63147"/>
<path d="M1272.12 276.355L1112.31 387.124V530.547L1272.12 419.779V276.355Z" fill="#3A3A3A" stroke="#1D1D1D" stroke-width="1.87962" stroke-linejoin="bevel"/>
<path d="M952.495 276.355L1112.31 387.124V530.547L952.495 419.779V276.355Z" fill="#747474" stroke="#1D1D1D" stroke-width="1.87962" stroke-linejoin="bevel"/>
<path d="M952.495 276.355L792.683 387.124V530.547L952.495 419.779V276.355Z" fill="#3A3A3A" stroke="#1D1D1D" stroke-width="1.87962" stroke-linejoin="bevel"/>
<path d="M633.252 276.57L473.524 386.813V530.236L633.336 419.468L633.252 276.57Z" fill="#3A3A3A" stroke="#1D1D1D" stroke-width="1.87962" stroke-linejoin="bevel"/>
<path d="M632.873 276.574L792.685 387.124V530.547L632.873 419.779V276.574Z" fill="#747474" stroke="#1D1D1D" stroke-width="1.87962" stroke-linejoin="bevel"/>
<path d="M1080.39 463.42L1038.52 434.45L1037.02 381.965L1078.22 410.512L1080.39 463.42Z" fill="#1D1D1D" stroke="#1D1D1D" stroke-width="2.63147"/>
<path d="M1028.19 403.672L1088.27 445.138" stroke="#747474" stroke-width="2.63147"/>
<path d="M1057.99 466.843L1057.65 381.975" stroke="#747474" stroke-width="2.63147"/>
<path d="M758.291 463.419L716.419 434.449L714.921 381.964L756.123 410.511L758.291 463.419Z" fill="#1D1D1D" stroke="#1D1D1D" stroke-width="2.63147"/>
<path d="M706.08 403.672L766.159 445.138" stroke="#747474" stroke-width="2.63147"/>
<path d="M735.881 466.843L735.546 381.975" stroke="#747474" stroke-width="2.63147"/>
<path d="M1017.98 421.148L976.103 392.178L974.604 339.694L1015.81 368.24L1017.98 421.148Z" fill="#1D1D1D" stroke="#1D1D1D" stroke-width="2.63147"/>
<path d="M965.768 361.407L1025.85 402.873" stroke="#747474" stroke-width="2.63147"/>
<path d="M995.568 424.579L995.233 339.711" stroke="#747474" stroke-width="2.63147"/>
<path d="M695.879 421.147L654.007 392.177L652.509 339.693L693.711 368.239L695.879 421.147Z" fill="#1D1D1D" stroke="#1D1D1D" stroke-width="2.63147"/>
<path d="M643.666 361.407L703.745 402.873" stroke="#747474" stroke-width="2.63147"/>
<path d="M673.465 424.578L673.13 339.71" stroke="#747474" stroke-width="2.63147"/>
<path d="M1911.44 2.40527L1751.63 113.173V256.596L1911.44 145.828V2.40527Z" fill="#3A3A3A" stroke="#1D1D1D" stroke-width="1.87962" stroke-linejoin="bevel"/>
<path d="M1591.82 2.40527L1751.63 113.173V256.596L1591.82 145.828V2.40527Z" fill="#747474" stroke="#1D1D1D" stroke-width="1.87962" stroke-linejoin="bevel"/>
<path d="M1591.82 2.40527L1432 113.173V256.596L1591.82 145.828V2.40527Z" fill="#3A3A3A" stroke="#1D1D1D" stroke-width="1.87962" stroke-linejoin="bevel"/>
<path d="M1272.57 2.62109L1112.84 112.864V256.287L1272.66 145.519L1272.57 2.62109Z" fill="#3A3A3A" stroke="#1D1D1D" stroke-width="1.87962" stroke-linejoin="bevel"/>
<path d="M1272.2 2.62402L1432.01 113.174V256.597L1272.2 145.829V2.62402Z" fill="#747474" stroke="#1D1D1D" stroke-width="1.87962" stroke-linejoin="bevel"/>
<path d="M1719.72 189.469L1677.85 160.499L1676.35 108.014L1717.55 136.56L1719.72 189.469Z" fill="#1D1D1D" stroke="#1D1D1D" stroke-width="2.63147"/>
<path d="M1667.51 129.724L1727.59 171.189" stroke="#747474" stroke-width="2.63147"/>
<path d="M1697.31 192.895L1696.97 108.027" stroke="#747474" stroke-width="2.63147"/>
<path d="M1397.61 189.469L1355.74 160.499L1354.24 108.014L1395.44 136.56L1397.61 189.469Z" fill="#1D1D1D" stroke="#1D1D1D" stroke-width="2.63147"/>
<path d="M1345.4 129.723L1405.48 171.188" stroke="#747474" stroke-width="2.63147"/>
<path d="M1375.21 192.894L1374.87 108.026" stroke="#747474" stroke-width="2.63147"/>
<path d="M1657.3 147.195L1615.43 118.225L1613.93 65.7407L1655.13 94.2869L1657.3 147.195Z" fill="#1D1D1D" stroke="#1D1D1D" stroke-width="2.63147"/>
<path d="M1605.09 87.4521L1665.17 128.918" stroke="#747474" stroke-width="2.63147"/>
<path d="M1634.89 150.623L1634.56 65.7557" stroke="#747474" stroke-width="2.63147"/>
<path d="M1335.2 147.195L1293.33 118.225L1291.83 65.7407L1333.03 94.2869L1335.2 147.195Z" fill="#1D1D1D" stroke="#1D1D1D" stroke-width="2.63147"/>
<path d="M1282.99 87.4531L1343.07 128.919" stroke="#747474" stroke-width="2.63147"/>
<path d="M1312.79 150.624L1312.45 65.7566" stroke="#747474" stroke-width="2.63147"/>
<path d="M1911.44 139.923L1751.63 250.691V394.114L1911.44 283.346V139.923Z" fill="#3A3A3A" stroke="#1D1D1D" stroke-width="1.87962" stroke-linejoin="bevel"/>
<path d="M1591.82 139.923L1751.63 250.691V394.114L1591.82 283.346V139.923Z" fill="#747474" stroke="#1D1D1D" stroke-width="1.87962" stroke-linejoin="bevel"/>
<path d="M1591.82 139.923L1432 250.691V394.114L1591.82 283.346V139.923Z" fill="#3A3A3A" stroke="#1D1D1D" stroke-width="1.87962" stroke-linejoin="bevel"/>
<path d="M1272.57 140.138L1112.84 250.38V393.803L1272.66 283.035L1272.57 140.138Z" fill="#3A3A3A" stroke="#1D1D1D" stroke-width="1.87962" stroke-linejoin="bevel"/>
<path d="M1272.2 140.14L1432.01 250.689V394.112L1272.2 283.344V140.14Z" fill="#747474" stroke="#1D1D1D" stroke-width="1.87962" stroke-linejoin="bevel"/>
<path d="M1719.72 326.987L1677.84 298.017L1676.35 245.533L1717.55 274.079L1719.72 326.987Z" fill="#1D1D1D" stroke="#1D1D1D" stroke-width="2.63147"/>
<path d="M1667.51 267.244L1727.59 308.71" stroke="#747474" stroke-width="2.63147"/>
<path d="M1697.31 330.413L1696.97 245.546" stroke="#747474" stroke-width="2.63147"/>
<path d="M1397.61 326.988L1355.74 298.018L1354.24 245.534L1395.44 274.08L1397.61 326.988Z" fill="#1D1D1D" stroke="#1D1D1D" stroke-width="2.63147"/>
<path d="M1345.4 267.245L1405.48 308.711" stroke="#747474" stroke-width="2.63147"/>
<path d="M1375.21 330.416L1374.87 245.549" stroke="#747474" stroke-width="2.63147"/>
<path d="M1657.3 284.711L1615.43 255.741L1613.93 203.256L1655.13 231.803L1657.3 284.711Z" fill="#1D1D1D" stroke="#1D1D1D" stroke-width="2.63147"/>
<path d="M1605.09 224.971L1665.17 266.436" stroke="#747474" stroke-width="2.63147"/>
<path d="M1634.89 288.142L1634.56 203.274" stroke="#747474" stroke-width="2.63147"/>
<path d="M1335.2 284.712L1293.33 255.742L1291.83 203.257L1333.03 231.804L1335.2 284.712Z" fill="#1D1D1D" stroke="#1D1D1D" stroke-width="2.63147"/>
<path d="M1282.99 224.973L1343.07 266.438" stroke="#747474" stroke-width="2.63147"/>
<path d="M1312.79 288.144L1312.46 203.276" stroke="#747474" stroke-width="2.63147"/>
<path d="M1911.44 277.427L1751.63 388.195V531.618L1911.44 420.85V277.427Z" fill="#3A3A3A" stroke="#1D1D1D" stroke-width="1.87962" stroke-linejoin="bevel"/>
<path d="M1591.82 277.427L1751.63 388.195V531.618L1591.82 420.85V277.427Z" fill="#747474" stroke="#1D1D1D" stroke-width="1.87962" stroke-linejoin="bevel"/>
<path d="M1591.82 277.427L1432 388.195V531.618L1591.82 420.85V277.427Z" fill="#3A3A3A" stroke="#1D1D1D" stroke-width="1.87962" stroke-linejoin="bevel"/>
<path d="M1272.57 277.642L1112.84 387.884V531.307L1272.66 420.539L1272.57 277.642Z" fill="#3A3A3A" stroke="#1D1D1D" stroke-width="1.87962" stroke-linejoin="bevel"/>
<path d="M1272.2 277.644L1432.01 388.193V531.616L1272.2 420.848V277.644Z" fill="#747474" stroke="#1D1D1D" stroke-width="1.87962" stroke-linejoin="bevel"/>
<path d="M1719.72 464.488L1677.85 435.518L1676.35 383.034L1717.55 411.58L1719.72 464.488Z" fill="#1D1D1D" stroke="#1D1D1D" stroke-width="2.63147"/>
<path d="M1667.51 404.741L1727.59 446.207" stroke="#747474" stroke-width="2.63147"/>
<path d="M1697.31 467.912L1696.97 383.045" stroke="#747474" stroke-width="2.63147"/>
<path d="M1397.61 464.487L1355.74 435.517L1354.24 383.033L1395.44 411.579L1397.61 464.487Z" fill="#1D1D1D" stroke="#1D1D1D" stroke-width="2.63147"/>
<path d="M1345.4 404.741L1405.48 446.207" stroke="#747474" stroke-width="2.63147"/>
<path d="M1375.21 467.912L1374.87 383.045" stroke="#747474" stroke-width="2.63147"/>
<path d="M1657.3 422.218L1615.42 393.248L1613.92 340.763L1655.13 369.309L1657.3 422.218Z" fill="#1D1D1D" stroke="#1D1D1D" stroke-width="2.63147"/>
<path d="M1605.09 362.477L1665.17 403.942" stroke="#747474" stroke-width="2.63147"/>
<path d="M1634.89 425.648L1634.55 340.78" stroke="#747474" stroke-width="2.63147"/>
<path d="M1335.2 422.217L1293.33 393.247L1291.83 340.762L1333.03 369.308L1335.2 422.217Z" fill="#1D1D1D" stroke="#1D1D1D" stroke-width="2.63147"/>
<path d="M1282.99 362.477L1343.07 403.942" stroke="#747474" stroke-width="2.63147"/>
<path d="M1312.79 425.648L1312.46 340.78" stroke="#747474" stroke-width="2.63147"/>
<path d="M1910.68 2.62109L1750.95 112.864V256.287L1910.76 145.519L1910.68 2.62109Z" fill="#3A3A3A" stroke="#1D1D1D" stroke-width="1.87962" stroke-linejoin="bevel"/>
<path d="M1910.3 2.62402L2070.12 113.174V256.597L1910.3 145.829V2.62402Z" fill="#747474" stroke="#1D1D1D" stroke-width="1.87962" stroke-linejoin="bevel"/>
<path d="M1973.31 147.195L1931.43 118.225L1929.94 65.7407L1971.14 94.2869L1973.31 147.195Z" fill="#1D1D1D" stroke="#1D1D1D" stroke-width="2.63147"/>
<path d="M1921.1 87.4531L1981.17 128.919" stroke="#747474" stroke-width="2.63147"/>
<path d="M1950.9 150.626L1950.56 65.7586" stroke="#747474" stroke-width="2.63147"/>
<path d="M1910.68 140.138L1750.95 250.38V393.803L1910.76 283.035L1910.68 140.138Z" fill="#3A3A3A" stroke="#1D1D1D" stroke-width="1.87962" stroke-linejoin="bevel"/>
<path d="M1910.3 140.14L2070.12 250.689V394.112L1910.3 283.344V140.14Z" fill="#747474" stroke="#1D1D1D" stroke-width="1.87962" stroke-linejoin="bevel"/>
<path d="M1973.31 284.712L1931.43 255.742L1929.93 203.257L1971.14 231.804L1973.31 284.712Z" fill="#1D1D1D" stroke="#1D1D1D" stroke-width="2.63147"/>
<path d="M1921.09 224.972L1981.17 266.437" stroke="#747474" stroke-width="2.63147"/>
<path d="M1950.9 288.143L1950.56 203.275" stroke="#747474" stroke-width="2.63147"/>
<path d="M1910.68 277.642L1750.95 387.884V531.307L1910.76 420.539L1910.68 277.642Z" fill="#3A3A3A" stroke="#1D1D1D" stroke-width="1.87962" stroke-linejoin="bevel"/>
<path d="M1910.3 277.644L2070.12 388.193V531.616L1910.3 420.848V277.644Z" fill="#747474" stroke="#1D1D1D" stroke-width="1.87962" stroke-linejoin="bevel"/>
<path d="M1973.31 422.218L1931.43 393.248L1929.94 340.763L1971.14 369.309L1973.31 422.218Z" fill="#1D1D1D" stroke="#1D1D1D" stroke-width="2.63147"/>
<path d="M1921.1 362.477L1981.17 403.942" stroke="#747474" stroke-width="2.63147"/>
<path d="M1950.9 425.648L1950.56 340.78" stroke="#747474" stroke-width="2.63147"/>
</svg>
