<svg width="876" height="951" viewBox="0 0 876 951" fill="none" xmlns="http://www.w3.org/2000/svg">
<path d="M23.6105 777.101L170.353 871.753L176.816 794.273L30.0742 699.62L23.6105 777.101Z" fill="#1C1C1C" stroke="#121212" stroke-width="1.33333"/>
<path d="M373.255 428.254L519.997 522.907L526.461 445.426L379.719 350.774L373.255 428.254Z" fill="#1C1C1C" stroke="#121212" stroke-width="1.33333"/>
<path d="M198.423 602.673L345.165 697.326L351.629 619.845L204.887 525.193L198.423 602.673Z" fill="#1C1C1C" stroke="#121212" stroke-width="1.33333"/>
<path d="M548.066 253.825L694.808 348.478L701.271 270.997L554.529 176.345L548.066 253.825Z" fill="#1C1C1C" stroke="#121212" stroke-width="1.33333"/>
<path d="M111.03 689.9L257.773 784.552L264.236 707.072L117.494 612.419L111.03 689.9Z" fill="#1C1C1C" stroke="#121212" stroke-width="1.33333"/>
<path d="M460.673 341.053L607.415 435.705L613.879 358.225L467.137 263.572L460.673 341.053Z" fill="#1C1C1C" stroke="#121212" stroke-width="1.33333"/>
<path d="M285.841 515.471L432.583 610.123L439.047 532.643L292.305 437.99L285.841 515.471Z" fill="#1C1C1C" stroke="#121212" stroke-width="1.33333"/>
<path d="M635.484 166.624L782.226 261.277L788.689 183.796L641.947 89.1437L635.484 166.624Z" fill="#1C1C1C" stroke="#121212" stroke-width="1.33333"/>
<path d="M32.4689 699.98L30.9085 698.964L32.7594 698.759L110.69 690.132L110.927 690.105L111.127 690.236L255.393 784.201L256.953 785.218L255.102 785.423L177.172 794.05L176.934 794.076L176.734 793.946L32.4689 699.98Z" fill="#1C1C1C" stroke="#121212" stroke-width="1.33333"/>
<path d="M382.111 351.13L380.551 350.114L382.402 349.909L460.333 341.282L460.57 341.256L460.77 341.386L605.035 435.352L606.596 436.368L604.745 436.573L526.814 445.2L526.577 445.226L526.377 445.096L382.111 351.13Z" fill="#1C1C1C" stroke="#121212" stroke-width="1.33333"/>
<path d="M207.277 525.552L205.717 524.536L207.568 524.331L285.499 515.704L285.736 515.678L285.936 515.808L430.201 609.774L431.762 610.79L429.911 610.995L351.98 619.622L351.743 619.648L351.543 619.518L207.277 525.552Z" fill="#1C1C1C" stroke="#121212" stroke-width="1.33333"/>
<path d="M556.92 176.703L555.36 175.686L557.211 175.481L635.141 166.854L635.378 166.828L635.578 166.958L779.844 260.924L781.404 261.94L779.554 262.145L701.623 270.772L701.386 270.798L701.186 270.668L556.92 176.703Z" fill="#1C1C1C" stroke="#121212" stroke-width="1.33333"/>
<path d="M119.887 612.78L118.326 611.763L120.177 611.558L198.108 602.931L198.345 602.905L198.545 603.035L342.811 697.001L344.371 698.017L342.52 698.222L264.59 706.849L264.352 706.876L264.152 706.745L119.887 612.78Z" fill="#1C1C1C" stroke="#121212" stroke-width="1.33333"/>
<path d="M469.531 263.931L467.971 262.915L469.822 262.71L547.753 254.083L547.99 254.057L548.19 254.187L692.455 348.152L694.016 349.169L692.165 349.374L614.234 358.001L613.997 358.027L613.797 357.897L469.531 263.931Z" fill="#1C1C1C" stroke="#121212" stroke-width="1.33333"/>
<path d="M294.697 438.349L293.137 437.333L294.988 437.128L372.919 428.501L373.156 428.474L373.356 428.605L517.621 522.57L519.182 523.587L517.331 523.792L439.4 532.419L439.163 532.445L438.963 532.315L294.697 438.349Z" fill="#1C1C1C" stroke="#121212" stroke-width="1.33333"/>
<path d="M644.34 89.5014L642.78 88.485L644.63 88.2801L722.561 79.6531L722.798 79.6268L722.998 79.7571L867.264 173.723L868.824 174.739L866.973 174.944L789.043 183.571L788.806 183.597L788.606 183.467L644.34 89.5014Z" fill="#1C1C1C" stroke="#121212" stroke-width="1.33333"/>
</svg>
