<svg width="904" height="980" viewBox="0 0 904 980" fill="none" xmlns="http://www.w3.org/2000/svg">
<path d="M879.089 179.331L728.057 81.7312L721.334 161.515L872.366 259.115L879.089 179.331Z" fill="#1C1C1C" stroke="#121212" stroke-width="1.33333"/>
<path d="M518.722 538.271L367.69 440.671L360.966 520.454L511.999 618.054L518.722 538.271Z" fill="#1C1C1C" stroke="#121212" stroke-width="1.33333"/>
<path d="M698.918 358.805L547.885 261.205L541.162 340.988L692.194 438.588L698.918 358.805Z" fill="#1C1C1C" stroke="#121212" stroke-width="1.33333"/>
<path d="M338.554 717.743L187.522 620.143L180.798 699.927L331.831 797.527L338.554 717.743Z" fill="#1C1C1C" stroke="#121212" stroke-width="1.33333"/>
<path d="M788.988 269.054L637.955 171.454L631.232 251.238L782.264 348.838L788.988 269.054Z" fill="#1C1C1C" stroke="#121212" stroke-width="1.33333"/>
<path d="M428.625 627.994L277.592 530.394L270.869 610.178L421.901 707.778L428.625 627.994Z" fill="#1C1C1C" stroke="#121212" stroke-width="1.33333"/>
<path d="M608.818 448.53L457.786 350.93L451.062 430.714L602.095 528.314L608.818 448.53Z" fill="#1C1C1C" stroke="#121212" stroke-width="1.33333"/>
<path d="M248.453 807.467L97.4203 709.867L90.6968 789.651L241.729 887.251L248.453 807.467Z" fill="#1C1C1C" stroke="#121212" stroke-width="1.33333"/>
<path d="M869.891 258.76L871.451 259.778L869.6 259.981L789.34 268.798L789.102 268.824L788.902 268.693L640.42 171.803L638.86 170.785L640.711 170.582L720.972 161.765L721.209 161.739L721.409 161.869L869.891 258.76Z" fill="#1C1C1C" stroke="#121212" stroke-width="1.33333"/>
<path d="M509.528 617.699L511.088 618.716L509.237 618.92L428.976 627.736L428.739 627.762L428.539 627.632L280.057 530.741L278.497 529.723L280.348 529.52L360.608 520.704L360.846 520.677L361.045 520.808L509.528 617.699Z" fill="#1C1C1C" stroke="#121212" stroke-width="1.33333"/>
<path d="M689.721 438.234L691.281 439.251L689.43 439.455L609.17 448.271L608.932 448.297L608.733 448.167L460.25 351.276L458.69 350.259L460.541 350.055L540.802 341.239L541.039 341.213L541.239 341.343L689.721 438.234Z" fill="#1C1C1C" stroke="#121212" stroke-width="1.33333"/>
<path d="M329.356 797.172L330.916 798.19L329.065 798.393L248.804 807.21L248.567 807.236L248.367 807.105L99.8847 710.215L98.3252 709.197L100.176 708.994L180.436 700.177L180.674 700.151L180.874 700.282L329.356 797.172Z" fill="#1C1C1C" stroke="#121212" stroke-width="1.33333"/>
<path d="M779.792 348.485L781.351 349.502L779.5 349.706L699.24 358.522L699.003 358.548L698.803 358.418L550.32 261.527L548.761 260.51L550.612 260.306L630.872 251.49L631.109 251.464L631.309 251.594L779.792 348.485Z" fill="#1C1C1C" stroke="#121212" stroke-width="1.33333"/>
<path d="M419.428 707.421L420.988 708.439L419.137 708.642L338.877 717.459L338.639 717.485L338.44 717.354L189.957 620.464L188.397 619.446L190.249 619.243L270.509 610.426L270.746 610.4L270.946 610.531L419.428 707.421Z" fill="#1C1C1C" stroke="#121212" stroke-width="1.33333"/>
<path d="M599.622 527.957L601.181 528.975L599.33 529.178L519.07 537.995L518.833 538.021L518.633 537.89L370.15 441L368.591 439.982L370.442 439.779L450.702 430.962L450.939 430.936L451.139 431.067L599.622 527.957Z" fill="#1C1C1C" stroke="#121212" stroke-width="1.33333"/>
<path d="M239.257 886.896L240.816 887.913L238.965 888.117L158.705 896.933L158.468 896.959L158.268 896.829L9.78509 799.938L8.22556 798.921L10.0766 798.717L90.3368 789.901L90.5741 789.875L90.7739 790.005L239.257 886.896Z" fill="#1C1C1C" stroke="#121212" stroke-width="1.33333"/>
</svg>
