<svg width="830" height="907" viewBox="0 0 830 907" fill="none" xmlns="http://www.w3.org/2000/svg">
<path d="M18.2847 778.185L170.256 864.192L172.227 786.467L20.2563 700.46L18.2847 778.185Z" fill="#1C1C1C" stroke="#121212" stroke-width="1.33333"/>
<path d="M347.168 409.701L499.138 495.707L501.11 417.983L349.139 331.976L347.168 409.701Z" fill="#1C1C1C" stroke="#121212" stroke-width="1.33333"/>
<path d="M182.716 593.939L334.687 679.946L336.659 602.221L184.688 516.214L182.716 593.939Z" fill="#1C1C1C" stroke="#121212" stroke-width="1.33333"/>
<path d="M511.597 225.454L663.568 311.461L665.54 233.737L513.569 147.73L511.597 225.454Z" fill="#1C1C1C" stroke="#121212" stroke-width="1.33333"/>
<path d="M100.515 686.076L252.486 772.082L254.458 694.358L102.487 608.351L100.515 686.076Z" fill="#1C1C1C" stroke="#121212" stroke-width="1.33333"/>
<path d="M429.396 317.589L581.367 403.596L583.339 325.871L431.368 239.864L429.396 317.589Z" fill="#1C1C1C" stroke="#121212" stroke-width="1.33333"/>
<path d="M264.945 501.828L416.916 587.834L418.887 510.11L266.917 424.103L264.945 501.828Z" fill="#1C1C1C" stroke="#121212" stroke-width="1.33333"/>
<path d="M593.826 133.343L745.797 219.35L747.768 141.625L595.797 55.6184L593.826 133.343Z" fill="#1C1C1C" stroke="#121212" stroke-width="1.33333"/>
<path d="M22.6644 700.683L21.0478 699.758L22.8838 699.447L100.185 686.327L100.42 686.287L100.627 686.405L250.086 771.87L251.703 772.794L249.867 773.106L172.566 786.226L172.33 786.266L172.123 786.147L22.6644 700.683Z" fill="#1C1C1C" stroke="#121212" stroke-width="1.33333"/>
<path d="M351.549 332.196L349.933 331.271L351.769 330.96L429.07 317.84L429.305 317.8L429.512 317.918L578.971 403.383L580.588 404.307L578.752 404.619L501.45 417.739L501.215 417.778L501.008 417.66L351.549 332.196Z" fill="#1C1C1C" stroke="#121212" stroke-width="1.33333"/>
<path d="M187.094 516.434L185.478 515.509L187.313 515.198L264.615 502.078L264.85 502.038L265.057 502.156L414.516 587.621L416.132 588.545L414.297 588.857L336.995 601.977L336.76 602.017L336.553 601.898L187.094 516.434Z" fill="#1C1C1C" stroke="#121212" stroke-width="1.33333"/>
<path d="M515.977 147.948L514.36 147.024L516.196 146.712L593.498 133.593L593.733 133.553L593.94 133.671L743.399 219.136L745.015 220.06L743.179 220.372L665.878 233.491L665.643 233.531L665.436 233.413L515.977 147.948Z" fill="#1C1C1C" stroke="#121212" stroke-width="1.33333"/>
<path d="M104.895 608.572L103.278 607.647L105.114 607.336L182.415 594.216L182.651 594.176L182.858 594.294L332.317 679.759L333.933 680.683L332.097 680.995L254.796 694.114L254.561 694.154L254.354 694.036L104.895 608.572Z" fill="#1C1C1C" stroke="#121212" stroke-width="1.33333"/>
<path d="M433.778 240.085L432.161 239.161L433.997 238.849L511.298 225.729L511.534 225.689L511.741 225.808L661.2 311.272L662.816 312.197L660.98 312.508L583.679 325.628L583.444 325.668L583.236 325.55L433.778 240.085Z" fill="#1C1C1C" stroke="#121212" stroke-width="1.33333"/>
<path d="M269.325 424.323L267.708 423.399L269.544 423.087L346.845 409.968L347.08 409.928L347.288 410.046L496.746 495.511L498.363 496.435L496.527 496.747L419.226 509.866L418.99 509.906L418.783 509.788L269.325 424.323Z" fill="#1C1C1C" stroke="#121212" stroke-width="1.33333"/>
<path d="M598.205 55.8371L596.589 54.9127L598.425 54.6011L675.726 41.4812L675.961 41.4413L676.169 41.5598L825.627 127.024L827.244 127.949L825.408 128.26L748.107 141.38L747.871 141.42L747.664 141.302L598.205 55.8371Z" fill="#1C1C1C" stroke="#121212" stroke-width="1.33333"/>
</svg>
