<svg width="1190" height="1300" viewBox="0 0 1190 1300" fill="none" xmlns="http://www.w3.org/2000/svg">
<path d="M65.4233 153.854L288.061 46.3404L283.686 156.336L61.0477 263.85L65.4233 153.854Z" fill="#1C1C1C" stroke="#121212" stroke-width="1.33333"/>
<path d="M496.138 704.776L718.776 597.262L714.401 707.258L491.763 814.772L496.138 704.776Z" fill="#1C1C1C" stroke="#121212" stroke-width="1.33333"/>
<path d="M280.763 429.319L503.401 321.805L499.026 431.801L276.388 539.315L280.763 429.319Z" fill="#1C1C1C" stroke="#121212" stroke-width="1.33333"/>
<path d="M711.478 980.239L934.116 872.725L929.74 982.721L707.102 1090.23L711.478 980.239Z" fill="#1C1C1C" stroke="#121212" stroke-width="1.33333"/>
<path d="M173.117 291.571L395.755 184.057L391.379 294.053L168.741 401.567L173.117 291.571Z" fill="#1C1C1C" stroke="#121212" stroke-width="1.33333"/>
<path d="M603.83 842.492L826.467 734.978L822.092 844.974L599.454 952.488L603.83 842.492Z" fill="#1C1C1C" stroke="#121212" stroke-width="1.33333"/>
<path d="M388.458 567.037L611.096 459.523L606.721 569.519L384.083 677.033L388.458 567.037Z" fill="#1C1C1C" stroke="#121212" stroke-width="1.33333"/>
<path d="M819.169 1117.96L1041.81 1010.44L1037.43 1120.44L814.794 1227.95L819.169 1117.96Z" fill="#1C1C1C" stroke="#121212" stroke-width="1.33333"/>
<path d="M64.5937 264.011L62.9204 264.828L64.7322 265.258L172.739 290.917L172.971 290.972L173.186 290.868L392.224 183.889L393.898 183.071L392.086 182.641L284.079 156.982L283.847 156.927L283.632 157.032L64.5937 264.011Z" fill="#1C1C1C" stroke="#121212" stroke-width="1.33333"/>
<path d="M495.307 814.932L493.633 815.749L495.445 816.179L603.452 841.838L603.684 841.893L603.899 841.788L822.937 734.81L824.611 733.992L822.799 733.562L714.792 707.903L714.56 707.848L714.345 707.953L495.307 814.932Z" fill="#1C1C1C" stroke="#121212" stroke-width="1.33333"/>
<path d="M279.932 539.477L278.258 540.294L280.07 540.724L388.077 566.383L388.309 566.438L388.524 566.333L607.562 459.354L609.236 458.537L607.424 458.107L499.417 432.448L499.185 432.393L498.97 432.498L279.932 539.477Z" fill="#1C1C1C" stroke="#121212" stroke-width="1.33333"/>
<path d="M710.646 1090.4L708.973 1091.21L710.785 1091.64L818.792 1117.3L819.024 1117.36L819.239 1117.25L1038.28 1010.27L1039.95 1009.46L1038.14 1009.03L930.132 983.368L929.899 983.313L929.685 983.418L710.646 1090.4Z" fill="#1C1C1C" stroke="#121212" stroke-width="1.33333"/>
<path d="M172.287 401.727L170.614 402.545L172.426 402.975L280.433 428.634L280.665 428.689L280.879 428.584L499.918 321.605L501.591 320.788L499.779 320.358L391.772 294.699L391.54 294.644L391.326 294.749L172.287 401.727Z" fill="#1C1C1C" stroke="#121212" stroke-width="1.33333"/>
<path d="M602.998 952.647L601.325 953.465L603.136 953.895L711.143 979.554L711.376 979.609L711.59 979.504L930.629 872.525L932.302 871.708L930.49 871.278L822.483 845.619L822.251 845.564L822.037 845.669L602.998 952.647Z" fill="#1C1C1C" stroke="#121212" stroke-width="1.33333"/>
<path d="M387.623 677.193L385.95 678.011L387.761 678.441L495.768 704.1L496.001 704.155L496.215 704.05L715.254 597.071L716.927 596.254L715.115 595.824L607.108 570.165L606.876 570.11L606.662 570.214L387.623 677.193Z" fill="#1C1C1C" stroke="#121212" stroke-width="1.33333"/>
<path d="M818.338 1228.11L816.665 1228.93L818.476 1229.36L926.483 1255.02L926.716 1255.07L926.93 1254.97L1145.97 1147.99L1147.64 1147.17L1145.83 1146.74L1037.82 1121.08L1037.59 1121.03L1037.38 1121.13L818.338 1228.11Z" fill="#1C1C1C" stroke="#121212" stroke-width="1.33333"/>
</svg>
