<svg width="1920" height="531" viewBox="0 0 1920 531" fill="none" xmlns="http://www.w3.org/2000/svg">
<path d="M312.773 0.787109L472.585 111.555V254.978L312.773 144.21V0.787109Z" fill="#3A3A3A" stroke="#1D1D1D" stroke-width="1.87962" stroke-linejoin="bevel"/>
<path d="M632.396 0.787109L472.585 111.555V254.978L632.396 144.21V0.787109Z" fill="#747474" stroke="#1D1D1D" stroke-width="1.87962" stroke-linejoin="bevel"/>
<path d="M632.396 0.787109L792.208 111.555V254.978L632.396 144.21V0.787109Z" fill="#3A3A3A" stroke="#1D1D1D" stroke-width="1.87962" stroke-linejoin="bevel"/>
<path d="M951.642 1.00293L1111.37 111.245V254.668L951.558 143.9L951.642 1.00293Z" fill="#3A3A3A" stroke="#1D1D1D" stroke-width="1.87962" stroke-linejoin="bevel"/>
<path d="M952.018 1.00586L792.206 111.555V254.978L952.018 144.21V1.00586Z" fill="#747474" stroke="#1D1D1D" stroke-width="1.87962" stroke-linejoin="bevel"/>
<path d="M504.498 187.851L546.37 158.881L547.868 106.396L506.666 134.942L504.498 187.851Z" fill="#1D1D1D" stroke="#1D1D1D" stroke-width="2.63147"/>
<path d="M556.709 128.104L496.63 169.57" stroke="#747474" stroke-width="2.63147"/>
<path d="M526.908 191.275L527.243 106.407" stroke="#747474" stroke-width="2.63147"/>
<path d="M826.6 187.851L868.472 158.881L869.971 106.396L828.768 134.942L826.6 187.851Z" fill="#1D1D1D" stroke="#1D1D1D" stroke-width="2.63147"/>
<path d="M878.809 128.104L818.73 169.569" stroke="#747474" stroke-width="2.63147"/>
<path d="M849.007 191.275L849.341 106.407" stroke="#747474" stroke-width="2.63147"/>
<path d="M566.918 145.577L608.79 116.607L610.288 64.1225L569.086 92.6688L566.918 145.577Z" fill="#1D1D1D" stroke="#1D1D1D" stroke-width="2.63147"/>
<path d="M619.125 85.835L559.046 127.301" stroke="#747474" stroke-width="2.63147"/>
<path d="M589.326 149.005L589.661 64.1375" stroke="#747474" stroke-width="2.63147"/>
<path d="M889.015 145.577L930.887 116.607L932.386 64.1225L891.183 92.6688L889.015 145.577Z" fill="#1D1D1D" stroke="#1D1D1D" stroke-width="2.63147"/>
<path d="M941.226 85.835L881.147 127.301" stroke="#747474" stroke-width="2.63147"/>
<path d="M911.425 149.006L911.759 64.1385" stroke="#747474" stroke-width="2.63147"/>
<path d="M312.773 138.305L472.585 249.073V392.496L312.773 281.728V138.305Z" fill="#3A3A3A" stroke="#1D1D1D" stroke-width="1.87962" stroke-linejoin="bevel"/>
<path d="M632.396 138.305L472.585 249.073V392.496L632.396 281.728V138.305Z" fill="#747474" stroke="#1D1D1D" stroke-width="1.87962" stroke-linejoin="bevel"/>
<path d="M632.396 138.305L792.208 249.073V392.496L632.396 281.728V138.305Z" fill="#3A3A3A" stroke="#1D1D1D" stroke-width="1.87962" stroke-linejoin="bevel"/>
<path d="M951.642 138.52L1111.37 248.762V392.185L951.558 281.417L951.642 138.52Z" fill="#3A3A3A" stroke="#1D1D1D" stroke-width="1.87962" stroke-linejoin="bevel"/>
<path d="M952.018 138.521L792.206 249.071V392.494L952.018 281.726V138.521Z" fill="#747474" stroke="#1D1D1D" stroke-width="1.87962" stroke-linejoin="bevel"/>
<path d="M504.498 325.367L546.37 296.397L547.868 243.913L506.666 272.459L504.498 325.367Z" fill="#1D1D1D" stroke="#1D1D1D" stroke-width="2.63147"/>
<path d="M556.705 265.624L496.626 307.09" stroke="#747474" stroke-width="2.63147"/>
<path d="M526.904 328.793L527.239 243.926" stroke="#747474" stroke-width="2.63147"/>
<path d="M826.6 325.367L868.472 296.397L869.971 243.913L828.768 272.459L826.6 325.367Z" fill="#1D1D1D" stroke="#1D1D1D" stroke-width="2.63147"/>
<path d="M878.809 265.622L818.73 307.088" stroke="#747474" stroke-width="2.63147"/>
<path d="M849.008 328.793L849.342 243.926" stroke="#747474" stroke-width="2.63147"/>
<path d="M566.918 283.094L608.79 254.124L610.288 201.639L569.086 230.185L566.918 283.094Z" fill="#1D1D1D" stroke="#1D1D1D" stroke-width="2.63147"/>
<path d="M619.127 223.352L559.048 264.817" stroke="#747474" stroke-width="2.63147"/>
<path d="M589.326 286.522L589.661 201.654" stroke="#747474" stroke-width="2.63147"/>
<path d="M889.015 283.093L930.887 254.123L932.386 201.638L891.183 230.184L889.015 283.093Z" fill="#1D1D1D" stroke="#1D1D1D" stroke-width="2.63147"/>
<path d="M941.226 223.352L881.147 264.817" stroke="#747474" stroke-width="2.63147"/>
<path d="M911.426 286.525L911.76 201.657" stroke="#747474" stroke-width="2.63147"/>
<path d="M312.773 275.809L472.585 386.577V530L312.773 419.232V275.809Z" fill="#3A3A3A" stroke="#1D1D1D" stroke-width="1.87962" stroke-linejoin="bevel"/>
<path d="M632.396 275.809L472.585 386.577V530L632.396 419.232V275.809Z" fill="#747474" stroke="#1D1D1D" stroke-width="1.87962" stroke-linejoin="bevel"/>
<path d="M632.396 275.809L792.208 386.577V530L632.396 419.232V275.809Z" fill="#3A3A3A" stroke="#1D1D1D" stroke-width="1.87962" stroke-linejoin="bevel"/>
<path d="M951.642 276.023L1111.37 386.266V529.689L951.558 418.921L951.642 276.023Z" fill="#3A3A3A" stroke="#1D1D1D" stroke-width="1.87962" stroke-linejoin="bevel"/>
<path d="M952.018 276.027L792.206 386.577V530L952.018 419.232V276.027Z" fill="#747474" stroke="#1D1D1D" stroke-width="1.87962" stroke-linejoin="bevel"/>
<path d="M504.496 462.871L546.368 433.901L547.866 381.416L506.664 409.963L504.496 462.871Z" fill="#1D1D1D" stroke="#1D1D1D" stroke-width="2.63147"/>
<path d="M556.705 403.126L496.626 444.592" stroke="#747474" stroke-width="2.63147"/>
<path d="M526.904 466.296L527.239 381.429" stroke="#747474" stroke-width="2.63147"/>
<path d="M826.599 462.871L868.471 433.901L869.97 381.416L828.767 409.963L826.599 462.871Z" fill="#1D1D1D" stroke="#1D1D1D" stroke-width="2.63147"/>
<path d="M878.809 403.125L818.73 444.591" stroke="#747474" stroke-width="2.63147"/>
<path d="M849.008 466.296L849.342 381.429" stroke="#747474" stroke-width="2.63147"/>
<path d="M566.918 420.6L608.79 391.63L610.288 339.145L569.086 367.691L566.918 420.6Z" fill="#1D1D1D" stroke="#1D1D1D" stroke-width="2.63147"/>
<path d="M619.125 360.86L559.046 402.326" stroke="#747474" stroke-width="2.63147"/>
<path d="M589.326 424.031L589.661 339.163" stroke="#747474" stroke-width="2.63147"/>
<path d="M889.013 420.6L930.885 391.63L932.384 339.145L891.181 367.691L889.013 420.6Z" fill="#1D1D1D" stroke="#1D1D1D" stroke-width="2.63147"/>
<path d="M941.226 360.86L881.147 402.326" stroke="#747474" stroke-width="2.63147"/>
<path d="M911.424 424.033L911.758 339.165" stroke="#747474" stroke-width="2.63147"/>
<path d="M-5.70898 0.787109L154.103 111.555V254.978L-5.70898 144.21V0.787109Z" fill="#3A3A3A" stroke="#1D1D1D" stroke-width="1.87962" stroke-linejoin="bevel"/>
<path d="M313.536 1.00293L473.263 111.245V254.668L313.451 143.9L313.536 1.00293Z" fill="#3A3A3A" stroke="#1D1D1D" stroke-width="1.87962" stroke-linejoin="bevel"/>
<path d="M313.912 1.00684L154.1 111.556V254.979L313.912 144.211V1.00684Z" fill="#747474" stroke="#1D1D1D" stroke-width="1.87962" stroke-linejoin="bevel"/>
<path d="M188.496 187.85L230.368 158.88L231.866 106.395L190.664 134.941L188.496 187.85Z" fill="#1D1D1D" stroke="#1D1D1D" stroke-width="2.63147"/>
<path d="M240.707 128.104L180.628 169.569" stroke="#747474" stroke-width="2.63147"/>
<path d="M210.906 191.274L211.241 106.406" stroke="#747474" stroke-width="2.63147"/>
<path d="M250.908 145.577L292.78 116.607L294.279 64.1225L253.076 92.6688L250.908 145.577Z" fill="#1D1D1D" stroke="#1D1D1D" stroke-width="2.63147"/>
<path d="M303.123 85.835L243.044 127.301" stroke="#747474" stroke-width="2.63147"/>
<path d="M273.322 149.005L273.657 64.1375" stroke="#747474" stroke-width="2.63147"/>
<path d="M-5.70898 138.305L154.103 249.073V392.496L-5.70898 281.728V138.305Z" fill="#3A3A3A" stroke="#1D1D1D" stroke-width="1.87962" stroke-linejoin="bevel"/>
<path d="M313.536 138.52L473.263 248.762V392.185L313.451 281.417L313.536 138.52Z" fill="#3A3A3A" stroke="#1D1D1D" stroke-width="1.87962" stroke-linejoin="bevel"/>
<path d="M313.912 138.521L154.1 249.071V392.494L313.912 281.726V138.521Z" fill="#747474" stroke="#1D1D1D" stroke-width="1.87962" stroke-linejoin="bevel"/>
<path d="M188.496 325.367L230.368 296.397L231.866 243.913L190.664 272.459L188.496 325.367Z" fill="#1D1D1D" stroke="#1D1D1D" stroke-width="2.63147"/>
<path d="M240.705 265.622L180.626 307.088" stroke="#747474" stroke-width="2.63147"/>
<path d="M210.904 328.792L211.239 243.925" stroke="#747474" stroke-width="2.63147"/>
<path d="M250.906 283.093L292.778 254.123L294.277 201.638L253.074 230.184L250.906 283.093Z" fill="#1D1D1D" stroke="#1D1D1D" stroke-width="2.63147"/>
<path d="M303.121 223.352L243.042 264.817" stroke="#747474" stroke-width="2.63147"/>
<path d="M273.32 286.522L273.655 201.654" stroke="#747474" stroke-width="2.63147"/>
<path d="M-5.70898 275.809L154.103 386.577V530L-5.70898 419.232V275.809Z" fill="#3A3A3A" stroke="#1D1D1D" stroke-width="1.87962" stroke-linejoin="bevel"/>
<path d="M313.536 276.023L473.263 386.266V529.689L313.451 418.921L313.536 276.023Z" fill="#3A3A3A" stroke="#1D1D1D" stroke-width="1.87962" stroke-linejoin="bevel"/>
<path d="M313.912 276.027L154.1 386.577V530L313.912 419.232V276.027Z" fill="#747474" stroke="#1D1D1D" stroke-width="1.87962" stroke-linejoin="bevel"/>
<path d="M188.496 462.87L230.368 433.9L231.866 381.415L190.664 409.962L188.496 462.87Z" fill="#1D1D1D" stroke="#1D1D1D" stroke-width="2.63147"/>
<path d="M240.705 403.125L180.626 444.591" stroke="#747474" stroke-width="2.63147"/>
<path d="M210.906 466.297L211.241 381.429" stroke="#747474" stroke-width="2.63147"/>
<path d="M250.908 420.6L292.78 391.63L294.279 339.145L253.076 367.691L250.908 420.6Z" fill="#1D1D1D" stroke="#1D1D1D" stroke-width="2.63147"/>
<path d="M303.123 360.86L243.044 402.326" stroke="#747474" stroke-width="2.63147"/>
<path d="M273.322 424.031L273.657 339.163" stroke="#747474" stroke-width="2.63147"/>
<path d="M1270.85 0.788086L1430.66 111.556V254.979L1270.85 144.211V0.788086Z" fill="#3A3A3A" stroke="#1D1D1D" stroke-width="1.87962" stroke-linejoin="bevel"/>
<path d="M1590.47 0.788086L1430.66 111.556V254.979L1590.47 144.211V0.788086Z" fill="#747474" stroke="#1D1D1D" stroke-width="1.87962" stroke-linejoin="bevel"/>
<path d="M1590.47 0.788086L1750.28 111.556V254.979L1590.47 144.211V0.788086Z" fill="#3A3A3A" stroke="#1D1D1D" stroke-width="1.87962" stroke-linejoin="bevel"/>
<path d="M1909.71 1.00391L2069.44 111.246V254.669L1909.63 143.901L1909.71 1.00391Z" fill="#3A3A3A" stroke="#1D1D1D" stroke-width="1.87962" stroke-linejoin="bevel"/>
<path d="M1910.09 1.00684L1750.28 111.556V254.979L1910.09 144.211V1.00684Z" fill="#747474" stroke="#1D1D1D" stroke-width="1.87962" stroke-linejoin="bevel"/>
<path d="M1462.57 187.852L1504.44 158.882L1505.94 106.397L1464.74 134.943L1462.57 187.852Z" fill="#1D1D1D" stroke="#1D1D1D" stroke-width="2.63147"/>
<path d="M1514.78 128.104L1454.7 169.57" stroke="#747474" stroke-width="2.63147"/>
<path d="M1484.98 191.276L1485.31 106.408" stroke="#747474" stroke-width="2.63147"/>
<path d="M1784.67 187.852L1826.54 158.882L1828.04 106.397L1786.84 134.943L1784.67 187.852Z" fill="#1D1D1D" stroke="#1D1D1D" stroke-width="2.63147"/>
<path d="M1836.88 128.104L1776.8 169.57" stroke="#747474" stroke-width="2.63147"/>
<path d="M1807.08 191.277L1807.41 106.409" stroke="#747474" stroke-width="2.63147"/>
<path d="M1524.99 145.578L1566.86 116.608L1568.36 64.1235L1527.16 92.6698L1524.99 145.578Z" fill="#1D1D1D" stroke="#1D1D1D" stroke-width="2.63147"/>
<path d="M1577.19 85.8359L1517.12 127.302" stroke="#747474" stroke-width="2.63147"/>
<path d="M1547.39 149.007L1547.73 64.1394" stroke="#747474" stroke-width="2.63147"/>
<path d="M1847.09 145.578L1888.96 116.608L1890.46 64.1235L1849.26 92.6698L1847.09 145.578Z" fill="#1D1D1D" stroke="#1D1D1D" stroke-width="2.63147"/>
<path d="M1899.3 85.835L1839.22 127.301" stroke="#747474" stroke-width="2.63147"/>
<path d="M1869.5 149.006L1869.83 64.1385" stroke="#747474" stroke-width="2.63147"/>
<path d="M1270.85 138.306L1430.66 249.074V392.497L1270.85 281.729V138.306Z" fill="#3A3A3A" stroke="#1D1D1D" stroke-width="1.87962" stroke-linejoin="bevel"/>
<path d="M1590.47 138.306L1430.66 249.074V392.497L1590.47 281.729V138.306Z" fill="#747474" stroke="#1D1D1D" stroke-width="1.87962" stroke-linejoin="bevel"/>
<path d="M1590.47 138.306L1750.28 249.074V392.497L1590.47 281.729V138.306Z" fill="#3A3A3A" stroke="#1D1D1D" stroke-width="1.87962" stroke-linejoin="bevel"/>
<path d="M1909.71 138.521L2069.44 248.763V392.186L1909.63 281.418L1909.71 138.521Z" fill="#3A3A3A" stroke="#1D1D1D" stroke-width="1.87962" stroke-linejoin="bevel"/>
<path d="M1910.09 138.522L1750.28 249.072V392.495L1910.09 281.727V138.522Z" fill="#747474" stroke="#1D1D1D" stroke-width="1.87962" stroke-linejoin="bevel"/>
<path d="M1462.57 325.369L1504.44 296.399L1505.94 243.915L1464.74 272.461L1462.57 325.369Z" fill="#1D1D1D" stroke="#1D1D1D" stroke-width="2.63147"/>
<path d="M1514.78 265.625L1454.7 307.091" stroke="#747474" stroke-width="2.63147"/>
<path d="M1484.98 328.794L1485.31 243.927" stroke="#747474" stroke-width="2.63147"/>
<path d="M1784.67 325.368L1826.54 296.398L1828.04 243.914L1786.84 272.46L1784.67 325.368Z" fill="#1D1D1D" stroke="#1D1D1D" stroke-width="2.63147"/>
<path d="M1836.88 265.623L1776.8 307.089" stroke="#747474" stroke-width="2.63147"/>
<path d="M1807.08 328.794L1807.41 243.927" stroke="#747474" stroke-width="2.63147"/>
<path d="M1524.99 283.094L1566.86 254.124L1568.36 201.639L1527.15 230.185L1524.99 283.094Z" fill="#1D1D1D" stroke="#1D1D1D" stroke-width="2.63147"/>
<path d="M1577.19 223.353L1517.11 264.818" stroke="#747474" stroke-width="2.63147"/>
<path d="M1547.39 286.526L1547.73 201.658" stroke="#747474" stroke-width="2.63147"/>
<path d="M1847.08 283.094L1888.96 254.124L1890.46 201.639L1849.25 230.185L1847.08 283.094Z" fill="#1D1D1D" stroke="#1D1D1D" stroke-width="2.63147"/>
<path d="M1899.29 223.352L1839.22 264.817" stroke="#747474" stroke-width="2.63147"/>
<path d="M1869.49 286.523L1869.83 201.655" stroke="#747474" stroke-width="2.63147"/>
<path d="M1270.85 275.809L1430.66 386.577V530L1270.85 419.232V275.809Z" fill="#3A3A3A" stroke="#1D1D1D" stroke-width="1.87962" stroke-linejoin="bevel"/>
<path d="M1590.47 275.809L1430.66 386.577V530L1590.47 419.232V275.809Z" fill="#747474" stroke="#1D1D1D" stroke-width="1.87962" stroke-linejoin="bevel"/>
<path d="M1590.47 275.809L1750.28 386.577V530L1590.47 419.232V275.809Z" fill="#3A3A3A" stroke="#1D1D1D" stroke-width="1.87962" stroke-linejoin="bevel"/>
<path d="M1909.72 276.023L2069.44 386.266V529.689L1909.63 418.921L1909.72 276.023Z" fill="#3A3A3A" stroke="#1D1D1D" stroke-width="1.87962" stroke-linejoin="bevel"/>
<path d="M1910.09 276.028L1750.28 386.578V530.001L1910.09 419.233V276.028Z" fill="#747474" stroke="#1D1D1D" stroke-width="1.87962" stroke-linejoin="bevel"/>
<path d="M1462.57 462.871L1504.44 433.901L1505.94 381.416L1464.74 409.963L1462.57 462.871Z" fill="#1D1D1D" stroke="#1D1D1D" stroke-width="2.63147"/>
<path d="M1514.78 403.125L1454.7 444.591" stroke="#747474" stroke-width="2.63147"/>
<path d="M1484.98 466.296L1485.31 381.429" stroke="#747474" stroke-width="2.63147"/>
<path d="M1784.67 462.871L1826.54 433.901L1828.04 381.416L1786.84 409.963L1784.67 462.871Z" fill="#1D1D1D" stroke="#1D1D1D" stroke-width="2.63147"/>
<path d="M1836.88 403.125L1776.8 444.591" stroke="#747474" stroke-width="2.63147"/>
<path d="M1807.08 466.296L1807.42 381.429" stroke="#747474" stroke-width="2.63147"/>
<path d="M1524.99 420.601L1566.86 391.631L1568.36 339.146L1527.16 367.692L1524.99 420.601Z" fill="#1D1D1D" stroke="#1D1D1D" stroke-width="2.63147"/>
<path d="M1577.2 360.861L1517.12 402.327" stroke="#747474" stroke-width="2.63147"/>
<path d="M1547.4 424.034L1547.73 339.166" stroke="#747474" stroke-width="2.63147"/>
<path d="M1847.09 420.6L1888.96 391.63L1890.46 339.145L1849.26 367.691L1847.09 420.6Z" fill="#1D1D1D" stroke="#1D1D1D" stroke-width="2.63147"/>
<path d="M1899.3 360.86L1839.22 402.326" stroke="#747474" stroke-width="2.63147"/>
<path d="M1869.5 424.033L1869.83 339.165" stroke="#747474" stroke-width="2.63147"/>
<path d="M632.74 0.788086L792.552 111.556V254.979L632.74 144.211V0.788086Z" fill="#3A3A3A" stroke="#1D1D1D" stroke-width="1.87962" stroke-linejoin="bevel"/>
<path d="M952.363 0.788086L792.551 111.556V254.979L952.363 144.211V0.788086Z" fill="#747474" stroke="#1D1D1D" stroke-width="1.87962" stroke-linejoin="bevel"/>
<path d="M952.363 0.788086L1112.18 111.556V254.979L952.363 144.211V0.788086Z" fill="#3A3A3A" stroke="#1D1D1D" stroke-width="1.87962" stroke-linejoin="bevel"/>
<path d="M1271.61 1.00391L1431.34 111.246V254.669L1271.52 143.901L1271.61 1.00391Z" fill="#3A3A3A" stroke="#1D1D1D" stroke-width="1.87962" stroke-linejoin="bevel"/>
<path d="M1271.98 1.00684L1112.17 111.556V254.979L1271.98 144.211V1.00684Z" fill="#747474" stroke="#1D1D1D" stroke-width="1.87962" stroke-linejoin="bevel"/>
<path d="M824.464 187.851L866.336 158.881L867.835 106.396L826.632 134.942L824.464 187.851Z" fill="#1D1D1D" stroke="#1D1D1D" stroke-width="2.63147"/>
<path d="M876.673 128.107L816.594 169.573" stroke="#747474" stroke-width="2.63147"/>
<path d="M846.872 191.279L847.207 106.411" stroke="#747474" stroke-width="2.63147"/>
<path d="M1146.57 187.851L1188.44 158.881L1189.94 106.396L1148.73 134.942L1146.57 187.851Z" fill="#1D1D1D" stroke="#1D1D1D" stroke-width="2.63147"/>
<path d="M1198.78 128.104L1138.7 169.57" stroke="#747474" stroke-width="2.63147"/>
<path d="M1168.97 191.276L1169.31 106.408" stroke="#747474" stroke-width="2.63147"/>
<path d="M886.881 145.578L928.753 116.608L930.252 64.1235L889.049 92.6698L886.881 145.578Z" fill="#1D1D1D" stroke="#1D1D1D" stroke-width="2.63147"/>
<path d="M939.089 85.8359L879.01 127.302" stroke="#747474" stroke-width="2.63147"/>
<path d="M909.288 149.007L909.623 64.1394" stroke="#747474" stroke-width="2.63147"/>
<path d="M1208.98 145.579L1250.85 116.609L1252.35 64.1245L1211.15 92.6707L1208.98 145.579Z" fill="#1D1D1D" stroke="#1D1D1D" stroke-width="2.63147"/>
<path d="M1261.19 85.8359L1201.11 127.302" stroke="#747474" stroke-width="2.63147"/>
<path d="M1231.39 149.007L1231.72 64.1394" stroke="#747474" stroke-width="2.63147"/>
<path d="M632.74 138.306L792.552 249.074V392.497L632.74 281.729V138.306Z" fill="#3A3A3A" stroke="#1D1D1D" stroke-width="1.87962" stroke-linejoin="bevel"/>
<path d="M952.363 138.306L792.551 249.074V392.497L952.363 281.729V138.306Z" fill="#747474" stroke="#1D1D1D" stroke-width="1.87962" stroke-linejoin="bevel"/>
<path d="M952.363 138.306L1112.18 249.074V392.497L952.363 281.729V138.306Z" fill="#3A3A3A" stroke="#1D1D1D" stroke-width="1.87962" stroke-linejoin="bevel"/>
<path d="M1271.61 138.521L1431.34 248.763V392.186L1271.52 281.418L1271.61 138.521Z" fill="#3A3A3A" stroke="#1D1D1D" stroke-width="1.87962" stroke-linejoin="bevel"/>
<path d="M1271.98 138.522L1112.17 249.072V392.495L1271.98 281.727V138.522Z" fill="#747474" stroke="#1D1D1D" stroke-width="1.87962" stroke-linejoin="bevel"/>
<path d="M824.465 325.368L866.337 296.398L867.836 243.914L826.633 272.46L824.465 325.368Z" fill="#1D1D1D" stroke="#1D1D1D" stroke-width="2.63147"/>
<path d="M876.673 265.625L816.594 307.091" stroke="#747474" stroke-width="2.63147"/>
<path d="M846.874 328.794L847.209 243.927" stroke="#747474" stroke-width="2.63147"/>
<path d="M1146.57 325.368L1188.44 296.398L1189.94 243.914L1148.74 272.46L1146.57 325.368Z" fill="#1D1D1D" stroke="#1D1D1D" stroke-width="2.63147"/>
<path d="M1198.78 265.622L1138.7 307.088" stroke="#747474" stroke-width="2.63147"/>
<path d="M1168.97 328.793L1169.31 243.926" stroke="#747474" stroke-width="2.63147"/>
<path d="M886.882 283.093L928.754 254.123L930.253 201.638L889.05 230.184L886.882 283.093Z" fill="#1D1D1D" stroke="#1D1D1D" stroke-width="2.63147"/>
<path d="M939.089 223.353L879.01 264.818" stroke="#747474" stroke-width="2.63147"/>
<path d="M909.289 286.526L909.624 201.658" stroke="#747474" stroke-width="2.63147"/>
<path d="M1208.98 283.096L1250.85 254.126L1252.35 201.641L1211.15 230.187L1208.98 283.096Z" fill="#1D1D1D" stroke="#1D1D1D" stroke-width="2.63147"/>
<path d="M1261.19 223.354L1201.11 264.82" stroke="#747474" stroke-width="2.63147"/>
<path d="M1231.39 286.526L1231.72 201.658" stroke="#747474" stroke-width="2.63147"/>
<path d="M632.74 275.81L792.552 386.578V530.001L632.74 419.233V275.81Z" fill="#3A3A3A" stroke="#1D1D1D" stroke-width="1.87962" stroke-linejoin="bevel"/>
<path d="M952.363 275.81L792.551 386.578V530.001L952.363 419.233V275.81Z" fill="#747474" stroke="#1D1D1D" stroke-width="1.87962" stroke-linejoin="bevel"/>
<path d="M952.363 275.81L1112.18 386.578V530.001L952.363 419.233V275.81Z" fill="#3A3A3A" stroke="#1D1D1D" stroke-width="1.87962" stroke-linejoin="bevel"/>
<path d="M1271.61 276.024L1431.34 386.267V529.69L1271.52 418.922L1271.61 276.024Z" fill="#3A3A3A" stroke="#1D1D1D" stroke-width="1.87962" stroke-linejoin="bevel"/>
<path d="M1271.98 276.029L1112.17 386.579V530.002L1271.98 419.234V276.029Z" fill="#747474" stroke="#1D1D1D" stroke-width="1.87962" stroke-linejoin="bevel"/>
<path d="M824.464 462.872L866.336 433.902L867.835 381.417L826.632 409.964L824.464 462.872Z" fill="#1D1D1D" stroke="#1D1D1D" stroke-width="2.63147"/>
<path d="M876.673 403.127L816.594 444.593" stroke="#747474" stroke-width="2.63147"/>
<path d="M846.872 466.297L847.207 381.429" stroke="#747474" stroke-width="2.63147"/>
<path d="M1146.57 462.871L1188.44 433.901L1189.94 381.416L1148.73 409.963L1146.57 462.871Z" fill="#1D1D1D" stroke="#1D1D1D" stroke-width="2.63147"/>
<path d="M1198.78 403.125L1138.7 444.591" stroke="#747474" stroke-width="2.63147"/>
<path d="M1168.97 466.296L1169.31 381.429" stroke="#747474" stroke-width="2.63147"/>
<path d="M886.883 420.602L928.755 391.632L930.254 339.147L889.051 367.693L886.883 420.602Z" fill="#1D1D1D" stroke="#1D1D1D" stroke-width="2.63147"/>
<path d="M939.091 360.862L879.012 402.328" stroke="#747474" stroke-width="2.63147"/>
<path d="M909.289 424.034L909.624 339.166" stroke="#747474" stroke-width="2.63147"/>
<path d="M1208.98 420.602L1250.85 391.632L1252.35 339.147L1211.15 367.693L1208.98 420.602Z" fill="#1D1D1D" stroke="#1D1D1D" stroke-width="2.63147"/>
<path d="M1261.19 360.861L1201.11 402.327" stroke="#747474" stroke-width="2.63147"/>
<path d="M1231.39 424.033L1231.72 339.165" stroke="#747474" stroke-width="2.63147"/>
</svg>
