<svg width="1630" height="1482" viewBox="0 0 1630 1482" fill="none" xmlns="http://www.w3.org/2000/svg">
<path d="M128.546 153.854L351.184 46.3404L346.809 156.336L124.171 263.85L128.546 153.854Z" fill="#1C1C1C" stroke="#121212" stroke-width="1.33333"/>
<path d="M559.261 704.776L781.899 597.262L777.524 707.258L554.886 814.772L559.261 704.776Z" fill="#1C1C1C" stroke="#121212" stroke-width="1.33333"/>
<path d="M343.886 429.319L566.524 321.805L562.149 431.801L339.511 539.315L343.886 429.319Z" fill="#1C1C1C" stroke="#121212" stroke-width="1.33333"/>
<path d="M774.601 980.239L997.239 872.725L992.863 982.721L770.225 1090.23L774.601 980.239Z" fill="#1C1C1C" stroke="#121212" stroke-width="1.33333"/>
<path d="M236.24 291.571L458.878 184.057L454.502 294.053L231.864 401.567L236.24 291.571Z" fill="#1C1C1C" stroke="#121212" stroke-width="1.33333"/>
<path d="M666.953 842.492L889.591 734.978L885.215 844.974L662.577 952.488L666.953 842.492Z" fill="#1C1C1C" stroke="#121212" stroke-width="1.33333"/>
<path d="M451.582 567.037L674.219 459.523L669.844 569.519L447.206 677.033L451.582 567.037Z" fill="#1C1C1C" stroke="#121212" stroke-width="1.33333"/>
<path d="M882.293 1117.96L1104.93 1010.44L1100.56 1120.44L877.918 1227.95L882.293 1117.96Z" fill="#1C1C1C" stroke="#121212" stroke-width="1.33333"/>
<path d="M127.717 264.011L126.043 264.828L127.855 265.258L235.862 290.917L236.094 290.972L236.309 290.868L455.348 183.889L457.021 183.071L455.209 182.641L347.202 156.982L346.97 156.927L346.755 157.032L127.717 264.011Z" fill="#1C1C1C" stroke="#121212" stroke-width="1.33333"/>
<path d="M558.43 814.932L556.756 815.749L558.568 816.179L666.575 841.838L666.807 841.893L667.022 841.788L886.06 734.81L887.734 733.992L885.922 733.562L777.915 707.903L777.683 707.848L777.468 707.953L558.43 814.932Z" fill="#1C1C1C" stroke="#121212" stroke-width="1.33333"/>
<path d="M343.055 539.477L341.381 540.294L343.193 540.724L451.2 566.383L451.432 566.438L451.647 566.333L670.685 459.354L672.359 458.537L670.547 458.107L562.54 432.448L562.308 432.393L562.093 432.498L343.055 539.477Z" fill="#1C1C1C" stroke="#121212" stroke-width="1.33333"/>
<path d="M773.769 1090.4L772.096 1091.21L773.908 1091.64L881.915 1117.3L882.147 1117.36L882.362 1117.25L1101.4 1010.27L1103.07 1009.46L1101.26 1009.03L993.255 983.368L993.023 983.313L992.808 983.418L773.769 1090.4Z" fill="#1C1C1C" stroke="#121212" stroke-width="1.33333"/>
<path d="M235.41 401.727L233.737 402.545L235.549 402.975L343.556 428.634L343.788 428.689L344.002 428.584L563.041 321.605L564.714 320.788L562.902 320.358L454.895 294.699L454.663 294.644L454.449 294.749L235.41 401.727Z" fill="#1C1C1C" stroke="#121212" stroke-width="1.33333"/>
<path d="M666.122 952.647L664.449 953.465L666.26 953.895L774.268 979.554L774.5 979.609L774.714 979.504L993.753 872.525L995.426 871.708L993.614 871.278L885.607 845.619L885.375 845.564L885.161 845.669L666.122 952.647Z" fill="#1C1C1C" stroke="#121212" stroke-width="1.33333"/>
<path d="M450.746 677.193L449.073 678.011L450.884 678.441L558.892 704.1L559.124 704.155L559.338 704.05L778.377 597.071L780.05 596.254L778.238 595.824L670.231 570.165L669.999 570.11L669.785 570.214L450.746 677.193Z" fill="#1C1C1C" stroke="#121212" stroke-width="1.33333"/>
<path d="M881.462 1228.11L879.789 1228.93L881.6 1229.36L989.607 1255.02L989.84 1255.07L990.054 1254.97L1209.09 1147.99L1210.77 1147.17L1208.95 1146.74L1100.95 1121.08L1100.71 1121.03L1100.5 1121.13L881.462 1228.11Z" fill="#1C1C1C" stroke="#121212" stroke-width="1.33333"/>
<path d="M373.378 1288.25L520.12 1382.91L526.584 1305.43L379.842 1210.77L373.378 1288.25Z" fill="#1C1C1C" stroke="#121212" stroke-width="1.33333"/>
<path d="M198.546 1462.67L345.288 1557.33L351.752 1479.84L205.01 1385.19L198.546 1462.67Z" fill="#1C1C1C" stroke="#121212" stroke-width="1.33333"/>
<path d="M548.189 1113.83L694.931 1208.48L701.394 1131L554.652 1036.34L548.189 1113.83Z" fill="#1C1C1C" stroke="#121212" stroke-width="1.33333"/>
<path d="M111.153 1549.9L257.896 1644.55L264.359 1567.07L117.617 1472.42L111.153 1549.9Z" fill="#1C1C1C" stroke="#121212" stroke-width="1.33333"/>
<path d="M460.796 1201.05L607.538 1295.71L614.002 1218.22L467.26 1123.57L460.796 1201.05Z" fill="#1C1C1C" stroke="#121212" stroke-width="1.33333"/>
<path d="M285.964 1375.47L432.706 1470.12L439.17 1392.64L292.428 1297.99L285.964 1375.47Z" fill="#1C1C1C" stroke="#121212" stroke-width="1.33333"/>
<path d="M635.607 1026.62L782.349 1121.28L788.812 1043.8L642.07 949.144L635.607 1026.62Z" fill="#1C1C1C" stroke="#121212" stroke-width="1.33333"/>
<path d="M382.235 1211.13L380.674 1210.11L382.525 1209.91L460.456 1201.28L460.693 1201.26L460.893 1201.39L605.158 1295.35L606.719 1296.37L604.868 1296.57L526.937 1305.2L526.7 1305.23L526.5 1305.1L382.235 1211.13Z" fill="#1C1C1C" stroke="#121212" stroke-width="1.33333"/>
<path d="M207.401 1385.55L205.84 1384.54L207.691 1384.33L285.622 1375.7L285.859 1375.68L286.059 1375.81L430.324 1469.77L431.885 1470.79L430.034 1470.99L352.103 1479.62L351.866 1479.65L351.666 1479.52L207.401 1385.55Z" fill="#1C1C1C" stroke="#121212" stroke-width="1.33333"/>
<path d="M557.043 1036.7L555.483 1035.69L557.334 1035.48L635.264 1026.85L635.502 1026.83L635.702 1026.96L779.967 1120.92L781.527 1121.94L779.677 1122.15L701.746 1130.77L701.509 1130.8L701.309 1130.67L557.043 1036.7Z" fill="#1C1C1C" stroke="#121212" stroke-width="1.33333"/>
<path d="M120.01 1472.78L118.45 1471.76L120.3 1471.56L198.231 1462.93L198.468 1462.91L198.668 1463.04L342.934 1557L344.494 1558.02L342.643 1558.22L264.713 1566.85L264.475 1566.88L264.275 1566.75L120.01 1472.78Z" fill="#1C1C1C" stroke="#121212" stroke-width="1.33333"/>
<path d="M469.654 1123.93L468.094 1122.91L469.945 1122.71L547.876 1114.08L548.113 1114.06L548.313 1114.19L692.578 1208.15L694.139 1209.17L692.288 1209.37L614.357 1218L614.12 1218.03L613.92 1217.9L469.654 1123.93Z" fill="#1C1C1C" stroke="#121212" stroke-width="1.33333"/>
<path d="M294.82 1298.35L293.26 1297.33L295.111 1297.13L373.042 1288.5L373.279 1288.47L373.479 1288.6L517.744 1382.57L519.305 1383.59L517.454 1383.79L439.523 1392.42L439.286 1392.44L439.086 1392.31L294.82 1298.35Z" fill="#1C1C1C" stroke="#121212" stroke-width="1.33333"/>
<path d="M644.463 949.501L642.903 948.485L644.754 948.28L722.684 939.653L722.921 939.627L723.121 939.757L867.387 1033.72L868.947 1034.74L867.096 1034.94L789.166 1043.57L788.929 1043.6L788.729 1043.47L644.463 949.501Z" fill="#1C1C1C" stroke="#121212" stroke-width="1.33333"/>
<path d="M818.408 900.185L970.379 986.192L972.35 908.467L820.379 822.46L818.408 900.185Z" fill="#1C1C1C" stroke="#121212" stroke-width="1.33333"/>
<path d="M1147.29 531.701L1299.26 617.707L1301.23 539.983L1149.26 453.976L1147.29 531.701Z" fill="#1C1C1C" stroke="#121212" stroke-width="1.33333"/>
<path d="M982.839 715.939L1134.81 801.946L1136.78 724.221L984.811 638.214L982.839 715.939Z" fill="#1C1C1C" stroke="#121212" stroke-width="1.33333"/>
<path d="M1311.72 347.454L1463.69 433.461L1465.66 355.737L1313.69 269.73L1311.72 347.454Z" fill="#1C1C1C" stroke="#121212" stroke-width="1.33333"/>
<path d="M900.638 808.076L1052.61 894.082L1054.58 816.358L902.61 730.351L900.638 808.076Z" fill="#1C1C1C" stroke="#121212" stroke-width="1.33333"/>
<path d="M1229.52 439.589L1381.49 525.596L1383.46 447.871L1231.49 361.864L1229.52 439.589Z" fill="#1C1C1C" stroke="#121212" stroke-width="1.33333"/>
<path d="M1065.07 623.828L1217.04 709.834L1219.01 632.11L1067.04 546.103L1065.07 623.828Z" fill="#1C1C1C" stroke="#121212" stroke-width="1.33333"/>
<path d="M1393.95 255.343L1545.92 341.35L1547.89 263.625L1395.92 177.618L1393.95 255.343Z" fill="#1C1C1C" stroke="#121212" stroke-width="1.33333"/>
<path d="M822.787 822.683L821.171 821.758L823.007 821.447L900.308 808.327L900.543 808.287L900.751 808.405L1050.21 893.87L1051.83 894.794L1049.99 895.106L972.689 908.226L972.453 908.266L972.246 908.147L822.787 822.683Z" fill="#1C1C1C" stroke="#121212" stroke-width="1.33333"/>
<path d="M1151.67 454.196L1150.05 453.271L1151.89 452.96L1229.19 439.84L1229.43 439.8L1229.63 439.918L1379.09 525.383L1380.71 526.307L1378.87 526.619L1301.57 539.739L1301.34 539.778L1301.13 539.66L1151.67 454.196Z" fill="#1C1C1C" stroke="#121212" stroke-width="1.33333"/>
<path d="M987.217 638.434L985.601 637.509L987.436 637.198L1064.74 624.078L1064.97 624.038L1065.18 624.156L1214.64 709.621L1216.26 710.545L1214.42 710.857L1137.12 723.977L1136.88 724.017L1136.68 723.898L987.217 638.434Z" fill="#1C1C1C" stroke="#121212" stroke-width="1.33333"/>
<path d="M1316.1 269.948L1314.48 269.024L1316.32 268.712L1393.62 255.593L1393.86 255.553L1394.06 255.671L1543.52 341.136L1545.14 342.06L1543.3 342.372L1466 355.491L1465.77 355.531L1465.56 355.413L1316.1 269.948Z" fill="#1C1C1C" stroke="#121212" stroke-width="1.33333"/>
<path d="M905.018 730.572L903.401 729.647L905.237 729.336L982.539 716.216L982.774 716.176L982.981 716.294L1132.44 801.759L1134.06 802.683L1132.22 802.995L1054.92 816.114L1054.68 816.154L1054.48 816.036L905.018 730.572Z" fill="#1C1C1C" stroke="#121212" stroke-width="1.33333"/>
<path d="M1233.9 362.085L1232.28 361.161L1234.12 360.849L1311.42 347.729L1311.66 347.689L1311.86 347.808L1461.32 433.272L1462.94 434.197L1461.1 434.508L1383.8 447.628L1383.57 447.668L1383.36 447.55L1233.9 362.085Z" fill="#1C1C1C" stroke="#121212" stroke-width="1.33333"/>
<path d="M1069.45 546.323L1067.83 545.399L1069.67 545.087L1146.97 531.968L1147.2 531.928L1147.41 532.046L1296.87 617.511L1298.49 618.435L1296.65 618.747L1219.35 631.866L1219.11 631.906L1218.91 631.788L1069.45 546.323Z" fill="#1C1C1C" stroke="#121212" stroke-width="1.33333"/>
<path d="M1398.33 177.837L1396.71 176.913L1398.55 176.601L1475.85 163.481L1476.09 163.441L1476.29 163.56L1625.75 249.024L1627.37 249.949L1625.53 250.26L1548.23 263.38L1548 263.42L1547.79 263.302L1398.33 177.837Z" fill="#1C1C1C" stroke="#121212" stroke-width="1.33333"/>
<path d="M1472 948.096L1315.64 1025.83L1317.83 948.114L1474.2 870.378L1472 948.096Z" fill="#1C1C1C" stroke="#121212" stroke-width="1.33333"/>
<path d="M1163.34 562.51L1006.98 640.246L1009.18 562.527L1165.54 484.791L1163.34 562.51Z" fill="#1C1C1C" stroke="#121212" stroke-width="1.33333"/>
<path d="M1317.68 755.299L1161.32 833.035L1163.52 755.316L1319.88 677.58L1317.68 755.299Z" fill="#1C1C1C" stroke="#121212" stroke-width="1.33333"/>
<path d="M1009.03 369.715L852.665 447.451L854.863 369.733L1011.23 291.996L1009.03 369.715Z" fill="#1C1C1C" stroke="#121212" stroke-width="1.33333"/>
<path d="M1394.82 851.71L1238.46 929.446L1240.66 851.728L1397.02 773.991L1394.82 851.71Z" fill="#1C1C1C" stroke="#121212" stroke-width="1.33333"/>
<path d="M1086.17 466.125L929.807 543.861L932.005 466.143L1088.37 388.406L1086.17 466.125Z" fill="#1C1C1C" stroke="#121212" stroke-width="1.33333"/>
<path d="M1240.51 658.913L1084.15 736.649L1086.34 658.931L1242.71 581.194L1240.51 658.913Z" fill="#1C1C1C" stroke="#121212" stroke-width="1.33333"/>
<path d="M931.853 273.328L775.49 351.064L777.688 273.346L934.051 195.609L931.853 273.328Z" fill="#1C1C1C" stroke="#121212" stroke-width="1.33333"/>
<path d="M1471.78 870.47L1473.45 869.633L1471.63 869.224L1395.14 851.979L1394.91 851.926L1394.7 852.033L1240.87 929.363L1239.21 930.199L1241.02 930.609L1317.51 947.854L1317.74 947.906L1317.96 947.799L1471.78 870.47Z" fill="#1C1C1C" stroke="#121212" stroke-width="1.33333"/>
<path d="M1163.12 484.883L1164.79 484.046L1162.97 483.637L1086.48 466.392L1086.25 466.339L1086.04 466.446L932.213 543.776L930.549 544.612L932.366 545.022L1008.85 562.267L1009.09 562.319L1009.3 562.212L1163.12 484.883Z" fill="#1C1C1C" stroke="#121212" stroke-width="1.33333"/>
<path d="M1317.46 677.671L1319.13 676.834L1317.31 676.425L1240.82 659.18L1240.59 659.127L1240.38 659.235L1086.55 736.564L1084.89 737.401L1086.71 737.81L1163.19 755.055L1163.43 755.108L1163.64 755L1317.46 677.671Z" fill="#1C1C1C" stroke="#121212" stroke-width="1.33333"/>
<path d="M1008.81 292.086L1010.47 291.249L1008.66 290.84L932.169 273.595L931.936 273.542L931.723 273.65L777.898 350.979L776.234 351.816L778.05 352.225L854.537 369.47L854.77 369.523L854.983 369.415L1008.81 292.086Z" fill="#1C1C1C" stroke="#121212" stroke-width="1.33333"/>
<path d="M1394.61 774.083L1396.27 773.246L1394.45 772.837L1317.97 755.592L1317.74 755.539L1317.52 755.647L1163.7 832.976L1162.03 833.813L1163.85 834.222L1240.34 851.467L1240.57 851.52L1240.78 851.412L1394.61 774.083Z" fill="#1C1C1C" stroke="#121212" stroke-width="1.33333"/>
<path d="M1085.95 388.495L1087.61 387.659L1085.8 387.249L1009.31 370.004L1009.08 369.952L1008.87 370.059L855.04 447.388L853.376 448.225L855.193 448.634L931.68 465.879L931.913 465.932L932.126 465.825L1085.95 388.495Z" fill="#1C1C1C" stroke="#121212" stroke-width="1.33333"/>
<path d="M1240.29 581.285L1241.95 580.449L1240.14 580.039L1163.65 562.794L1163.42 562.742L1163.21 562.849L1009.38 640.178L1007.72 641.015L1009.53 641.424L1086.02 658.669L1086.25 658.722L1086.47 658.615L1240.29 581.285Z" fill="#1C1C1C" stroke="#121212" stroke-width="1.33333"/>
<path d="M931.636 195.698L933.3 194.862L931.483 194.452L854.996 177.207L854.763 177.155L854.55 177.262L700.725 254.592L699.061 255.428L700.878 255.838L777.364 273.082L777.597 273.135L777.81 273.028L931.636 195.698Z" fill="#1C1C1C" stroke="#121212" stroke-width="1.33333"/>
<path d="M1110.21 315.331L959.178 217.731L952.455 297.515L1103.49 395.115L1110.21 315.331Z" fill="#1C1C1C" stroke="#121212" stroke-width="1.33333"/>
<path d="M749.845 674.271L598.813 576.671L592.089 656.454L743.122 754.054L749.845 674.271Z" fill="#1C1C1C" stroke="#121212" stroke-width="1.33333"/>
<path d="M930.039 494.805L779.006 397.205L772.283 476.988L923.315 574.588L930.039 494.805Z" fill="#1C1C1C" stroke="#121212" stroke-width="1.33333"/>
<path d="M569.675 853.743L418.643 756.143L411.919 835.927L562.952 933.527L569.675 853.743Z" fill="#1C1C1C" stroke="#121212" stroke-width="1.33333"/>
<path d="M1020.11 405.054L869.079 307.454L862.355 387.238L1013.39 484.838L1020.11 405.054Z" fill="#1C1C1C" stroke="#121212" stroke-width="1.33333"/>
<path d="M659.747 763.994L508.714 666.394L501.991 746.178L653.023 843.778L659.747 763.994Z" fill="#1C1C1C" stroke="#121212" stroke-width="1.33333"/>
<path d="M839.94 584.53L688.908 486.93L682.184 566.714L833.217 664.314L839.94 584.53Z" fill="#1C1C1C" stroke="#121212" stroke-width="1.33333"/>
<path d="M479.576 943.467L328.543 845.867L321.82 925.651L472.852 1023.25L479.576 943.467Z" fill="#1C1C1C" stroke="#121212" stroke-width="1.33333"/>
<path d="M1101.01 394.76L1102.57 395.778L1100.72 395.981L1020.46 404.798L1020.22 404.824L1020.02 404.693L871.542 307.803L869.982 306.785L871.833 306.582L952.094 297.765L952.331 297.739L952.531 297.869L1101.01 394.76Z" fill="#1C1C1C" stroke="#121212" stroke-width="1.33333"/>
<path d="M740.649 753.699L742.209 754.716L740.358 754.92L660.097 763.736L659.86 763.762L659.66 763.632L511.178 666.741L509.618 665.723L511.469 665.52L591.729 656.704L591.967 656.677L592.167 656.808L740.649 753.699Z" fill="#1C1C1C" stroke="#121212" stroke-width="1.33333"/>
<path d="M920.843 574.234L922.403 575.251L920.552 575.455L840.292 584.271L840.055 584.297L839.855 584.167L691.372 487.276L689.812 486.259L691.664 486.055L771.924 477.239L772.161 477.213L772.361 477.343L920.843 574.234Z" fill="#1C1C1C" stroke="#121212" stroke-width="1.33333"/>
<path d="M560.479 933.172L562.039 934.19L560.188 934.393L479.927 943.21L479.69 943.236L479.49 943.105L331.008 846.215L329.448 845.197L331.299 844.994L411.559 836.177L411.797 836.151L411.997 836.282L560.479 933.172Z" fill="#1C1C1C" stroke="#121212" stroke-width="1.33333"/>
<path d="M1010.91 484.485L1012.47 485.502L1010.62 485.706L930.363 494.522L930.126 494.548L929.926 494.418L781.443 397.527L779.884 396.51L781.735 396.306L861.995 387.49L862.232 387.464L862.432 387.594L1010.91 484.485Z" fill="#1C1C1C" stroke="#121212" stroke-width="1.33333"/>
<path d="M650.551 843.421L652.11 844.439L650.259 844.642L569.999 853.459L569.762 853.485L569.562 853.354L421.079 756.464L419.52 755.446L421.371 755.243L501.631 746.426L501.868 746.4L502.068 746.531L650.551 843.421Z" fill="#1C1C1C" stroke="#121212" stroke-width="1.33333"/>
<path d="M830.744 663.957L832.303 664.975L830.452 665.178L750.192 673.995L749.955 674.021L749.755 673.89L601.272 577L599.713 575.982L601.564 575.779L681.824 566.962L682.061 566.936L682.261 567.067L830.744 663.957Z" fill="#1C1C1C" stroke="#121212" stroke-width="1.33333"/>
<path d="M470.38 1022.9L471.939 1023.91L470.088 1024.12L389.828 1032.93L389.591 1032.96L389.391 1032.83L240.908 935.938L239.349 934.921L241.2 934.717L321.46 925.901L321.697 925.875L321.897 926.005L470.38 1022.9Z" fill="#1C1C1C" stroke="#121212" stroke-width="1.33333"/>
<path d="M479.612 827.665L636.86 751.734L633.768 829.423L476.52 905.353L479.612 827.665Z" fill="#1C1C1C" stroke="#121212" stroke-width="1.33333"/>
<path d="M783.807 1216.78L941.055 1140.85L937.962 1218.54L780.714 1294.47L783.807 1216.78Z" fill="#1C1C1C" stroke="#121212" stroke-width="1.33333"/>
<path d="M631.699 1022.23L788.947 946.296L785.854 1023.98L628.607 1099.91L631.699 1022.23Z" fill="#1C1C1C" stroke="#121212" stroke-width="1.33333"/>
<path d="M935.894 1411.34L1093.14 1335.41L1090.05 1413.1L932.801 1489.03L935.894 1411.34Z" fill="#1C1C1C" stroke="#121212" stroke-width="1.33333"/>
<path d="M555.671 924.935L712.919 849.004L709.826 926.692L552.578 1002.62L555.671 924.935Z" fill="#1C1C1C" stroke="#121212" stroke-width="1.33333"/>
<path d="M859.866 1314.05L1017.11 1238.12L1014.02 1315.81L856.774 1391.74L859.866 1314.05Z" fill="#1C1C1C" stroke="#121212" stroke-width="1.33333"/>
<path d="M707.757 1119.5L865.005 1043.56L861.912 1121.25L704.664 1197.18L707.757 1119.5Z" fill="#1C1C1C" stroke="#121212" stroke-width="1.33333"/>
<path d="M1011.95 1508.61L1169.2 1432.68L1166.11 1510.37L1008.86 1586.3L1011.95 1508.61Z" fill="#1C1C1C" stroke="#121212" stroke-width="1.33333"/>
<path d="M478.937 905.289L477.264 906.106L479.076 906.537L555.359 924.661L555.591 924.717L555.805 924.612L710.511 849.059L712.184 848.242L710.373 847.811L634.089 829.687L633.857 829.631L633.643 829.736L478.937 905.289Z" fill="#1C1C1C" stroke="#121212" stroke-width="1.33333"/>
<path d="M783.133 1294.41L781.46 1295.22L783.272 1295.65L859.555 1313.78L859.787 1313.83L860.002 1313.73L1014.71 1238.18L1016.38 1237.36L1014.57 1236.93L938.286 1218.8L938.054 1218.75L937.839 1218.85L783.133 1294.41Z" fill="#1C1C1C" stroke="#121212" stroke-width="1.33333"/>
<path d="M631.021 1099.85L629.348 1100.67L631.159 1101.1L707.443 1119.22L707.675 1119.28L707.889 1119.17L862.595 1043.62L864.268 1042.8L862.457 1042.37L786.173 1024.25L785.941 1024.19L785.727 1024.3L631.021 1099.85Z" fill="#1C1C1C" stroke="#121212" stroke-width="1.33333"/>
<path d="M935.215 1488.97L933.542 1489.78L935.354 1490.22L1011.64 1508.34L1011.87 1508.4L1012.08 1508.29L1166.79 1432.74L1168.46 1431.92L1166.65 1431.49L1090.37 1413.37L1090.14 1413.31L1089.92 1413.41L935.215 1488.97Z" fill="#1C1C1C" stroke="#121212" stroke-width="1.33333"/>
<path d="M554.996 1002.56L553.322 1003.38L555.134 1003.81L631.417 1021.93L631.649 1021.99L631.864 1021.88L786.57 946.328L788.243 945.511L786.431 945.081L710.148 926.956L709.916 926.901L709.701 927.006L554.996 1002.56Z" fill="#1C1C1C" stroke="#121212" stroke-width="1.33333"/>
<path d="M859.191 1391.67L857.518 1392.49L859.329 1392.92L935.613 1411.05L935.845 1411.1L936.059 1411L1090.76 1335.44L1092.44 1334.63L1090.63 1334.2L1014.34 1316.07L1014.11 1316.02L1013.9 1316.12L859.191 1391.67Z" fill="#1C1C1C" stroke="#121212" stroke-width="1.33333"/>
<path d="M707.079 1197.12L705.405 1197.94L707.217 1198.37L783.5 1216.49L783.732 1216.55L783.947 1216.44L938.653 1140.89L940.326 1140.07L938.514 1139.64L862.231 1121.52L861.999 1121.46L861.784 1121.57L707.079 1197.12Z" fill="#1C1C1C" stroke="#121212" stroke-width="1.33333"/>
<path d="M1011.28 1586.24L1009.6 1587.05L1011.41 1587.48L1087.7 1605.61L1087.93 1605.66L1088.14 1605.56L1242.85 1530.01L1244.52 1529.19L1242.71 1528.76L1166.43 1510.63L1166.2 1510.58L1165.98 1510.68L1011.28 1586.24Z" fill="#1C1C1C" stroke="#121212" stroke-width="1.33333"/>
</svg>
