<svg width="1774" height="1269" viewBox="0 0 1774 1269" fill="none" xmlns="http://www.w3.org/2000/svg">
<path d="M795.683 535.145L885.086 491.54L885.123 583.709L795.72 627.313L795.683 535.145Z" fill="#747474" stroke="#1D1D1D" stroke-width="1.66958"/>
<path d="M705.989 578.885L795.392 535.28L795.429 627.449L706.026 671.054L705.989 578.885Z" fill="#747474" stroke="#1D1D1D" stroke-width="1.66958"/>
<path d="M616.3 622.634L705.703 579.029L705.74 671.198L616.337 714.803L616.3 622.634Z" fill="#747474" stroke="#1D1D1D" stroke-width="1.66958"/>
<path d="M526.597 666.382L616 622.777L616.037 714.946L526.634 758.551L526.597 666.382Z" fill="#747474" stroke="#1D1D1D" stroke-width="1.66958"/>
<path d="M795.751 717.529L885.154 673.925L885.191 766.093L795.788 809.698L795.751 717.529Z" fill="#747474" stroke="#1D1D1D" stroke-width="1.66958"/>
<path d="M706.056 761.274L795.459 717.67L795.496 809.839L706.093 853.443L706.056 761.274Z" fill="#747474" stroke="#1D1D1D" stroke-width="1.66958"/>
<path d="M616.358 805.03L705.761 761.426L705.798 853.594L616.395 897.199L616.358 805.03Z" fill="#747474" stroke="#1D1D1D" stroke-width="1.66958"/>
<path d="M526.657 848.773L616.06 805.169L616.097 897.338L526.694 940.942L526.657 848.773Z" fill="#747474" stroke="#1D1D1D" stroke-width="1.66958"/>
<path d="M795.907 899.941L885.31 856.337L885.347 948.506L795.944 992.11L795.907 899.941Z" fill="#747474" stroke="#1D1D1D" stroke-width="1.66958"/>
<path d="M706.212 943.687L795.615 900.082L795.652 992.251L706.249 1035.86L706.212 943.687Z" fill="#747474" stroke="#1D1D1D" stroke-width="1.66958"/>
<path d="M616.511 987.438L705.914 943.834L705.951 1036L616.548 1079.61L616.511 987.438Z" fill="#747474" stroke="#1D1D1D" stroke-width="1.66958"/>
<path d="M526.819 1031.18L616.222 987.578L616.259 1079.75L526.856 1123.35L526.819 1031.18Z" fill="#747474" stroke="#1D1D1D" stroke-width="1.66958"/>
<path d="M795.73 626.178L885.133 582.573L885.169 674.742L795.766 718.347L795.73 626.178Z" fill="#747474" stroke="#1D1D1D" stroke-width="1.66958"/>
<path d="M706.036 669.92L795.439 626.315L795.476 718.484L706.073 762.089L706.036 669.92Z" fill="#747474" stroke="#1D1D1D" stroke-width="1.66958"/>
<path d="M616.335 713.674L705.738 670.069L705.775 762.238L616.372 805.843L616.335 713.674Z" fill="#747474" stroke="#1D1D1D" stroke-width="1.66958"/>
<path d="M526.636 757.419L616.039 713.814L616.076 805.983L526.673 849.588L526.636 757.419Z" fill="#747474" stroke="#1D1D1D" stroke-width="1.66958"/>
<path d="M795.79 808.567L885.193 764.963L885.23 857.132L795.827 900.736L795.79 808.567Z" fill="#747474" stroke="#1D1D1D" stroke-width="1.66958"/>
<path d="M706.091 852.316L795.494 808.712L795.531 900.881L706.128 944.485L706.091 852.316Z" fill="#747474" stroke="#1D1D1D" stroke-width="1.66958"/>
<path d="M616.401 896.064L705.804 852.46L705.841 944.629L616.438 988.233L616.401 896.064Z" fill="#747474" stroke="#1D1D1D" stroke-width="1.66958"/>
<path d="M526.698 939.811L616.101 896.206L616.138 988.375L526.735 1031.98L526.698 939.811Z" fill="#747474" stroke="#1D1D1D" stroke-width="1.66958"/>
<path d="M795.944 990.973L885.347 947.368L885.384 1039.54L795.981 1083.14L795.944 990.973Z" fill="#747474" stroke="#1D1D1D" stroke-width="1.66958"/>
<path d="M706.249 1034.72L795.652 991.119L795.689 1083.29L706.286 1126.89L706.249 1034.72Z" fill="#747474" stroke="#1D1D1D" stroke-width="1.66958"/>
<path d="M616.55 1078.48L705.953 1034.87L705.99 1127.04L616.587 1170.65L616.55 1078.48Z" fill="#747474" stroke="#1D1D1D" stroke-width="1.66958"/>
<path d="M526.855 1122.22L616.258 1078.62L616.294 1170.79L526.891 1214.39L526.855 1122.22Z" fill="#747474" stroke="#1D1D1D" stroke-width="1.66958"/>
<path d="M619.311 908.508L708.616 952.313L708.859 860.144L619.554 816.339L619.311 908.508Z" fill="#3A3A3A" stroke="#1D1D1D" stroke-width="1.66958"/>
<path d="M707.614 951.774L796.919 995.578L797.162 903.41L707.857 859.605L707.614 951.774Z" fill="#3A3A3A" stroke="#1D1D1D" stroke-width="1.66958"/>
<path d="M796.116 994.891L885.421 1038.7L885.664 946.527L796.359 902.722L796.116 994.891Z" fill="#3A3A3A" stroke="#1D1D1D" stroke-width="1.66958"/>
<path d="M529.713 864.557L619.018 908.362L619.262 816.193L529.957 772.388L529.713 864.557Z" fill="#3A3A3A" stroke="#1D1D1D" stroke-width="1.66958"/>
<path d="M440.108 820.612L529.413 864.417L529.656 772.249L440.351 728.444L440.108 820.612Z" fill="#3A3A3A" stroke="#1D1D1D" stroke-width="1.66958"/>
<path d="M350.512 776.663L439.817 820.468L440.06 728.299L350.755 684.495L350.512 776.663Z" fill="#3A3A3A" stroke="#1D1D1D" stroke-width="1.66958"/>
<path d="M619.787 726.117L709.093 769.922L709.336 677.754L620.031 633.949L619.787 726.117Z" fill="#3A3A3A" stroke="#1D1D1D" stroke-width="1.66958"/>
<path d="M708.096 769.384L797.401 813.189L797.644 721.02L708.339 677.215L708.096 769.384Z" fill="#3A3A3A" stroke="#1D1D1D" stroke-width="1.66958"/>
<path d="M796.578 812.506L885.884 856.311L886.127 764.142L796.822 720.337L796.578 812.506Z" fill="#3A3A3A" stroke="#1D1D1D" stroke-width="1.66958"/>
<path d="M530.182 682.169L619.487 725.974L619.73 633.805L530.425 590L530.182 682.169Z" fill="#3A3A3A" stroke="#1D1D1D" stroke-width="1.66958"/>
<path d="M440.586 638.219L529.891 682.024L530.135 589.855L440.83 546.05L440.586 638.219Z" fill="#3A3A3A" stroke="#1D1D1D" stroke-width="1.66958"/>
<path d="M350.994 594.273L440.3 638.077L440.543 545.909L351.238 502.104L350.994 594.273Z" fill="#3A3A3A" stroke="#1D1D1D" stroke-width="1.66958"/>
<path d="M620.346 543.711L709.651 587.516L709.894 495.347L620.589 451.542L620.346 543.711Z" fill="#3A3A3A" stroke="#1D1D1D" stroke-width="1.66958"/>
<path d="M708.655 586.974L797.96 630.779L798.203 538.61L708.898 494.805L708.655 586.974Z" fill="#3A3A3A" stroke="#1D1D1D" stroke-width="1.66958"/>
<path d="M797.147 630.103L886.452 673.908L886.695 581.739L797.39 537.934L797.147 630.103Z" fill="#3A3A3A" stroke="#1D1D1D" stroke-width="1.66958"/>
<path d="M530.744 499.762L620.05 543.567L620.293 451.398L530.988 407.593L530.744 499.762Z" fill="#3A3A3A" stroke="#1D1D1D" stroke-width="1.66958"/>
<path d="M441.151 455.811L530.456 499.616L530.699 407.447L441.394 363.642L441.151 455.811Z" fill="#3A3A3A" stroke="#1D1D1D" stroke-width="1.66958"/>
<path d="M351.557 411.867L440.862 455.672L441.105 363.504L351.8 319.699L351.557 411.867Z" fill="#3A3A3A" stroke="#1D1D1D" stroke-width="1.66958"/>
<path d="M619.553 817.466L708.858 861.271L709.101 769.102L619.796 725.297L619.553 817.466Z" fill="#3A3A3A" stroke="#1D1D1D" stroke-width="1.66958"/>
<path d="M707.86 860.729L797.165 904.534L797.408 812.365L708.103 768.56L707.86 860.729Z" fill="#3A3A3A" stroke="#1D1D1D" stroke-width="1.66958"/>
<path d="M796.354 903.86L885.659 947.664L885.902 855.496L796.597 811.691L796.354 903.86Z" fill="#3A3A3A" stroke="#1D1D1D" stroke-width="1.66958"/>
<path d="M529.952 773.52L619.257 817.325L619.5 725.156L530.195 681.351L529.952 773.52Z" fill="#3A3A3A" stroke="#1D1D1D" stroke-width="1.66958"/>
<path d="M440.358 729.571L529.663 773.376L529.906 681.208L440.601 637.403L440.358 729.571Z" fill="#3A3A3A" stroke="#1D1D1D" stroke-width="1.66958"/>
<path d="M350.756 685.618L440.061 729.423L440.305 637.255L351 593.45L350.756 685.618Z" fill="#3A3A3A" stroke="#1D1D1D" stroke-width="1.66958"/>
<path d="M620.026 635.084L709.331 678.889L709.574 586.72L620.269 542.916L620.026 635.084Z" fill="#3A3A3A" stroke="#1D1D1D" stroke-width="1.66958"/>
<path d="M708.34 678.345L797.645 722.15L797.889 629.981L708.583 586.176L708.34 678.345Z" fill="#3A3A3A" stroke="#1D1D1D" stroke-width="1.66958"/>
<path d="M796.827 721.477L886.132 765.282L886.375 673.113L797.07 629.308L796.827 721.477Z" fill="#3A3A3A" stroke="#1D1D1D" stroke-width="1.66958"/>
<path d="M530.43 591.13L619.735 634.935L619.978 542.766L530.673 498.961L530.43 591.13Z" fill="#3A3A3A" stroke="#1D1D1D" stroke-width="1.66958"/>
<path d="M440.83 547.183L530.136 590.988L530.379 498.819L441.074 455.014L440.83 547.183Z" fill="#3A3A3A" stroke="#1D1D1D" stroke-width="1.66958"/>
<path d="M351.231 503.233L440.536 547.037L440.779 454.869L351.474 411.064L351.231 503.233Z" fill="#3A3A3A" stroke="#1D1D1D" stroke-width="1.66958"/>
<path d="M620.59 452.671L709.895 496.476L710.139 404.307L620.833 360.502L620.59 452.671Z" fill="#3A3A3A" stroke="#1D1D1D" stroke-width="1.66958"/>
<path d="M708.899 495.935L798.204 539.74L798.447 447.571L709.142 403.766L708.899 495.935Z" fill="#3A3A3A" stroke="#1D1D1D" stroke-width="1.66958"/>
<path d="M797.385 539.054L886.69 582.859L886.934 490.69L797.628 446.885L797.385 539.054Z" fill="#3A3A3A" stroke="#1D1D1D" stroke-width="1.66958"/>
<path d="M530.993 408.722L620.298 452.527L620.541 360.358L531.236 316.553L530.993 408.722Z" fill="#3A3A3A" stroke="#1D1D1D" stroke-width="1.66958"/>
<path d="M441.395 364.776L530.7 408.58L530.943 316.412L441.638 272.607L441.395 364.776Z" fill="#3A3A3A" stroke="#1D1D1D" stroke-width="1.66958"/>
<path d="M351.793 320.82L441.098 364.625L441.342 272.457L352.037 228.652L351.793 320.82Z" fill="#3A3A3A" stroke="#1D1D1D" stroke-width="1.66958"/>
<path d="M618.233 96.835L707.636 53.2302L707.673 145.399L618.27 189.004L618.233 96.835Z" fill="#747474" stroke="#1D1D1D" stroke-width="1.66958"/>
<path d="M528.538 140.574L617.941 96.9695L617.978 189.138L528.575 232.743L528.538 140.574Z" fill="#747474" stroke="#1D1D1D" stroke-width="1.66958"/>
<path d="M438.849 184.324L528.252 140.719L528.289 232.888L438.886 276.493L438.849 184.324Z" fill="#747474" stroke="#1D1D1D" stroke-width="1.66958"/>
<path d="M349.146 228.072L438.549 184.468L438.585 276.636L349.182 320.241L349.146 228.072Z" fill="#747474" stroke="#1D1D1D" stroke-width="1.66958"/>
<path d="M618.296 279.219L707.699 235.614L707.736 327.783L618.333 371.388L618.296 279.219Z" fill="#747474" stroke="#1D1D1D" stroke-width="1.66958"/>
<path d="M528.605 322.965L618.008 279.36L618.044 371.529L528.641 415.134L528.605 322.965Z" fill="#747474" stroke="#1D1D1D" stroke-width="1.66958"/>
<path d="M438.909 366.721L528.312 323.116L528.349 415.285L438.946 458.89L438.909 366.721Z" fill="#747474" stroke="#1D1D1D" stroke-width="1.66958"/>
<path d="M349.208 410.463L438.611 366.858L438.648 459.027L349.245 502.632L349.208 410.463Z" fill="#747474" stroke="#1D1D1D" stroke-width="1.66958"/>
<path d="M618.458 461.631L707.861 418.026L707.898 510.195L618.495 553.8L618.458 461.631Z" fill="#747474" stroke="#1D1D1D" stroke-width="1.66958"/>
<path d="M528.763 505.376L618.166 461.771L618.203 553.94L528.8 597.545L528.763 505.376Z" fill="#747474" stroke="#1D1D1D" stroke-width="1.66958"/>
<path d="M439.062 549.13L528.465 505.525L528.501 597.694L439.098 641.299L439.062 549.13Z" fill="#747474" stroke="#1D1D1D" stroke-width="1.66958"/>
<path d="M349.368 592.872L438.771 549.267L438.808 641.436L349.405 685.041L349.368 592.872Z" fill="#747474" stroke="#1D1D1D" stroke-width="1.66958"/>
<path d="M618.276 187.866L707.679 144.261L707.716 236.43L618.313 280.035L618.276 187.866Z" fill="#747474" stroke="#1D1D1D" stroke-width="1.66958"/>
<path d="M528.585 231.609L617.988 188.005L618.025 280.174L528.622 323.778L528.585 231.609Z" fill="#747474" stroke="#1D1D1D" stroke-width="1.66958"/>
<path d="M438.882 275.363L528.285 231.759L528.322 323.927L438.919 367.532L438.882 275.363Z" fill="#747474" stroke="#1D1D1D" stroke-width="1.66958"/>
<path d="M349.187 319.109L438.59 275.505L438.626 367.674L349.223 411.278L349.187 319.109Z" fill="#747474" stroke="#1D1D1D" stroke-width="1.66958"/>
<path d="M618.343 370.256L707.746 326.651L707.783 418.82L618.38 462.425L618.343 370.256Z" fill="#747474" stroke="#1D1D1D" stroke-width="1.66958"/>
<path d="M528.642 414.007L618.045 370.402L618.082 462.571L528.679 506.176L528.642 414.007Z" fill="#747474" stroke="#1D1D1D" stroke-width="1.66958"/>
<path d="M438.952 457.756L528.355 414.151L528.392 506.32L438.989 549.925L438.952 457.756Z" fill="#747474" stroke="#1D1D1D" stroke-width="1.66958"/>
<path d="M349.245 501.501L438.648 457.896L438.685 550.065L349.282 593.67L349.245 501.501Z" fill="#747474" stroke="#1D1D1D" stroke-width="1.66958"/>
<path d="M618.493 552.664L707.896 509.059L707.933 601.228L618.53 644.833L618.493 552.664Z" fill="#747474" stroke="#1D1D1D" stroke-width="1.66958"/>
<path d="M528.798 596.413L618.201 552.808L618.238 644.977L528.835 688.582L528.798 596.413Z" fill="#747474" stroke="#1D1D1D" stroke-width="1.66958"/>
<path d="M439.101 640.168L528.504 596.563L528.541 688.732L439.138 732.337L439.101 640.168Z" fill="#747474" stroke="#1D1D1D" stroke-width="1.66958"/>
<path d="M349.405 683.913L438.808 640.308L438.845 732.477L349.442 776.082L349.405 683.913Z" fill="#747474" stroke="#1D1D1D" stroke-width="1.66958"/>
<path d="M550.334 237.149L598.141 213.831L598.02 269.63L550.213 292.947L550.334 237.149Z" fill="#1D1D1D" stroke="#1D1D1D" stroke-width="1.66958"/>
<line x1="603.553" y1="238.476" x2="537.803" y2="270.544" stroke="#747474" stroke-width="1.66958"/>
<line x1="572.805" y1="212.512" x2="573.051" y2="285.665" stroke="#747474" stroke-width="1.66958"/>
<path d="M367.513 233.44L415.321 210.123L415.2 265.921L367.393 289.238L367.513 233.44Z" fill="#1D1D1D" stroke="#1D1D1D" stroke-width="1.66958"/>
<line x1="420.723" y1="234.774" x2="354.973" y2="266.842" stroke="#747474" stroke-width="1.66958"/>
<line x1="389.977" y1="208.81" x2="390.223" y2="281.963" stroke="#747474" stroke-width="1.66958"/>
<path d="M637.572 101.732L685.379 78.4145L685.259 134.213L637.451 157.53L637.572 101.732Z" fill="#1D1D1D" stroke="#1D1D1D" stroke-width="1.66958"/>
<line x1="690.796" y1="103.066" x2="625.046" y2="135.134" stroke="#747474" stroke-width="1.66958"/>
<line x1="660.048" y1="80.6788" x2="660.293" y2="153.832" stroke="#747474" stroke-width="1.66958"/>
<path d="M457.041 376.063L504.848 352.746L504.727 408.544L456.92 431.861L457.041 376.063Z" fill="#1D1D1D" stroke="#1D1D1D" stroke-width="1.66958"/>
<line x1="510.257" y1="377.398" x2="444.506" y2="409.466" stroke="#747474" stroke-width="1.66958"/>
<line x1="479.511" y1="351.434" x2="479.756" y2="424.587" stroke="#747474" stroke-width="1.66958"/>
<path d="M552.65 329.424L600.457 306.107L600.337 361.905L552.529 385.222L552.65 329.424Z" fill="#1D1D1D" stroke="#1D1D1D" stroke-width="1.66958"/>
<line x1="605.864" y1="330.76" x2="540.114" y2="362.829" stroke="#747474" stroke-width="1.66958"/>
<line x1="575.112" y1="304.799" x2="575.357" y2="377.952" stroke="#747474" stroke-width="1.66958"/>
<path d="M638.207 471.193L686.014 447.875L685.893 503.674L638.086 526.991L638.207 471.193Z" fill="#1D1D1D" stroke="#1D1D1D" stroke-width="1.66958"/>
<line x1="691.426" y1="472.526" x2="625.676" y2="504.594" stroke="#747474" stroke-width="1.66958"/>
<line x1="660.679" y1="446.563" x2="660.924" y2="519.716" stroke="#747474" stroke-width="1.66958"/>
<path d="M370.392 601.823L418.199 578.506L418.079 634.304L370.272 657.622L370.392 601.823Z" fill="#1D1D1D" stroke="#1D1D1D" stroke-width="1.66958"/>
<line x1="423.608" y1="603.154" x2="357.858" y2="635.222" stroke="#747474" stroke-width="1.66958"/>
<line x1="392.856" y1="577.192" x2="393.102" y2="650.345" stroke="#747474" stroke-width="1.66958"/>
<path d="M550.121 605.228L597.928 581.911L597.807 637.709L550 661.026L550.121 605.228Z" fill="#1D1D1D" stroke="#1D1D1D" stroke-width="1.66958"/>
<line x1="603.344" y1="606.572" x2="537.594" y2="638.64" stroke="#747474" stroke-width="1.66958"/>
<line x1="572.593" y1="580.61" x2="572.838" y2="653.764" stroke="#747474" stroke-width="1.66958"/>
<path d="M460.373 649.01L508.18 625.693L508.059 681.491L460.252 704.808L460.373 649.01Z" fill="#1D1D1D" stroke="#1D1D1D" stroke-width="1.66958"/>
<line x1="513.598" y1="650.35" x2="447.848" y2="682.418" stroke="#747474" stroke-width="1.66958"/>
<line x1="482.852" y1="624.386" x2="483.098" y2="697.539" stroke="#747474" stroke-width="1.66958"/>
<path d="M547.314 1133.15L595.121 1109.84L595.001 1165.63L547.193 1188.95L547.314 1133.15Z" fill="#1D1D1D" stroke="#1D1D1D" stroke-width="1.66958"/>
<line x1="600.53" y1="1134.48" x2="534.78" y2="1166.54" stroke="#747474" stroke-width="1.66958"/>
<line x1="569.784" y1="1108.51" x2="570.029" y2="1181.67" stroke="#747474" stroke-width="1.66958"/>
<path d="M727.855 1045.09L775.662 1021.77L775.542 1077.57L727.735 1100.89L727.855 1045.09Z" fill="#1D1D1D" stroke="#1D1D1D" stroke-width="1.66958"/>
<line x1="781.079" y1="1046.42" x2="715.329" y2="1078.49" stroke="#747474" stroke-width="1.66958"/>
<line x1="750.331" y1="1020.46" x2="750.576" y2="1093.61" stroke="#747474" stroke-width="1.66958"/>
<path d="M635.646 998.611L683.453 975.293L683.333 1031.09L635.526 1054.41L635.646 998.611Z" fill="#1D1D1D" stroke="#1D1D1D" stroke-width="1.66958"/>
<line x1="688.856" y1="999.954" x2="623.106" y2="1032.02" stroke="#747474" stroke-width="1.66958"/>
<line x1="658.11" y1="973.989" x2="658.355" y2="1047.14" stroke="#747474" stroke-width="1.66958"/>
<path d="M640.935 900.756L688.735 924.088L688.632 868.29L640.832 844.958L640.935 900.756Z" fill="#1D1D1D" stroke="#1D1D1D" stroke-width="1.66958"/>
<line y1="-0.834788" x2="73.1537" y2="-0.834788" transform="matrix(-0.898657 -0.438652 -0.438652 0.898657 693.797 900.19)" stroke="#3A3A3A" stroke-width="1.66958"/>
<line y1="-0.834788" x2="73.1538" y2="-0.834788" transform="matrix(0.00366482 -0.999993 -0.999993 -0.00366482 662.561 925.392)" stroke="#3A3A3A" stroke-width="1.66958"/>
<path d="M730.966 853.571L778.766 876.904L778.663 821.105L730.863 797.773L730.966 853.571Z" fill="#1D1D1D" stroke="#1D1D1D" stroke-width="1.66958"/>
<line y1="-0.834788" x2="73.1537" y2="-0.834788" transform="matrix(-0.898657 -0.438652 -0.438652 0.898657 783.83 853.004)" stroke="#3A3A3A" stroke-width="1.66958"/>
<line y1="-0.834788" x2="73.1538" y2="-0.834788" transform="matrix(0.00366482 -0.999993 -0.999993 -0.00366482 752.6 878.206)" stroke="#3A3A3A" stroke-width="1.66958"/>
<path d="M730.431 671.679L778.231 695.011L778.128 639.213L730.328 615.881L730.431 671.679Z" fill="#1D1D1D" stroke="#1D1D1D" stroke-width="1.66958"/>
<line y1="-0.834788" x2="73.1537" y2="-0.834788" transform="matrix(-0.898657 -0.438652 -0.438652 0.898657 783.291 671.104)" stroke="#3A3A3A" stroke-width="1.66958"/>
<line y1="-0.834788" x2="73.1538" y2="-0.834788" transform="matrix(0.00366482 -0.999993 -0.999993 -0.00366482 752.061 696.306)" stroke="#3A3A3A" stroke-width="1.66958"/>
<path d="M551.955 765.907L599.755 789.24L599.651 733.441L551.851 710.109L551.955 765.907Z" fill="#1D1D1D" stroke="#1D1D1D" stroke-width="1.66958"/>
<line y1="-0.834788" x2="73.1537" y2="-0.834788" transform="matrix(-0.898657 -0.438652 -0.438652 0.898657 604.82 765.341)" stroke="#3A3A3A" stroke-width="1.66958"/>
<line y1="-0.834788" x2="73.1538" y2="-0.834788" transform="matrix(0.00366482 -0.999993 -0.999993 -0.00366482 573.584 790.543)" stroke="#3A3A3A" stroke-width="1.66958"/>
<path d="M819.294 531.779L867.094 555.111L866.991 499.313L819.191 475.98L819.294 531.779Z" fill="#1D1D1D" stroke="#1D1D1D" stroke-width="1.66958"/>
<line y1="-0.834788" x2="73.1537" y2="-0.834788" transform="matrix(-0.898657 -0.438652 -0.438652 0.898657 872.145 531.211)" stroke="#3A3A3A" stroke-width="1.66958"/>
<line y1="-0.834788" x2="73.1538" y2="-0.834788" transform="matrix(0.00366482 -0.999993 -0.999993 -0.00366482 840.914 556.413)" stroke="#3A3A3A" stroke-width="1.66958"/>
<path d="M818.486 988.563L866.286 1011.89L866.183 956.097L818.383 932.765L818.486 988.563Z" fill="#1D1D1D" stroke="#1D1D1D" stroke-width="1.66958"/>
<line y1="-0.834788" x2="73.1537" y2="-0.834788" transform="matrix(-0.898657 -0.438652 -0.438652 0.898657 871.334 988.002)" stroke="#3A3A3A" stroke-width="1.66958"/>
<line y1="-0.834788" x2="73.1538" y2="-0.834788" transform="matrix(0.00366482 -0.999993 -0.999993 -0.00366482 840.104 1013.2)" stroke="#3A3A3A" stroke-width="1.66958"/>
<path d="M819.537 714.023L867.337 737.355L867.234 681.557L819.433 658.225L819.537 714.023Z" fill="#1D1D1D" stroke="#1D1D1D" stroke-width="1.66958"/>
<line y1="-0.834788" x2="73.1537" y2="-0.834788" transform="matrix(-0.898657 -0.438652 -0.438652 0.898657 872.393 713.449)" stroke="#3A3A3A" stroke-width="1.66958"/>
<line y1="-0.834788" x2="73.1538" y2="-0.834788" transform="matrix(0.00366482 -0.999993 -0.999993 -0.00366482 841.162 738.651)" stroke="#3A3A3A" stroke-width="1.66958"/>
<path d="M976.975 536.039L887.789 491.993L887.297 584.161L976.484 628.206L976.975 536.039Z" fill="#747474" stroke="#1D1D1D" stroke-width="1.66958"/>
<path d="M1066.45 580.224L977.267 536.179L976.775 628.346L1065.96 672.392L1066.45 580.224Z" fill="#747474" stroke="#1D1D1D" stroke-width="1.66958"/>
<path d="M1155.93 624.417L1066.75 580.372L1066.26 672.54L1155.44 716.585L1155.93 624.417Z" fill="#747474" stroke="#1D1D1D" stroke-width="1.66958"/>
<path d="M1245.41 668.603L1156.23 624.558L1155.73 716.725L1244.92 760.771L1245.41 668.603Z" fill="#747474" stroke="#1D1D1D" stroke-width="1.66958"/>
<path d="M976.007 718.417L886.82 674.372L886.328 766.54L975.515 810.585L976.007 718.417Z" fill="#747474" stroke="#1D1D1D" stroke-width="1.66958"/>
<path d="M1065.49 762.61L976.304 718.564L975.812 810.732L1065 854.777L1065.49 762.61Z" fill="#747474" stroke="#1D1D1D" stroke-width="1.66958"/>
<path d="M1154.97 806.802L1065.78 762.757L1065.29 854.924L1154.48 898.97L1154.97 806.802Z" fill="#747474" stroke="#1D1D1D" stroke-width="1.66958"/>
<path d="M1244.45 850.989L1155.26 806.943L1154.77 899.111L1243.96 943.156L1244.45 850.989Z" fill="#747474" stroke="#1D1D1D" stroke-width="1.66958"/>
<path d="M974.952 900.83L885.765 856.784L885.273 948.952L974.46 992.997L974.952 900.83Z" fill="#747474" stroke="#1D1D1D" stroke-width="1.66958"/>
<path d="M1064.43 945.016L975.248 900.971L974.756 993.138L1063.94 1037.18L1064.43 945.016Z" fill="#747474" stroke="#1D1D1D" stroke-width="1.66958"/>
<path d="M1153.91 989.211L1064.72 945.166L1064.23 1037.33L1153.42 1081.38L1153.91 989.211Z" fill="#747474" stroke="#1D1D1D" stroke-width="1.66958"/>
<path d="M1243.4 1033.4L1154.21 989.356L1153.72 1081.52L1242.9 1125.57L1243.4 1033.4Z" fill="#747474" stroke="#1D1D1D" stroke-width="1.66958"/>
<path d="M976.485 627.068L887.298 583.022L886.807 675.19L975.993 719.235L976.485 627.068Z" fill="#747474" stroke="#1D1D1D" stroke-width="1.66958"/>
<path d="M1065.96 671.258L976.775 627.213L976.283 719.38L1065.47 763.426L1065.96 671.258Z" fill="#747474" stroke="#1D1D1D" stroke-width="1.66958"/>
<path d="M1155.45 715.451L1066.26 671.405L1065.77 763.573L1154.96 807.618L1155.45 715.451Z" fill="#747474" stroke="#1D1D1D" stroke-width="1.66958"/>
<path d="M1244.92 759.642L1155.73 715.597L1155.24 807.764L1244.43 851.81L1244.92 759.642Z" fill="#747474" stroke="#1D1D1D" stroke-width="1.66958"/>
<path d="M975.524 809.459L886.337 765.414L885.846 857.582L975.032 901.627L975.524 809.459Z" fill="#747474" stroke="#1D1D1D" stroke-width="1.66958"/>
<path d="M1065 853.649L975.814 809.603L975.322 901.771L1064.51 945.817L1065 853.649Z" fill="#747474" stroke="#1D1D1D" stroke-width="1.66958"/>
<path d="M1154.47 897.838L1065.29 853.793L1064.79 945.961L1153.98 990.006L1154.47 897.838Z" fill="#747474" stroke="#1D1D1D" stroke-width="1.66958"/>
<path d="M1243.96 942.03L1154.77 897.984L1154.28 990.152L1243.46 1034.2L1243.96 942.03Z" fill="#747474" stroke="#1D1D1D" stroke-width="1.66958"/>
<path d="M974.471 991.864L885.285 947.818L884.793 1039.99L973.98 1084.03L974.471 991.864Z" fill="#747474" stroke="#1D1D1D" stroke-width="1.66958"/>
<path d="M1063.94 1036.05L974.755 992.004L974.264 1084.17L1063.45 1128.22L1063.94 1036.05Z" fill="#747474" stroke="#1D1D1D" stroke-width="1.66958"/>
<path d="M1153.42 1080.24L1064.24 1036.2L1063.75 1128.36L1152.93 1172.41L1153.42 1080.24Z" fill="#747474" stroke="#1D1D1D" stroke-width="1.66958"/>
<path d="M1242.9 1124.43L1153.72 1080.39L1153.22 1172.56L1242.41 1216.6L1242.9 1124.43Z" fill="#747474" stroke="#1D1D1D" stroke-width="1.66958"/>
<path d="M1151.51 910.263L1061.99 953.627L1062.21 861.458L1151.73 818.094L1151.51 910.263Z" fill="#3A3A3A" stroke="#1D1D1D" stroke-width="1.66958"/>
<path d="M1062.99 953.094L973.471 996.458L973.682 904.289L1063.2 860.925L1062.99 953.094Z" fill="#3A3A3A" stroke="#1D1D1D" stroke-width="1.66958"/>
<path d="M974.28 995.778L884.76 1039.14L884.971 946.972L974.492 903.609L974.28 995.778Z" fill="#3A3A3A" stroke="#1D1D1D" stroke-width="1.66958"/>
<path d="M1241.32 866.757L1151.8 910.121L1152.01 817.952L1241.53 774.588L1241.32 866.757Z" fill="#3A3A3A" stroke="#1D1D1D" stroke-width="1.66958"/>
<path d="M1331.14 823.252L1241.62 866.616L1241.83 774.447L1331.35 731.083L1331.14 823.252Z" fill="#3A3A3A" stroke="#1D1D1D" stroke-width="1.66958"/>
<path d="M1420.95 779.743L1331.43 823.107L1331.64 730.938L1421.16 687.575L1420.95 779.743Z" fill="#3A3A3A" stroke="#1D1D1D" stroke-width="1.66958"/>
<path d="M1151.94 727.87L1062.42 771.234L1062.63 679.065L1152.15 635.702L1151.94 727.87Z" fill="#3A3A3A" stroke="#1D1D1D" stroke-width="1.66958"/>
<path d="M1063.41 770.707L973.893 814.071L974.104 721.902L1063.62 678.539L1063.41 770.707Z" fill="#3A3A3A" stroke="#1D1D1D" stroke-width="1.66958"/>
<path d="M974.71 813.393L885.189 856.756L885.401 764.588L974.921 721.224L974.71 813.393Z" fill="#3A3A3A" stroke="#1D1D1D" stroke-width="1.66958"/>
<path d="M1241.75 684.365L1152.23 727.728L1152.44 635.559L1241.96 592.196L1241.75 684.365Z" fill="#3A3A3A" stroke="#1D1D1D" stroke-width="1.66958"/>
<path d="M1331.56 640.86L1242.04 684.223L1242.25 592.055L1331.77 548.691L1331.56 640.86Z" fill="#3A3A3A" stroke="#1D1D1D" stroke-width="1.66958"/>
<path d="M1421.38 597.358L1331.86 640.721L1332.07 548.553L1421.59 505.189L1421.38 597.358Z" fill="#3A3A3A" stroke="#1D1D1D" stroke-width="1.66958"/>
<path d="M1152.27 545.466L1062.75 588.83L1062.96 496.661L1152.48 453.297L1152.27 545.466Z" fill="#3A3A3A" stroke="#1D1D1D" stroke-width="1.66958"/>
<path d="M1063.75 588.294L974.23 631.658L974.442 539.489L1063.96 496.125L1063.75 588.294Z" fill="#3A3A3A" stroke="#1D1D1D" stroke-width="1.66958"/>
<path d="M975.044 630.981L885.523 674.344L885.735 582.176L975.255 538.812L975.044 630.981Z" fill="#3A3A3A" stroke="#1D1D1D" stroke-width="1.66958"/>
<path d="M1242.09 501.959L1152.57 545.323L1152.79 453.154L1242.31 409.791L1242.09 501.959Z" fill="#3A3A3A" stroke="#1D1D1D" stroke-width="1.66958"/>
<path d="M1331.9 458.453L1242.38 501.817L1242.59 409.648L1332.11 366.285L1331.9 458.453Z" fill="#3A3A3A" stroke="#1D1D1D" stroke-width="1.66958"/>
<path d="M1421.72 414.948L1332.2 458.312L1332.41 366.143L1421.93 322.78L1421.72 414.948Z" fill="#3A3A3A" stroke="#1D1D1D" stroke-width="1.66958"/>
<path d="M1151.71 819.225L1062.19 862.588L1062.4 770.42L1151.93 727.056L1151.71 819.225Z" fill="#3A3A3A" stroke="#1D1D1D" stroke-width="1.66958"/>
<path d="M1063.19 862.058L973.674 905.421L973.885 813.253L1063.41 769.889L1063.19 862.058Z" fill="#3A3A3A" stroke="#1D1D1D" stroke-width="1.66958"/>
<path d="M974.487 904.743L884.967 948.107L885.178 855.938L974.699 812.575L974.487 904.743Z" fill="#3A3A3A" stroke="#1D1D1D" stroke-width="1.66958"/>
<path d="M1241.53 775.717L1152.01 819.081L1152.23 726.912L1241.75 683.548L1241.53 775.717Z" fill="#3A3A3A" stroke="#1D1D1D" stroke-width="1.66958"/>
<path d="M1331.34 732.206L1241.82 775.57L1242.03 683.401L1331.55 640.038L1331.34 732.206Z" fill="#3A3A3A" stroke="#1D1D1D" stroke-width="1.66958"/>
<path d="M1421.16 688.706L1331.64 732.07L1331.85 639.901L1421.37 596.538L1421.16 688.706Z" fill="#3A3A3A" stroke="#1D1D1D" stroke-width="1.66958"/>
<path d="M1152.14 636.837L1062.62 680.201L1062.83 588.032L1152.35 544.668L1152.14 636.837Z" fill="#3A3A3A" stroke="#1D1D1D" stroke-width="1.66958"/>
<path d="M1063.62 679.667L974.098 723.031L974.309 630.862L1063.83 587.499L1063.62 679.667Z" fill="#3A3A3A" stroke="#1D1D1D" stroke-width="1.66958"/>
<path d="M974.917 722.36L885.396 765.723L885.608 673.555L975.128 630.191L974.917 722.36Z" fill="#3A3A3A" stroke="#1D1D1D" stroke-width="1.66958"/>
<path d="M1241.96 593.327L1152.44 636.691L1152.65 544.522L1242.17 501.159L1241.96 593.327Z" fill="#3A3A3A" stroke="#1D1D1D" stroke-width="1.66958"/>
<path d="M1331.77 549.821L1242.25 593.184L1242.46 501.015L1331.98 457.652L1331.77 549.821Z" fill="#3A3A3A" stroke="#1D1D1D" stroke-width="1.66958"/>
<path d="M1421.59 506.319L1332.07 549.682L1332.28 457.513L1421.8 414.15L1421.59 506.319Z" fill="#3A3A3A" stroke="#1D1D1D" stroke-width="1.66958"/>
<path d="M1152.48 454.426L1062.96 497.79L1063.17 405.621L1152.69 362.257L1152.48 454.426Z" fill="#3A3A3A" stroke="#1D1D1D" stroke-width="1.66958"/>
<path d="M1063.96 497.252L974.437 540.616L974.649 448.447L1064.17 405.083L1063.96 497.252Z" fill="#3A3A3A" stroke="#1D1D1D" stroke-width="1.66958"/>
<path d="M975.255 539.941L885.734 583.304L885.946 491.136L975.466 447.772L975.255 539.941Z" fill="#3A3A3A" stroke="#1D1D1D" stroke-width="1.66958"/>
<path d="M1242.29 410.921L1152.77 454.285L1152.98 362.116L1242.5 318.752L1242.29 410.921Z" fill="#3A3A3A" stroke="#1D1D1D" stroke-width="1.66958"/>
<path d="M1332.1 367.418L1242.58 410.782L1242.8 318.613L1332.32 275.25L1332.1 367.418Z" fill="#3A3A3A" stroke="#1D1D1D" stroke-width="1.66958"/>
<path d="M1421.93 323.911L1332.41 367.275L1332.62 275.106L1422.14 231.743L1421.93 323.911Z" fill="#3A3A3A" stroke="#1D1D1D" stroke-width="1.66958"/>
<path d="M1156.6 98.603L1067.41 54.5576L1066.92 146.725L1156.11 190.771L1156.6 98.603Z" fill="#747474" stroke="#1D1D1D" stroke-width="1.66958"/>
<path d="M1246.08 142.789L1156.89 98.7431L1156.4 190.911L1245.59 234.956L1246.08 142.789Z" fill="#747474" stroke="#1D1D1D" stroke-width="1.66958"/>
<path d="M1335.56 186.982L1246.37 142.936L1245.88 235.104L1335.07 279.15L1335.56 186.982Z" fill="#747474" stroke="#1D1D1D" stroke-width="1.66958"/>
<path d="M1425.04 231.167L1335.85 187.122L1335.36 279.29L1424.54 323.335L1425.04 231.167Z" fill="#747474" stroke="#1D1D1D" stroke-width="1.66958"/>
<path d="M1155.63 280.983L1066.45 236.937L1065.96 329.105L1155.14 373.151L1155.63 280.983Z" fill="#747474" stroke="#1D1D1D" stroke-width="1.66958"/>
<path d="M1245.11 325.176L1155.93 281.131L1155.44 373.298L1244.62 417.344L1245.11 325.176Z" fill="#747474" stroke="#1D1D1D" stroke-width="1.66958"/>
<path d="M1334.59 369.368L1245.4 325.322L1244.91 417.49L1334.1 461.535L1334.59 369.368Z" fill="#747474" stroke="#1D1D1D" stroke-width="1.66958"/>
<path d="M1424.07 413.555L1334.88 369.51L1334.39 461.677L1423.58 505.723L1424.07 413.555Z" fill="#747474" stroke="#1D1D1D" stroke-width="1.66958"/>
<path d="M1154.57 463.397L1065.39 419.351L1064.9 511.519L1154.08 555.565L1154.57 463.397Z" fill="#747474" stroke="#1D1D1D" stroke-width="1.66958"/>
<path d="M1244.06 507.582L1154.87 463.536L1154.38 555.704L1243.57 599.749L1244.06 507.582Z" fill="#747474" stroke="#1D1D1D" stroke-width="1.66958"/>
<path d="M1333.53 551.777L1244.35 507.731L1243.86 599.899L1333.04 643.944L1333.53 551.777Z" fill="#747474" stroke="#1D1D1D" stroke-width="1.66958"/>
<path d="M1423.02 595.969L1333.83 551.924L1333.34 644.091L1422.53 688.137L1423.02 595.969Z" fill="#747474" stroke="#1D1D1D" stroke-width="1.66958"/>
<path d="M1156.11 189.632L1066.92 145.587L1066.43 237.754L1155.61 281.8L1156.11 189.632Z" fill="#747474" stroke="#1D1D1D" stroke-width="1.66958"/>
<path d="M1245.58 233.823L1156.4 189.777L1155.91 281.945L1245.09 325.99L1245.58 233.823Z" fill="#747474" stroke="#1D1D1D" stroke-width="1.66958"/>
<path d="M1335.07 278.017L1245.88 233.972L1245.39 326.139L1334.58 370.185L1335.07 278.017Z" fill="#747474" stroke="#1D1D1D" stroke-width="1.66958"/>
<path d="M1424.54 322.207L1335.36 278.162L1334.87 370.33L1424.05 414.375L1424.54 322.207Z" fill="#747474" stroke="#1D1D1D" stroke-width="1.66958"/>
<path d="M1155.15 372.024L1065.96 327.978L1065.47 420.146L1154.65 464.192L1155.15 372.024Z" fill="#747474" stroke="#1D1D1D" stroke-width="1.66958"/>
<path d="M1244.62 416.215L1155.44 372.17L1154.95 464.338L1244.13 508.383L1244.62 416.215Z" fill="#747474" stroke="#1D1D1D" stroke-width="1.66958"/>
<path d="M1334.1 460.404L1244.91 416.358L1244.42 508.526L1333.6 552.571L1334.1 460.404Z" fill="#747474" stroke="#1D1D1D" stroke-width="1.66958"/>
<path d="M1423.58 504.595L1334.4 460.55L1333.9 552.717L1423.09 596.763L1423.58 504.595Z" fill="#747474" stroke="#1D1D1D" stroke-width="1.66958"/>
<path d="M1154.09 554.429L1064.9 510.384L1064.41 602.551L1153.6 646.597L1154.09 554.429Z" fill="#747474" stroke="#1D1D1D" stroke-width="1.66958"/>
<path d="M1243.57 598.616L1154.38 554.57L1153.89 646.738L1243.07 690.783L1243.57 598.616Z" fill="#747474" stroke="#1D1D1D" stroke-width="1.66958"/>
<path d="M1333.05 642.808L1243.86 598.763L1243.37 690.93L1332.56 734.976L1333.05 642.808Z" fill="#747474" stroke="#1D1D1D" stroke-width="1.66958"/>
<path d="M1422.53 686.999L1333.34 642.954L1332.85 735.122L1422.03 779.167L1422.53 686.999Z" fill="#747474" stroke="#1D1D1D" stroke-width="1.66958"/>
<path d="M1223.8 239.248L1176.11 215.695L1175.96 271.493L1223.65 295.046L1223.8 239.248Z" fill="#1D1D1D" stroke="#1D1D1D" stroke-width="1.66958"/>
<line y1="-0.834788" x2="73.1537" y2="-0.834788" transform="matrix(0.89662 0.442802 0.442802 -0.89662 1170.95 239.569)" stroke="#747474" stroke-width="1.66958"/>
<line y1="-0.834788" x2="73.1537" y2="-0.834788" transform="matrix(-0.00828752 0.999966 0.999966 0.00828752 1202.29 214.515)" stroke="#747474" stroke-width="1.66958"/>
<path d="M1406.63 236.458L1358.93 212.905L1358.78 268.703L1406.47 292.256L1406.63 236.458Z" fill="#1D1D1D" stroke="#1D1D1D" stroke-width="1.66958"/>
<line y1="-0.834788" x2="73.1537" y2="-0.834788" transform="matrix(0.89662 0.442802 0.442802 -0.89662 1353.78 236.776)" stroke="#747474" stroke-width="1.66958"/>
<line y1="-0.834788" x2="73.1537" y2="-0.834788" transform="matrix(-0.00828752 0.999966 0.999966 0.00828752 1385.13 211.722)" stroke="#747474" stroke-width="1.66958"/>
<path d="M1137.24 103.406L1089.55 79.8532L1089.39 135.651L1137.08 159.204L1137.24 103.406Z" fill="#1D1D1D" stroke="#1D1D1D" stroke-width="1.66958"/>
<line y1="-0.834788" x2="73.1537" y2="-0.834788" transform="matrix(0.89662 0.442802 0.442802 -0.89662 1084.39 103.731)" stroke="#747474" stroke-width="1.66958"/>
<line y1="-0.834788" x2="73.1537" y2="-0.834788" transform="matrix(-0.00828752 0.999966 0.999966 0.00828752 1115.74 81.3574)" stroke="#747474" stroke-width="1.66958"/>
<path d="M1316.4 378.622L1268.71 355.069L1268.56 410.867L1316.25 434.42L1316.4 378.622Z" fill="#1D1D1D" stroke="#1D1D1D" stroke-width="1.66958"/>
<line y1="-0.834788" x2="73.1537" y2="-0.834788" transform="matrix(0.89662 0.442802 0.442802 -0.89662 1263.55 378.938)" stroke="#747474" stroke-width="1.66958"/>
<line y1="-0.834788" x2="73.1537" y2="-0.834788" transform="matrix(-0.00828752 0.999966 0.999966 0.00828752 1294.89 353.885)" stroke="#747474" stroke-width="1.66958"/>
<path d="M1221.03 331.526L1173.34 307.973L1173.19 363.771L1220.88 387.324L1221.03 331.526Z" fill="#1D1D1D" stroke="#1D1D1D" stroke-width="1.66958"/>
<line y1="-0.834788" x2="73.1537" y2="-0.834788" transform="matrix(0.89662 0.442802 0.442802 -0.89662 1168.19 331.861)" stroke="#747474" stroke-width="1.66958"/>
<line y1="-0.834788" x2="73.1537" y2="-0.834788" transform="matrix(-0.00828752 0.999966 0.999966 0.00828752 1199.53 306.796)" stroke="#747474" stroke-width="1.66958"/>
<path d="M1134.77 472.87L1087.08 449.317L1086.92 505.115L1134.61 528.668L1134.77 472.87Z" fill="#1D1D1D" stroke="#1D1D1D" stroke-width="1.66958"/>
<line y1="-0.834788" x2="73.1537" y2="-0.834788" transform="matrix(0.89662 0.442802 0.442802 -0.89662 1081.91 473.193)" stroke="#747474" stroke-width="1.66958"/>
<line y1="-0.834788" x2="73.1537" y2="-0.834788" transform="matrix(-0.00828752 0.999966 0.999966 0.00828752 1113.26 448.14)" stroke="#747474" stroke-width="1.66958"/>
<path d="M1401.94 604.814L1354.25 581.261L1354.09 637.059L1401.78 660.612L1401.94 604.814Z" fill="#1D1D1D" stroke="#1D1D1D" stroke-width="1.66958"/>
<line y1="-0.834788" x2="73.1537" y2="-0.834788" transform="matrix(0.89662 0.442802 0.442802 -0.89662 1349.08 605.144)" stroke="#747474" stroke-width="1.66958"/>
<line y1="-0.834788" x2="73.1537" y2="-0.834788" transform="matrix(-0.00828752 0.999966 0.999966 0.00828752 1380.43 580.076)" stroke="#747474" stroke-width="1.66958"/>
<path d="M1222.19 607.338L1174.5 583.785L1174.34 639.583L1222.03 663.136L1222.19 607.338Z" fill="#1D1D1D" stroke="#1D1D1D" stroke-width="1.66958"/>
<line y1="-0.834788" x2="73.1537" y2="-0.834788" transform="matrix(0.89662 0.442802 0.442802 -0.89662 1169.33 607.669)" stroke="#747474" stroke-width="1.66958"/>
<line y1="-0.834788" x2="73.1537" y2="-0.834788" transform="matrix(-0.00828752 0.999966 0.999966 0.00828752 1200.68 582.603)" stroke="#747474" stroke-width="1.66958"/>
<path d="M1311.73 651.558L1264.03 628.006L1263.88 683.804L1311.57 707.356L1311.73 651.558Z" fill="#1D1D1D" stroke="#1D1D1D" stroke-width="1.66958"/>
<line y1="-0.834788" x2="73.1537" y2="-0.834788" transform="matrix(0.89662 0.442802 0.442802 -0.89662 1258.87 651.892)" stroke="#747474" stroke-width="1.66958"/>
<line y1="-0.834788" x2="73.1537" y2="-0.834788" transform="matrix(-0.00828752 0.999966 0.999966 0.00828752 1290.22 626.837)" stroke="#747474" stroke-width="1.66958"/>
<path d="M1222.4 1135.26L1174.71 1111.71L1174.55 1167.51L1222.24 1191.06L1222.4 1135.26Z" fill="#1D1D1D" stroke="#1D1D1D" stroke-width="1.66958"/>
<line y1="-0.834788" x2="73.1537" y2="-0.834788" transform="matrix(0.89662 0.442802 0.442802 -0.89662 1169.55 1135.58)" stroke="#747474" stroke-width="1.66958"/>
<line y1="-0.834788" x2="73.1537" y2="-0.834788" transform="matrix(-0.00828752 0.999966 0.999966 0.00828752 1200.89 1110.52)" stroke="#747474" stroke-width="1.66958"/>
<path d="M1042.28 1046.32L994.585 1022.77L994.43 1078.56L1042.12 1102.12L1042.28 1046.32Z" fill="#1D1D1D" stroke="#1D1D1D" stroke-width="1.66958"/>
<line y1="-0.834788" x2="73.1537" y2="-0.834788" transform="matrix(0.89662 0.442802 0.442802 -0.89662 989.428 1046.64)" stroke="#747474" stroke-width="1.66958"/>
<line y1="-0.834788" x2="73.1537" y2="-0.834788" transform="matrix(-0.00828752 0.999966 0.999966 0.00828752 1020.77 1021.58)" stroke="#747474" stroke-width="1.66958"/>
<path d="M1134.73 1000.29L1087.03 976.74L1086.88 1032.54L1134.57 1056.09L1134.73 1000.29Z" fill="#1D1D1D" stroke="#1D1D1D" stroke-width="1.66958"/>
<line y1="-0.834788" x2="73.1537" y2="-0.834788" transform="matrix(0.89662 0.442802 0.442802 -0.89662 1081.88 1000.62)" stroke="#747474" stroke-width="1.66958"/>
<line y1="-0.834788" x2="73.1537" y2="-0.834788" transform="matrix(-0.00828752 0.999966 0.999966 0.00828752 1113.22 975.57)" stroke="#747474" stroke-width="1.66958"/>
<path d="M1129.92 902.398L1082.01 925.494L1082.39 869.697L1130.3 846.601L1129.92 902.398Z" fill="#1D1D1D" stroke="#1D1D1D" stroke-width="1.66958"/>
<line x1="1076.71" y1="900.81" x2="1142.61" y2="869.045" stroke="#3A3A3A" stroke-width="1.66958"/>
<line x1="1107.35" y1="926.918" x2="1107.45" y2="853.764" stroke="#3A3A3A" stroke-width="1.66958"/>
<path d="M1040.12 854.776L992.203 877.872L992.582 822.075L1040.5 798.979L1040.12 854.776Z" fill="#1D1D1D" stroke="#1D1D1D" stroke-width="1.66958"/>
<line x1="986.903" y1="853.188" x2="1052.8" y2="821.424" stroke="#3A3A3A" stroke-width="1.66958"/>
<line x1="1017.54" y1="879.296" x2="1017.64" y2="806.142" stroke="#3A3A3A" stroke-width="1.66958"/>
<path d="M1041.55 672.89L993.637 695.986L994.015 640.189L1041.93 617.093L1041.55 672.89Z" fill="#1D1D1D" stroke="#1D1D1D" stroke-width="1.66958"/>
<line x1="988.333" y1="671.306" x2="1054.23" y2="639.541" stroke="#3A3A3A" stroke-width="1.66958"/>
<line x1="1018.98" y1="697.414" x2="1019.07" y2="624.26" stroke="#3A3A3A" stroke-width="1.66958"/>
<path d="M1219.56 768.008L1171.65 791.104L1172.03 735.307L1219.94 712.211L1219.56 768.008Z" fill="#1D1D1D" stroke="#1D1D1D" stroke-width="1.66958"/>
<line x1="1166.34" y1="766.427" x2="1232.24" y2="734.663" stroke="#3A3A3A" stroke-width="1.66958"/>
<line x1="1196.98" y1="792.531" x2="1197.07" y2="719.378" stroke="#3A3A3A" stroke-width="1.66958"/>
<path d="M953.389 532.549L905.475 555.645L905.853 499.848L953.768 476.752L953.389 532.549Z" fill="#1D1D1D" stroke="#1D1D1D" stroke-width="1.66958"/>
<line x1="900.171" y1="530.978" x2="966.068" y2="499.214" stroke="#3A3A3A" stroke-width="1.66958"/>
<line x1="930.808" y1="557.085" x2="930.901" y2="483.931" stroke="#3A3A3A" stroke-width="1.66958"/>
<path d="M951.942 989.339L904.027 1012.44L904.406 956.638L952.32 933.542L951.942 989.339Z" fill="#1D1D1D" stroke="#1D1D1D" stroke-width="1.66958"/>
<line x1="898.735" y1="987.755" x2="964.633" y2="955.991" stroke="#3A3A3A" stroke-width="1.66958"/>
<line x1="929.372" y1="1013.86" x2="929.465" y2="940.707" stroke="#3A3A3A" stroke-width="1.66958"/>
<path d="M952.245 714.795L904.33 737.891L904.709 682.094L952.623 658.998L952.245 714.795Z" fill="#1D1D1D" stroke="#1D1D1D" stroke-width="1.66958"/>
<line x1="899.032" y1="713.202" x2="964.93" y2="681.438" stroke="#3A3A3A" stroke-width="1.66958"/>
<line x1="929.675" y1="739.309" x2="929.768" y2="666.156" stroke="#3A3A3A" stroke-width="1.66958"/>
</svg>
