<svg width="841" height="918" viewBox="0 0 841 918" fill="none" xmlns="http://www.w3.org/2000/svg">
<path d="M46.4893 108.665L203.737 32.7345L200.644 110.423L43.3966 186.353L46.4893 108.665Z" fill="#1C1C1C" stroke="#121212" stroke-width="1.33333"/>
<path d="M350.685 497.78L507.932 421.85L504.84 499.538L347.592 575.468L350.685 497.78Z" fill="#1C1C1C" stroke="#121212" stroke-width="1.33333"/>
<path d="M198.575 303.227L355.823 227.296L352.73 304.984L195.483 380.915L198.575 303.227Z" fill="#1C1C1C" stroke="#121212" stroke-width="1.33333"/>
<path d="M502.771 692.341L660.018 616.41L656.926 694.098L499.678 770.029L502.771 692.341Z" fill="#1C1C1C" stroke="#121212" stroke-width="1.33333"/>
<path d="M122.548 205.935L279.796 130.004L276.703 207.692L119.455 283.623L122.548 205.935Z" fill="#1C1C1C" stroke="#121212" stroke-width="1.33333"/>
<path d="M426.743 595.049L583.991 519.118L580.898 596.806L423.651 672.737L426.743 595.049Z" fill="#1C1C1C" stroke="#121212" stroke-width="1.33333"/>
<path d="M274.634 400.495L431.882 324.565L428.789 402.253L271.541 478.183L274.634 400.495Z" fill="#1C1C1C" stroke="#121212" stroke-width="1.33333"/>
<path d="M578.829 789.609L736.077 713.679L732.984 791.367L575.736 867.298L578.829 789.609Z" fill="#1C1C1C" stroke="#121212" stroke-width="1.33333"/>
<path d="M45.814 186.289L44.1407 187.106L45.9525 187.537L122.236 205.661L122.468 205.717L122.682 205.612L277.388 130.059L279.061 129.242L277.25 128.811L200.966 110.687L200.734 110.631L200.52 110.736L45.814 186.289Z" fill="#1C1C1C" stroke="#121212" stroke-width="1.33333"/>
<path d="M350.009 575.406L348.336 576.223L350.148 576.654L426.431 594.779L426.663 594.834L426.878 594.729L581.583 519.176L583.257 518.359L581.445 517.928L505.162 499.804L504.93 499.749L504.715 499.853L350.009 575.406Z" fill="#1C1C1C" stroke="#121212" stroke-width="1.33333"/>
<path d="M197.898 380.851L196.225 381.668L198.036 382.098L274.32 400.223L274.552 400.278L274.766 400.173L429.472 324.62L431.145 323.803L429.333 323.373L353.05 305.248L352.818 305.193L352.604 305.298L197.898 380.851Z" fill="#1C1C1C" stroke="#121212" stroke-width="1.33333"/>
<path d="M502.093 769.968L500.42 770.785L502.232 771.215L578.515 789.34L578.747 789.395L578.962 789.291L733.667 713.738L735.341 712.92L733.529 712.49L657.246 694.365L657.013 694.31L656.799 694.415L502.093 769.968Z" fill="#1C1C1C" stroke="#121212" stroke-width="1.33333"/>
<path d="M121.873 283.559L120.199 284.376L122.011 284.806L198.294 302.931L198.526 302.986L198.741 302.881L353.447 227.328L355.12 226.511L353.308 226.081L277.025 207.956L276.793 207.901L276.578 208.006L121.873 283.559Z" fill="#1C1C1C" stroke="#121212" stroke-width="1.33333"/>
<path d="M426.068 672.675L424.395 673.492L426.206 673.922L502.489 692.047L502.722 692.102L502.936 691.998L657.642 616.445L659.315 615.627L657.503 615.197L581.22 597.072L580.988 597.017L580.774 597.122L426.068 672.675Z" fill="#1C1C1C" stroke="#121212" stroke-width="1.33333"/>
<path d="M273.957 478.122L272.283 478.939L274.095 479.37L350.378 497.494L350.61 497.55L350.825 497.445L505.531 421.892L507.204 421.075L505.392 420.644L429.109 402.52L428.877 402.465L428.662 402.569L273.957 478.122Z" fill="#1C1C1C" stroke="#121212" stroke-width="1.33333"/>
<path d="M578.152 867.236L576.479 868.054L578.29 868.484L654.573 886.609L654.806 886.664L655.02 886.559L809.726 811.006L811.399 810.189L809.587 809.759L733.304 791.634L733.072 791.579L732.858 791.683L578.152 867.236Z" fill="#1C1C1C" stroke="#121212" stroke-width="1.33333"/>
</svg>
