<svg width="982" height="1062" viewBox="0 0 982 1062" fill="none" xmlns="http://www.w3.org/2000/svg">
<rect x="138.066" width="115.296" height="44.2222" fill="#3A3A3A"/>
<rect x="368.66" width="115.296" height="44.2222" fill="#3A3A3A"/>
<rect x="599.25" width="115.296" height="44.2222" fill="#3A3A3A"/>
<rect x="829.844" width="115.296" height="44.2222" fill="#3A3A3A"/>
<rect x="149.941" y="88.4443" width="115.296" height="44.2222" fill="#3A3A3A"/>
<rect x="380.539" y="88.4443" width="115.296" height="44.2222" fill="#3A3A3A"/>
<rect x="611.125" y="88.4443" width="115.296" height="44.2222" fill="#3A3A3A"/>
<rect x="841.719" y="88.4443" width="115.296" height="44.2222" fill="#3A3A3A"/>
<rect x="149.941" y="221.11" width="115.296" height="44.2222" fill="#1D1D1D"/>
<rect x="380.539" y="221.11" width="115.296" height="44.2222" fill="#1D1D1D"/>
<rect x="611.125" y="221.11" width="115.296" height="44.2222" fill="#1D1D1D"/>
<rect x="841.719" y="221.11" width="115.296" height="44.2222" fill="#1D1D1D"/>
<rect y="176.89" width="111.275" height="44.2222" fill="#3A3A3A"/>
<rect x="222.551" y="176.89" width="111.275" height="44.2222" fill="#3A3A3A"/>
<rect x="445.102" y="176.89" width="111.275" height="44.2222" fill="#3A3A3A"/>
<rect x="667.648" y="176.89" width="111.275" height="44.2222" fill="#3A3A3A"/>
<rect x="890.668" y="177.334" width="90.6667" height="44" fill="#3A3A3A"/>
<rect width="115.296" height="44.2222" transform="matrix(-1 0 0 1 807.07 44.2227)" fill="#1D1D1D"/>
<rect width="115.296" height="44.2222" transform="matrix(-1 0 0 1 576.48 44.2227)" fill="#1D1D1D"/>
<rect width="115.296" height="44.2222" transform="matrix(-1 0 0 1 345.887 44.2227)" fill="#1D1D1D"/>
<rect width="115.296" height="44.2222" transform="matrix(-1 0 0 1 115.297 44.2227)" fill="#1D1D1D"/>
<rect width="115.296" height="44.2222" transform="matrix(-1 0 0 1 863.07 132.667)" fill="#1D1D1D"/>
<rect width="115.296" height="44.2222" transform="matrix(-1 0 0 1 632.477 132.667)" fill="#1D1D1D"/>
<rect width="115.296" height="44.2222" transform="matrix(-1 0 0 1 401.887 132.667)" fill="#1D1D1D"/>
<rect width="115.296" height="44.2222" transform="matrix(-1 0 0 1 171.293 132.667)" fill="#1D1D1D"/>
<rect x="138.07" y="530.666" width="115.296" height="44.2222" fill="#3A3A3A"/>
<rect x="368.664" y="530.666" width="115.296" height="44.2222" fill="#3A3A3A"/>
<rect x="599.254" y="530.666" width="115.296" height="44.2222" fill="#3A3A3A"/>
<rect x="829.844" y="530.666" width="115.296" height="44.2222" fill="#3A3A3A"/>
<rect x="149.941" y="619.11" width="115.296" height="44.2222" fill="#3A3A3A"/>
<rect x="380.539" y="619.11" width="115.296" height="44.2222" fill="#3A3A3A"/>
<rect x="611.125" y="619.11" width="115.296" height="44.2222" fill="#3A3A3A"/>
<rect x="841.719" y="619.11" width="115.296" height="44.2222" fill="#3A3A3A"/>
<rect x="149.941" y="751.776" width="115.296" height="44.2222" fill="#1D1D1D"/>
<rect x="380.539" y="751.776" width="115.296" height="44.2222" fill="#1D1D1D"/>
<rect x="611.125" y="751.776" width="115.296" height="44.2222" fill="#1D1D1D"/>
<rect x="841.719" y="751.776" width="115.296" height="44.2222" fill="#1D1D1D"/>
<rect y="707.556" width="111.275" height="44.2222" fill="#3A3A3A"/>
<rect x="222.551" y="707.556" width="111.275" height="44.2222" fill="#3A3A3A"/>
<rect x="445.102" y="707.556" width="111.275" height="44.2222" fill="#3A3A3A"/>
<rect x="667.648" y="707.556" width="111.275" height="44.2222" fill="#3A3A3A"/>
<rect x="890.668" y="708" width="90.6667" height="44" fill="#3A3A3A"/>
<rect width="115.296" height="44.2222" transform="matrix(-1 0 0 1 807.07 574.889)" fill="#1D1D1D"/>
<rect width="115.296" height="44.2222" transform="matrix(-1 0 0 1 576.48 574.889)" fill="#1D1D1D"/>
<rect width="115.296" height="44.2222" transform="matrix(-1 0 0 1 345.887 574.889)" fill="#1D1D1D"/>
<rect width="115.296" height="44.2222" transform="matrix(-1 0 0 1 115.297 574.889)" fill="#1D1D1D"/>
<rect width="115.296" height="44.2222" transform="matrix(-1 0 0 1 863.07 663.333)" fill="#1D1D1D"/>
<rect width="115.296" height="44.2222" transform="matrix(-1 0 0 1 632.477 663.333)" fill="#1D1D1D"/>
<rect width="115.296" height="44.2222" transform="matrix(-1 0 0 1 401.887 663.333)" fill="#1D1D1D"/>
<rect width="115.296" height="44.2222" transform="matrix(-1 0 0 1 171.293 663.333)" fill="#1D1D1D"/>
<rect x="138.07" y="795.999" width="115.296" height="44.2222" fill="#3A3A3A"/>
<rect x="368.664" y="795.999" width="115.296" height="44.2222" fill="#3A3A3A"/>
<rect x="599.254" y="795.999" width="115.296" height="44.2222" fill="#3A3A3A"/>
<rect x="829.844" y="795.999" width="115.296" height="44.2222" fill="#3A3A3A"/>
<rect x="149.941" y="884.443" width="115.296" height="44.2222" fill="#3A3A3A"/>
<rect x="380.539" y="884.443" width="115.296" height="44.2222" fill="#3A3A3A"/>
<rect x="611.125" y="884.443" width="115.296" height="44.2222" fill="#3A3A3A"/>
<rect x="841.719" y="884.443" width="115.296" height="44.2222" fill="#3A3A3A"/>
<rect x="149.941" y="1017.11" width="115.296" height="44.2222" fill="#1D1D1D"/>
<rect x="380.539" y="1017.11" width="115.296" height="44.2222" fill="#1D1D1D"/>
<rect x="611.125" y="1017.11" width="115.296" height="44.2222" fill="#1D1D1D"/>
<rect x="841.719" y="1017.11" width="115.296" height="44.2222" fill="#1D1D1D"/>
<rect y="972.889" width="111.275" height="44.2222" fill="#3A3A3A"/>
<rect x="222.551" y="972.889" width="111.275" height="44.2222" fill="#3A3A3A"/>
<rect x="445.102" y="972.889" width="111.275" height="44.2222" fill="#3A3A3A"/>
<rect x="667.648" y="972.889" width="111.275" height="44.2222" fill="#3A3A3A"/>
<rect x="890.668" y="973.333" width="90.6667" height="44" fill="#3A3A3A"/>
<rect width="115.296" height="44.2222" transform="matrix(-1 0 0 1 807.07 840.222)" fill="#1D1D1D"/>
<rect width="115.296" height="44.2222" transform="matrix(-1 0 0 1 576.48 840.222)" fill="#1D1D1D"/>
<rect width="115.296" height="44.2222" transform="matrix(-1 0 0 1 345.887 840.222)" fill="#1D1D1D"/>
<rect width="115.296" height="44.2222" transform="matrix(-1 0 0 1 115.297 840.222)" fill="#1D1D1D"/>
<rect width="115.296" height="44.2222" transform="matrix(-1 0 0 1 863.07 928.666)" fill="#1D1D1D"/>
<rect width="115.296" height="44.2222" transform="matrix(-1 0 0 1 632.477 928.666)" fill="#1D1D1D"/>
<rect width="115.296" height="44.2222" transform="matrix(-1 0 0 1 401.887 928.666)" fill="#1D1D1D"/>
<rect width="115.296" height="44.2222" transform="matrix(-1 0 0 1 171.293 928.666)" fill="#1D1D1D"/>
<rect x="138.066" y="265.333" width="115.296" height="44.2222" fill="#3A3A3A"/>
<rect x="368.66" y="265.333" width="115.296" height="44.2222" fill="#3A3A3A"/>
<rect x="599.25" y="265.333" width="115.296" height="44.2222" fill="#3A3A3A"/>
<rect x="829.844" y="265.333" width="115.296" height="44.2222" fill="#3A3A3A"/>
<rect x="149.941" y="353.777" width="115.296" height="44.2222" fill="#3A3A3A"/>
<rect x="380.539" y="353.777" width="115.296" height="44.2222" fill="#3A3A3A"/>
<rect x="611.125" y="353.777" width="115.296" height="44.2222" fill="#3A3A3A"/>
<rect x="841.719" y="353.777" width="115.296" height="44.2222" fill="#3A3A3A"/>
<rect x="149.941" y="486.443" width="115.296" height="44.2222" fill="#1D1D1D"/>
<rect x="380.539" y="486.443" width="115.296" height="44.2222" fill="#1D1D1D"/>
<rect x="611.125" y="486.443" width="115.296" height="44.2222" fill="#1D1D1D"/>
<rect x="841.719" y="486.443" width="115.296" height="44.2222" fill="#1D1D1D"/>
<rect y="442.223" width="111.275" height="44.2222" fill="#3A3A3A"/>
<rect x="222.551" y="442.223" width="111.275" height="44.2222" fill="#3A3A3A"/>
<rect x="445.102" y="442.223" width="111.275" height="44.2222" fill="#3A3A3A"/>
<rect x="667.648" y="442.223" width="111.275" height="44.2222" fill="#3A3A3A"/>
<rect x="890.668" y="442.667" width="90.6667" height="44" fill="#3A3A3A"/>
<rect width="115.296" height="44.2222" transform="matrix(-1 0 0 1 807.07 309.556)" fill="#1D1D1D"/>
<rect width="115.296" height="44.2222" transform="matrix(-1 0 0 1 576.48 309.556)" fill="#1D1D1D"/>
<rect width="115.296" height="44.2222" transform="matrix(-1 0 0 1 345.887 309.556)" fill="#1D1D1D"/>
<rect width="115.296" height="44.2222" transform="matrix(-1 0 0 1 115.297 309.556)" fill="#1D1D1D"/>
<rect width="115.296" height="44.2222" transform="matrix(-1 0 0 1 863.07 398)" fill="#1D1D1D"/>
<rect width="115.296" height="44.2222" transform="matrix(-1 0 0 1 632.477 398)" fill="#1D1D1D"/>
<rect width="115.296" height="44.2222" transform="matrix(-1 0 0 1 401.887 398)" fill="#1D1D1D"/>
<rect width="115.296" height="44.2222" transform="matrix(-1 0 0 1 171.293 398)" fill="#1D1D1D"/>
</svg>
