<svg width="1060" height="131" viewBox="0 0 1060 131" fill="none" xmlns="http://www.w3.org/2000/svg">
<path d="M1053.13 104H1056.46V100.666V29.333V25.9997H1053.13H1031.13C1022.13 25.9997 1014.56 28.1043 1009.19 32.592C1003.73 37.1564 1001 43.8056 1001 51.8663C1001 57.043 1002.32 61.7855 1005.15 65.7423C1007.26 68.6843 1010.12 71.0613 1013.64 72.8475L996.734 98.8497L993.387 104H999.529H1013.4H1015.21L1016.19 102.477L1032.54 77.1997H1037.13V100.666V104H1040.46H1053.13ZM1031.13 43.9997H1037.13V59.5997H1030.86C1026.86 59.5997 1024.36 58.6674 1022.92 57.4603C1021.57 56.3284 1020.73 54.6132 1020.73 51.9997C1020.73 49.2417 1021.61 47.4211 1023.02 46.2255C1024.51 44.9596 1027.07 43.9997 1031.13 43.9997Z" fill="#393939" stroke="#393939" stroke-width="6.66667"/>
<path d="M993.54 79.9724L991.184 77.4908L988.765 79.9101C985.601 83.0741 980.534 87.0671 972.322 87.0671C966.439 87.0671 961.391 84.897 957.807 81.1725C954.222 77.4465 951.922 71.9737 951.922 65.0671C951.922 58.5084 954.023 52.9747 957.51 49.1202C960.97 45.2963 965.959 42.9338 972.189 42.9338C980.141 42.9338 985.022 46.2632 988.248 49.8347L990.619 52.4594L993.099 49.9376L1000.97 41.9376L1003.03 39.8419L1001.2 37.535C996.635 31.7466 987.172 24.8005 972.055 24.8005C949.217 24.8005 932.322 42.3571 932.322 65.0671C932.322 76.3146 936.236 86.3735 943.279 93.6375C950.335 100.915 960.354 105.2 972.189 105.2C987.026 105.2 996.41 97.7481 1001.11 92.3143L1003.09 90.0298L1001.01 87.839L993.54 79.9724Z" fill="#393939" stroke="#393939" stroke-width="6.66667"/>
<path d="M913.211 26.0003H911.199L910.262 27.7805L890.145 65.983V29.3337V26.0003H886.811H874.145H870.811V29.3337V100.667V104H874.145H886.811H888.823L889.761 102.22L909.878 64.0176V100.667V104H913.211H925.878H929.211V100.667V29.3337V26.0003H925.878H913.211ZM881.611 3.33366H878.278V6.66699C878.278 10.8826 879.588 16.1002 883.023 20.3338C886.555 24.6883 892.127 27.7337 900.011 27.7337C907.712 27.7337 913.211 24.7091 916.718 20.3824C920.129 16.173 921.478 10.9598 921.478 6.66699V3.33366H918.145H908.545H905.211V6.66699C905.211 7.93326 904.813 9.32609 904.017 10.3274C903.316 11.2103 902.155 12.0003 900.011 12.0003C897.782 12.0003 896.637 11.1966 895.967 10.3432C895.198 9.36167 894.811 7.97424 894.811 6.66699V3.33366H891.478H881.611Z" fill="#393939" stroke="#393939" stroke-width="6.66667"/>
<path d="M846.813 102.011V104.001H850.147H861.347H864.68V100.668V54.6675C864.68 46.3696 862.824 38.909 858.066 33.4994C853.238 28.0095 845.929 25.2008 836.28 25.2008C827.716 25.2008 820.838 27.6581 816.085 32.2324C811.324 36.8139 809.08 43.1499 809.08 50.1342V53.4675H812.413H821.939C819.018 54.7376 816.414 56.4875 814.208 58.6585C809.286 63.5029 806.547 70.2499 806.547 77.8675C806.547 86.0501 809.543 92.9117 814.601 97.7173C819.635 102.501 826.519 105.068 834.013 105.068C839.114 105.068 843.364 103.926 846.813 102.011ZM827.579 51.7003L827.612 50.2099C827.668 47.783 828.325 45.8092 829.505 44.482C830.612 43.2364 832.556 42.1342 836.147 42.1342C839.712 42.1342 841.84 43.1931 843.149 44.7201C844.536 46.3386 845.48 49.0346 845.48 53.2008V53.2674C842.442 51.969 838.609 51.0675 834.013 51.0675C831.777 51.0675 829.626 51.2832 827.579 51.7003ZM835.48 88.0008C829.43 88.0008 825.48 83.7378 825.48 77.8675C825.48 74.8353 826.508 72.3619 828.145 70.6656C829.767 68.9847 832.177 67.8675 835.347 67.8675C838.575 67.8675 841.149 68.9603 842.898 70.6486C844.636 72.3277 845.747 74.7749 845.747 77.8675C845.747 83.6266 841.506 88.0008 835.48 88.0008Z" fill="#393939" stroke="#393939" stroke-width="6.66667"/>
<path d="M681.667 25.9997H678.334V29.333V100.666V104H681.667H777.175C785.594 104 792.811 101.988 797.996 97.8788C803.277 93.6934 806.109 87.5956 806.109 80.2663C806.109 72.1987 802.371 66.4862 797.115 63.023C801.064 59.536 803.709 54.5188 803.709 48.133C803.709 41.1189 801.143 35.3769 796.091 31.4909C791.175 27.7093 784.313 25.9997 776.242 25.9997H681.667ZM774.909 55.8663H697.667V42.933H774.909C778.6 42.933 780.804 43.7019 782.028 44.667C783.112 45.5217 783.842 46.8572 783.842 49.1997C783.842 51.6078 783.076 53.0781 781.924 54.0254C780.669 55.058 778.469 55.8663 774.909 55.8663ZM776.109 87.0663H697.667V72.2663H776.109C780.169 72.2663 782.663 73.2256 784.093 74.4312C785.441 75.5681 786.242 77.2587 786.242 79.733C786.242 82.1201 785.455 83.7795 784.104 84.9087C782.67 86.1073 780.168 87.0663 776.109 87.0663Z" fill="#393939" stroke="#393939" stroke-width="6.66667"/>
<path d="M655.666 25.9997H653.654L652.717 27.7799L632.6 65.9824V29.333V25.9997H629.266H616.6H613.266V29.333V100.666V104H616.6H629.266H631.278L632.216 102.219L652.333 64.017V100.666V104H655.666H668.333H671.666V100.666V29.333V25.9997H668.333H655.666Z" fill="#393939" stroke="#393939" stroke-width="6.66667"/>
<path d="M589.267 102.011V104.001H592.601H603.801H607.134V100.668V54.6675C607.134 46.3696 605.278 38.909 600.52 33.4994C595.692 28.0095 588.383 25.2008 578.734 25.2008C570.17 25.2008 563.292 27.6581 558.539 32.2324C553.778 36.8139 551.534 43.1499 551.534 50.1342V53.4675H554.867H564.393C561.472 54.7376 558.868 56.4875 556.662 58.6585C551.741 63.5029 549.001 70.2499 549.001 77.8675C549.001 86.0501 551.997 92.9117 557.055 97.7173C562.089 102.501 568.973 105.068 576.467 105.068C581.568 105.068 585.818 103.926 589.267 102.011ZM570.033 51.7003L570.066 50.2099C570.122 47.783 570.779 45.8092 571.959 44.4821C573.066 43.2364 575.01 42.1342 578.601 42.1342C582.166 42.1342 584.294 43.1931 585.603 44.7201C586.99 46.3386 587.934 49.0346 587.934 53.2008V53.2674C584.896 51.969 581.063 51.0675 576.467 51.0675C574.231 51.0675 572.08 51.2832 570.033 51.7003ZM577.934 88.0008C571.884 88.0008 567.934 83.7378 567.934 77.8675C567.934 74.8353 568.962 72.3619 570.599 70.6656C572.221 68.9847 574.631 67.8675 577.801 67.8675C581.03 67.8675 583.604 68.9603 585.352 70.6486C587.09 72.3277 588.201 74.7749 588.201 77.8675C588.201 83.6266 583.96 88.0008 577.934 88.0008Z" fill="#393939" stroke="#393939" stroke-width="6.66667"/>
<path d="M483.305 127.334H486.639V124V99.1679C491.499 102.408 498.476 105.2 507.305 105.2C519.346 105.2 529.344 100.844 536.322 93.496C543.279 86.1711 547.039 76.0832 547.039 64.9338C547.039 53.2497 543.144 43.1767 536.16 36.0077C529.168 28.8316 519.309 24.8005 507.839 24.8005C498.56 24.8005 491.318 27.7043 486.105 31.6183V29.3338V26.0005H482.772H470.639H467.305V29.3338V124V127.334H470.639H483.305ZM506.905 87.2005C500.555 87.2005 495.424 84.898 491.867 81.1165C488.292 77.3172 486.105 71.8054 486.105 65.0671C486.105 58.3999 488.29 52.845 491.879 48.9877C495.449 45.1512 500.581 42.8005 506.905 42.8005C513.154 42.8005 518.254 45.1448 521.81 48.9829C525.387 52.8419 527.572 58.3996 527.572 65.0671C527.572 71.818 525.41 77.3312 521.869 81.1261C518.346 84.9 513.253 87.2005 506.905 87.2005Z" fill="#393939" stroke="#393939" stroke-width="6.66667"/>
<path d="M464.441 29.334V26.0007H461.108H414.041H410.708V29.334V40.934V44.2673H414.041H427.908V100.667V104.001H431.241H443.908H447.241V100.667V44.2673H461.108H464.441V40.934V29.334Z" fill="#393939" stroke="#393939" stroke-width="6.66667"/>
<path d="M404.486 79.9724L402.131 77.4908L399.711 79.9101C396.547 83.0741 391.481 87.0671 383.268 87.0671C377.385 87.0671 372.337 84.897 368.753 81.1725C365.168 77.4465 362.868 71.9737 362.868 65.0671C362.868 58.5084 364.969 52.9747 368.457 49.1202C371.916 45.2963 376.906 42.9338 383.135 42.9338C391.088 42.9338 395.969 46.2632 399.195 49.8347L401.565 52.4594L404.045 49.9376L411.912 41.9376L413.972 39.8419L412.151 37.535C407.581 31.7466 398.118 24.8005 383.002 24.8005C360.164 24.8005 343.268 42.3571 343.268 65.0671C343.268 76.3146 347.182 86.3735 354.225 93.6375C361.282 100.915 371.3 105.2 383.135 105.2C397.972 105.2 407.357 97.7481 412.056 92.3143L414.032 90.0298L411.953 87.839L404.486 79.9724Z" fill="#393939" stroke="#393939" stroke-width="6.66667"/>
<path d="M330.238 73.4437L327.721 72.1338H339.766H342.532L343.042 69.4148C343.437 67.3074 343.399 65.1411 343.375 63.7832C343.37 63.5092 343.366 63.2682 343.366 63.0671V63.0359L343.365 63.0046C343.152 51.6352 339.403 42.0241 332.623 35.2434C325.836 28.4566 316.305 24.8005 305.099 24.8005C282.805 24.8005 266.965 41.8184 266.965 65.2005C266.965 77.0819 270.893 87.1384 277.952 94.2346C285.011 101.33 294.937 105.2 306.432 105.2C324.554 105.2 336.504 94.82 341.511 82.7438L342.682 79.9213L339.971 78.5104L330.238 73.4437ZM287.164 72.1338H327.233L325.774 74.8011C323.585 78.8051 321.159 81.8581 318.169 83.9256C315.228 85.9596 311.509 87.2005 306.432 87.2005C300.396 87.2005 295.732 85.3614 292.489 82.2949C289.91 79.8572 288.037 76.4624 287.164 72.1338ZM287.839 55.2005C288.864 51.5911 290.597 48.7556 292.825 46.7011C295.762 43.9931 299.82 42.4005 304.965 42.4005C310.462 42.4005 314.869 44.1045 317.976 46.8846C320.307 48.9698 322.031 51.7712 322.916 55.2005H287.839Z" fill="#393939" stroke="#393939" stroke-width="6.66667"/>
<path d="M203.487 127.334H206.82V124V99.1679C211.681 102.408 218.658 105.2 227.487 105.2C239.527 105.2 249.526 100.844 256.504 93.496C263.461 86.1711 267.22 76.0832 267.22 64.9338C267.22 53.2497 263.325 43.1767 256.341 36.0077C249.35 28.8316 239.491 24.8005 228.02 24.8005C218.741 24.8005 211.5 27.7043 206.287 31.6183V29.3338V26.0005H202.954H190.82H187.487V29.3338V124V127.334H190.82H203.487ZM227.087 87.2005C220.737 87.2005 215.606 84.898 212.048 81.1165C208.474 77.3172 206.287 71.8054 206.287 65.0671C206.287 58.3999 208.472 52.845 212.061 48.9877C215.63 45.1512 220.763 42.8005 227.087 42.8005C233.336 42.8005 238.435 45.1448 241.992 48.9829C245.568 52.8419 247.754 58.3996 247.754 65.0671C247.754 71.818 245.592 77.3312 242.05 81.1261C238.528 84.9 233.435 87.2005 227.087 87.2005Z" fill="#393939" stroke="#393939" stroke-width="6.66667"/>
<path d="M171.775 73.4437L169.259 72.1338H181.303H184.069L184.579 69.4148C184.974 67.3074 184.936 65.1412 184.912 63.7832C184.907 63.5093 184.903 63.2682 184.903 63.0671V63.0359L184.902 63.0046C184.689 51.6352 180.94 42.0241 174.16 35.2434C167.373 28.4566 157.842 24.8005 146.636 24.8005C124.342 24.8005 108.503 41.8184 108.503 65.2005C108.503 77.0819 112.43 87.1384 119.489 94.2346C126.548 101.33 136.474 105.2 147.969 105.2C166.091 105.2 178.041 94.82 183.048 82.7438L184.219 79.9213L181.508 78.5104L171.775 73.4437ZM128.701 72.1338H168.77L167.311 74.8011C165.122 78.8051 162.696 81.8581 159.707 83.9256C156.765 85.9596 153.047 87.2005 147.969 87.2005C141.933 87.2005 137.27 85.3614 134.026 82.2949C131.447 79.8572 129.574 76.4624 128.701 72.1338ZM129.376 55.2005C130.401 51.5911 132.134 48.7556 134.362 46.7011C137.299 43.9931 141.357 42.4005 146.503 42.4005C151.999 42.4005 156.406 44.1045 159.513 46.8846C161.844 48.9698 163.568 51.7712 164.453 55.2005H129.376Z" fill="#393939" stroke="#393939" stroke-width="6.66667"/>
<path d="M102.148 104.001H105.481V100.667V29.334V26.0007H102.148H7H3.66667V29.334V100.667V104.001H7H19.6667H23V100.667V44.2673H86.1478V100.667V104.001H89.4811H102.148Z" fill="#393939" stroke="#393939" stroke-width="6.66667"/>
</svg>
