<svg width="1061" height="131" viewBox="0 0 1061 131" fill="none" xmlns="http://www.w3.org/2000/svg">
<path d="M1053.93 104.333H1057.27V100.999V29.666V26.3327H1053.93H882.066C873.065 26.3327 865.498 28.4373 860.128 32.925C854.667 37.4894 851.932 44.1386 851.932 52.1993C851.932 57.376 853.253 62.1185 856.09 66.0753C858.2 69.0173 861.055 71.3943 864.572 73.1805L847.671 99.1827L844.324 104.333H850.466H864.333H866.146L867.131 102.81L883.48 77.5327H1037.93V100.999V104.333H1041.27H1053.93ZM882.066 44.3327H1037.93V59.9327H881.799C877.792 59.9327 875.298 59.0004 873.855 57.7933C872.503 56.6614 871.666 54.9462 871.666 52.3327C871.666 49.5747 872.545 47.7542 873.955 46.5585C875.448 45.2926 878.004 44.3327 882.066 44.3327Z" fill="#393939" stroke="#393939" stroke-width="6.66667"/>
<path d="M845.629 80.3054L843.274 77.8238L840.855 80.2431C837.691 83.4071 832.624 87.4001 824.412 87.4001C818.529 87.4001 813.481 85.23 809.897 81.5055C806.312 77.7795 804.012 72.3067 804.012 65.4001C804.012 58.8414 806.113 53.3077 809.6 49.4532C813.06 45.6293 818.049 43.2668 824.278 43.2668C832.231 43.2668 837.112 46.5962 840.338 50.1678L842.709 52.7924L845.189 50.2706L853.055 42.2706L855.116 40.1749L853.295 37.868C848.725 32.0796 839.262 25.1335 824.145 25.1335C801.307 25.1335 784.412 42.6902 784.412 65.4001C784.412 76.6476 788.325 86.7066 795.369 93.9705C802.425 101.248 812.444 105.533 824.278 105.533C839.116 105.533 848.5 98.0811 853.2 92.6473L855.175 90.3628L853.096 88.172L845.629 80.3054Z" fill="#393939" stroke="#393939" stroke-width="6.66667"/>
<path d="M765.301 26.3333H763.289L762.352 28.1135L742.234 66.316V29.6667V26.3333H738.901H726.234H722.901V29.6667V101V104.333H726.234H738.901H740.913L741.85 102.553L761.968 64.3506V101V104.333H765.301H777.968H781.301V101V29.6667V26.3333H777.968H765.301ZM733.701 3.66667H730.368V7C730.368 11.2156 731.678 16.4332 735.112 20.6668C738.645 25.0213 744.217 28.0667 752.101 28.0667C759.802 28.0667 765.301 25.0421 768.807 20.7154C772.219 16.5061 773.568 11.2928 773.568 7V3.66667H770.234H760.634H757.301V7C757.301 8.26627 756.902 9.65909 756.107 10.6604C755.406 11.5433 754.244 12.3333 752.101 12.3333C749.872 12.3333 748.727 11.5296 748.057 10.6762C747.287 9.69468 746.901 8.30725 746.901 7V3.66667H743.568H733.701Z" fill="#393939" stroke="#393939" stroke-width="6.66667"/>
<path d="M698.902 102.344V104.334H702.235H713.435H716.769V101.001V55.0005C716.769 46.7026 714.913 39.2421 710.155 33.8324C705.326 28.3425 698.017 25.5339 688.369 25.5339C679.805 25.5339 672.927 27.9912 668.174 32.5654C663.413 37.1469 661.169 43.4829 661.169 50.4672V53.8005H664.502H674.028C671.107 55.0706 668.503 56.8205 666.297 58.9915C661.375 63.8359 658.635 70.5829 658.635 78.2005C658.635 86.3831 661.632 93.2447 666.689 98.0503C671.724 102.834 678.608 105.401 686.102 105.401C691.203 105.401 695.453 104.259 698.902 102.344ZM679.667 52.0333L679.701 50.5429C679.756 48.116 680.414 46.1422 681.593 44.8151C682.701 43.5694 684.645 42.4672 688.235 42.4672C691.801 42.4672 693.929 43.5261 695.238 45.0532C696.625 46.6716 697.569 49.3676 697.569 53.5339V53.6004C694.531 52.302 690.698 51.4005 686.102 51.4005C683.866 51.4005 681.715 51.6162 679.667 52.0333ZM687.569 88.3339C681.519 88.3339 677.569 84.0708 677.569 78.2005C677.569 75.1683 678.597 72.6949 680.234 70.9986C681.856 69.3177 684.266 68.2005 687.435 68.2005C690.664 68.2005 693.238 69.2933 694.987 70.9816C696.725 72.6607 697.835 75.108 697.835 78.2005C697.835 83.9596 693.594 88.3339 687.569 88.3339Z" fill="#393939" stroke="#393939" stroke-width="6.66667"/>
<path d="M605.531 26.3327H602.198V29.666V100.999V104.333H605.531H629.265C637.684 104.333 644.9 102.321 650.085 98.2118C655.366 94.0264 658.198 87.9286 658.198 80.5993C658.198 72.5317 654.461 66.8192 649.204 63.356C653.153 59.869 655.798 54.8518 655.798 48.466C655.798 41.4519 653.232 35.71 648.18 31.8239C643.264 28.0423 636.402 26.3327 628.331 26.3327H605.531ZM626.998 56.1993H621.531V43.266H626.998C630.689 43.266 632.893 44.035 634.117 45C635.201 45.8547 635.931 47.1902 635.931 49.5327C635.931 51.9408 635.165 53.4111 634.014 54.3584C632.758 55.391 630.559 56.1993 626.998 56.1993ZM628.198 87.3994H621.531V72.5994H628.198C632.258 72.5994 634.753 73.5586 636.182 74.7642C637.531 75.9011 638.331 77.5917 638.331 80.066C638.331 82.4531 637.545 84.1125 636.194 85.2418C634.759 86.4404 632.257 87.3994 628.198 87.3994Z" fill="#393939" stroke="#393939" stroke-width="6.66667"/>
<path d="M579.754 26.3327H577.742L576.805 28.1129L556.688 66.3154V29.666V26.3327H553.354H540.688H537.354V29.666V100.999V104.333H540.688H553.354H555.366L556.304 102.552L576.421 64.35V100.999V104.333H579.754H592.421H595.754V100.999V29.666V26.3327H592.421H579.754Z" fill="#393939" stroke="#393939" stroke-width="6.66667"/>
<path d="M490.297 26.3327H486.964V29.666V100.999V104.333H490.297H502.964H506.297V100.999V44.5993H531.23H534.564V41.266V29.666V26.3327H531.23H490.297Z" fill="#393939" stroke="#393939" stroke-width="6.66667"/>
<path d="M477.665 104.333H480.999V100.999V29.666V26.3327H477.665H297.446C288.445 26.3327 280.878 28.4373 275.508 32.925C270.047 37.4895 267.312 44.1386 267.312 52.1993C267.312 57.376 268.633 62.1185 271.47 66.0753C273.58 69.0173 276.435 71.3943 279.952 73.1805L263.051 99.1827L259.703 104.333H265.846H279.712H281.526L282.511 102.81L298.86 77.5327H461.665V100.999V104.333H464.999H477.665ZM297.446 44.3327H461.665V59.9327H297.179C293.172 59.9327 290.677 59.0004 289.235 57.7933C287.883 56.6614 287.046 54.9462 287.046 52.3327C287.046 49.5747 287.924 47.7542 289.335 46.5585C290.828 45.2926 293.384 44.3327 297.446 44.3327Z" fill="#393939" stroke="#393939" stroke-width="6.66667"/>
<path d="M265.518 29.666V26.3327H262.185H215.118H211.785V29.666V41.266V44.5993H215.118H228.985V100.999V104.333H232.318H244.985H248.318V100.999V44.5993H262.185H265.518V41.266V29.666Z" fill="#393939" stroke="#393939" stroke-width="6.66667"/>
<path d="M205.561 80.3054L203.206 77.8238L200.786 80.2431C197.622 83.4071 192.556 87.4001 184.343 87.4001C178.461 87.4001 173.413 85.23 169.829 81.5055C166.243 77.7795 163.943 72.3067 163.943 65.4001C163.943 58.8414 166.044 53.3077 169.532 49.4532C172.992 45.6293 177.981 43.2668 184.21 43.2668C192.163 43.2668 197.044 46.5962 200.27 50.1678L202.64 52.7924L205.12 50.2706L212.987 42.2706L215.048 40.1749L213.226 37.868C208.657 32.0796 199.194 25.1335 184.077 25.1335C161.239 25.1335 144.343 42.6901 144.343 65.4001C144.343 76.6476 148.257 86.7066 155.3 93.9705C162.357 101.248 172.375 105.533 184.21 105.533C199.047 105.533 208.432 98.0811 213.131 92.6473L215.107 90.3628L213.028 88.172L205.561 80.3054Z" fill="#393939" stroke="#393939" stroke-width="6.66667"/>
<path d="M123.679 102.344V104.334H127.013H138.213H141.546V101.001V55.0005C141.546 46.7026 139.69 39.2421 134.932 33.8324C130.104 28.3425 122.795 25.5339 113.146 25.5339C104.582 25.5339 97.7046 27.9912 92.9514 32.5654C88.1906 37.1469 85.9461 43.4829 85.9461 50.4672V53.8005H89.2794H98.805C95.8843 55.0706 93.2803 56.8205 91.0745 58.9915C86.1527 63.8359 83.4128 70.5829 83.4128 78.2005C83.4128 86.3831 86.4092 93.2447 91.4667 98.0503C96.5012 102.834 103.386 105.401 110.879 105.401C115.98 105.401 120.23 104.259 123.679 102.344ZM104.445 52.0333L104.479 50.5429C104.534 48.116 105.191 46.1422 106.371 44.8151C107.478 43.5694 109.422 42.4672 113.013 42.4672C116.578 42.4672 118.706 43.5261 120.015 45.0532C121.402 46.6716 122.346 49.3676 122.346 53.5339V53.6004C119.309 52.302 115.475 51.4005 110.879 51.4005C108.643 51.4005 106.492 51.6162 104.445 52.0333ZM112.346 88.3339C106.296 88.3339 102.346 84.0708 102.346 78.2005C102.346 75.1683 103.374 72.6949 105.011 70.9986C106.633 69.3177 109.043 68.2005 112.213 68.2005C115.442 68.2005 118.016 69.2933 119.764 70.9816C121.502 72.6607 122.613 75.108 122.613 78.2005C122.613 83.9596 118.372 88.3339 112.346 88.3339Z" fill="#393939" stroke="#393939" stroke-width="6.66667"/>
<path d="M19.6667 127.667H23V124.333V99.5009C27.8604 102.741 34.8378 105.533 43.6667 105.533C55.7068 105.533 65.7053 101.177 72.6836 93.829C79.6405 86.5041 83.4 76.4162 83.4 65.2668C83.4 53.5827 79.5051 43.5097 72.5209 36.3407C65.5298 29.1646 55.6702 25.1335 44.2 25.1335C34.9211 25.1335 27.6797 28.0373 22.4667 31.9513V29.6668V26.3335H19.1333H7H3.66667V29.6668V124.333V127.667H7H19.6667ZM43.2667 87.5335C36.9168 87.5335 31.7853 85.231 28.2279 81.4495C24.6538 77.6502 22.4667 72.1384 22.4667 65.4001C22.4667 58.7329 24.6516 53.178 28.2404 49.3207C31.8099 45.4842 36.9424 43.1335 43.2667 43.1335C49.5155 43.1335 54.6149 45.4778 58.1718 49.3159C61.7481 53.1749 63.9334 58.7326 63.9334 65.4001C63.9334 72.151 61.7717 77.6642 58.2298 81.4591C54.7075 85.233 49.6144 87.5335 43.2667 87.5335Z" fill="#393939" stroke="#393939" stroke-width="6.66667"/>
</svg>
