<svg width="1061" height="127" viewBox="0 0 1061 127" fill="none" xmlns="http://www.w3.org/2000/svg">
<path d="M1054.33 104.333H1057.67V100.999V29.666V26.3327H1054.33H863.133C854.132 26.3327 846.565 28.4373 841.196 32.925C835.734 37.4895 833 44.1386 833 52.1993C833 57.376 834.32 62.1185 837.158 66.0753C839.268 69.0173 842.123 71.3943 845.64 73.1805L828.738 99.1827L825.391 104.333H831.533H845.4H847.214L848.199 102.81L864.547 77.5327H1038.33V100.999V104.333H1041.67H1054.33ZM863.133 44.3327H1038.33V59.9327H862.867C858.86 59.9327 856.365 59.0004 854.923 57.7933C853.571 56.6614 852.733 54.9462 852.733 52.3327C852.733 49.5747 853.612 47.7542 855.022 46.5585C856.515 45.2926 859.072 44.3327 863.133 44.3327Z" fill="#393939" stroke="#393939" stroke-width="6.66667"/>
<path d="M825.545 80.3054L823.19 77.8238L820.771 80.2431C817.607 83.4071 812.54 87.4001 804.328 87.4001C798.445 87.4001 793.397 85.23 789.813 81.5055C786.228 77.7795 783.928 72.3067 783.928 65.4001C783.928 58.8414 786.029 53.3077 789.516 49.4532C792.976 45.6293 797.965 43.2668 804.194 43.2668C812.147 43.2668 817.028 46.5962 820.254 50.1678L822.625 52.7924L825.105 50.2706L832.971 42.2706L835.032 40.1749L833.211 37.868C828.641 32.0796 819.178 25.1335 804.061 25.1335C781.223 25.1335 764.328 42.6901 764.328 65.4001C764.328 76.6476 768.241 86.7066 775.285 93.9705C782.341 101.248 792.36 105.533 804.194 105.533C819.032 105.533 828.416 98.0811 833.116 92.6473L835.092 90.3628L833.012 88.172L825.545 80.3054Z" fill="#393939" stroke="#393939" stroke-width="6.66667"/>
<path d="M745.217 26.3333H743.205L742.268 28.1135L722.15 66.3161V29.6667V26.3333H718.817H706.15H702.817V29.6667V101V104.333H706.15H718.817H720.829L721.766 102.553L741.884 64.3506V101V104.333H745.217H757.884H761.217V101V29.6667V26.3333H757.884H745.217ZM713.617 3.66667H710.284V7C710.284 11.2156 711.594 16.4332 715.029 20.6668C718.561 25.0213 724.133 28.0667 732.017 28.0667C739.718 28.0667 745.217 25.0421 748.723 20.7154C752.135 16.506 753.484 11.2928 753.484 7V3.66667H750.15H740.55H737.217V7C737.217 8.26627 736.819 9.6591 736.023 10.6604C735.322 11.5433 734.16 12.3333 732.017 12.3333C729.788 12.3333 728.643 11.5296 727.973 10.6762C727.203 9.69467 726.817 8.30723 726.817 7V3.66667H723.484H713.617Z" fill="#393939" stroke="#393939" stroke-width="6.66667"/>
<path d="M678.819 102.344V104.334H682.152H693.352H696.686V101.001V55.0005C696.686 46.7026 694.83 39.2421 690.072 33.8324C685.243 28.3425 677.934 25.5339 668.286 25.5339C659.722 25.5339 652.844 27.9912 648.091 32.5654C643.33 37.1469 641.086 43.4829 641.086 50.4672V53.8005H644.419H653.945C651.024 55.0706 648.42 56.8205 646.214 58.9915C641.292 63.8359 638.552 70.5829 638.552 78.2005C638.552 86.3831 641.549 93.2447 646.606 98.0503C651.641 102.834 658.525 105.401 666.019 105.401C671.12 105.401 675.37 104.259 678.819 102.344ZM659.584 52.0333L659.618 50.5429C659.673 48.116 660.331 46.1422 661.51 44.8151C662.618 43.5694 664.562 42.4672 668.152 42.4672C671.718 42.4672 673.846 43.5261 675.155 45.0532C676.542 46.6716 677.486 49.3676 677.486 53.5339V53.6004C674.448 52.302 670.615 51.4005 666.019 51.4005C663.783 51.4005 661.631 51.6162 659.584 52.0333ZM667.486 88.3339C661.436 88.3339 657.486 84.0708 657.486 78.2005C657.486 75.1683 658.514 72.6949 660.151 70.9986C661.773 69.3177 664.183 68.2005 667.352 68.2005C670.581 68.2005 673.155 69.2933 674.903 70.9816C676.642 72.6607 677.752 75.108 677.752 78.2005C677.752 83.9596 673.511 88.3339 667.486 88.3339Z" fill="#393939" stroke="#393939" stroke-width="6.66667"/>
<path d="M585.448 26.3337H582.115V29.667V101V104.334H585.448H609.182C617.601 104.334 624.817 102.322 630.002 98.2128C635.283 94.0274 638.115 87.9295 638.115 80.6003C638.115 72.5327 634.378 66.8202 629.121 63.357C633.07 59.87 635.715 54.8528 635.715 48.467C635.715 41.4529 633.149 35.7109 628.097 31.8249C623.181 28.0433 616.319 26.3337 608.248 26.3337H585.448ZM606.915 56.2003H601.448V43.267H606.915C610.606 43.267 612.81 44.0359 614.034 45.001C615.118 45.8557 615.848 47.1912 615.848 49.5337C615.848 51.9418 615.082 53.4121 613.931 54.3594C612.675 55.392 610.476 56.2003 606.915 56.2003ZM608.115 87.4003H601.448V72.6003H608.115C612.175 72.6003 614.67 73.5596 616.099 74.7652C617.448 75.9021 618.248 77.5927 618.248 80.067C618.248 82.4541 617.462 84.1134 616.111 85.2427C614.677 86.4413 612.174 87.4003 608.115 87.4003Z" fill="#393939" stroke="#393939" stroke-width="6.66667"/>
<path d="M503.156 26.3327H499.823V29.666V100.999V104.333H503.156H524.09C533.041 104.333 540.698 102.187 546.173 97.6275C551.737 92.9936 554.623 86.2202 554.623 77.9327C554.623 69.8023 551.674 63.1322 546.081 58.5671C540.582 54.0786 532.909 51.9327 523.956 51.9327H519.156V29.666V26.3327H515.823H503.156ZM572.49 104.333H575.823V100.999V29.666V26.3327H572.49H559.823H556.49V29.666V100.999V104.333H559.823H572.49ZM524.09 86.3327H519.156V69.9327H524.09C528.227 69.9327 530.87 70.8972 532.422 72.1735C533.879 73.3726 534.756 75.1586 534.756 77.7993C534.756 80.9217 533.849 82.8515 532.451 84.0685C530.971 85.3571 528.387 86.3327 524.09 86.3327Z" fill="#393939" stroke="#393939" stroke-width="6.66667"/>
<path d="M390.867 26.3327H387.64L387.535 29.5571L386.202 70.3571L386.201 70.3681L386.201 70.3791C386.102 74.1727 385.922 77.1374 385.618 79.4596C385.31 81.8087 384.898 83.2955 384.444 84.242C384.033 85.0996 383.633 85.4282 383.25 85.6213C382.771 85.8631 381.959 86.066 380.467 86.066H379.267H375.933V89.3994V119.666V122.999H379.267H390.733H394.067V119.666V104.333H481.696V119.666V122.999H485.029H496.629H499.962V119.666V89.3994V86.066H496.629H490.762V29.666V26.3327H487.429H390.867ZM404.996 70.2298L404.998 70.1942L404.999 70.1586L405.709 44.5993H471.429V86.066H403.158C404.265 81.5096 404.703 76.1759 404.996 70.2298Z" fill="#393939" stroke="#393939" stroke-width="6.66667"/>
<path d="M353.029 102.344V104.334H356.362H367.562H370.896V101.001V55.0005C370.896 46.7026 369.04 39.2421 364.282 33.8324C359.453 28.3425 352.144 25.5339 342.496 25.5339C333.932 25.5339 327.054 27.9912 322.301 32.5654C317.54 37.1469 315.296 43.4829 315.296 50.4672V53.8005H318.629H328.155C325.234 55.0706 322.63 56.8205 320.424 58.9915C315.502 63.8359 312.762 70.5829 312.762 78.2005C312.762 86.3831 315.759 93.2447 320.816 98.0503C325.851 102.834 332.735 105.401 340.229 105.401C345.33 105.401 349.58 104.259 353.029 102.344ZM333.794 52.0333L333.828 50.5429C333.883 48.116 334.541 46.1422 335.72 44.8151C336.828 43.5694 338.772 42.4672 342.362 42.4672C345.928 42.4672 348.056 43.5261 349.365 45.0532C350.752 46.6716 351.696 49.3676 351.696 53.5339V53.6004C348.658 52.302 344.825 51.4005 340.229 51.4005C337.993 51.4005 335.841 51.6162 333.794 52.0333ZM341.696 88.3339C335.646 88.3339 331.696 84.0708 331.696 78.2005C331.696 75.1683 332.724 72.6949 334.361 70.9986C335.983 69.3177 338.393 68.2005 341.562 68.2005C344.791 68.2005 347.365 69.2933 349.113 70.9816C350.852 72.6607 351.962 75.108 351.962 78.2005C351.962 83.9596 347.721 88.3339 341.696 88.3339Z" fill="#393939" stroke="#393939" stroke-width="6.66667"/>
<path d="M162.467 26.3337H159.227L159.135 29.5718L157.936 71.5422C157.771 75.094 157.552 77.9018 157.222 80.1276C156.887 82.3833 156.464 83.8412 155.995 84.7905C155.566 85.6585 155.139 86.0274 154.705 86.2494C154.188 86.5137 153.331 86.7337 151.8 86.7337H151H147.667V90.067V101.667V105H151H151.667C161.02 105 167.562 102.42 171.509 96.2455C175.161 90.5316 176.134 82.3139 176.465 72.447C176.465 72.4465 176.465 72.446 176.465 72.4455L177.421 44.6003H290.152V101V104.334H293.486H306.286H309.619V101V29.667V26.3337H306.286H162.467Z" fill="#393939" stroke="#393939" stroke-width="6.66667"/>
<path d="M94.041 101V76.9922L115.044 103.09L116.045 104.334H117.641H133.241H140.142L135.852 98.928L107.317 62.9767L134.677 31.8684L139.545 26.3337H132.174H116.841H115.32L114.323 27.483L94.041 50.8692V29.667V26.3337H90.7077H78.041H74.7077V29.667V101V104.334H78.041H90.7077H94.041V101Z" fill="#393939" stroke="#393939" stroke-width="6.66667"/>
<path d="M64.8844 80.3054L62.529 77.8238L60.1096 80.2431C56.9457 83.4071 51.8791 87.4001 43.6667 87.4001C37.7838 87.4001 32.7358 85.23 29.1519 81.5055C25.5665 77.7795 23.2667 72.3067 23.2667 65.4001C23.2667 58.8414 25.3677 53.3077 28.8551 49.4532C32.3148 45.6293 37.304 43.2668 43.5333 43.2668C51.486 43.2668 56.3671 46.5962 59.593 50.1678L61.9636 52.7924L64.4434 50.2706L72.3101 42.2706L74.3709 40.1749L72.5496 37.868C67.9798 32.0796 58.5168 25.1335 43.4 25.1335C20.5621 25.1335 3.66667 42.6901 3.66667 65.4001C3.66667 76.6476 7.58028 86.7066 14.6236 93.9705C21.68 101.248 31.6987 105.533 43.5333 105.533C58.3704 105.533 67.7551 98.0811 72.4545 92.6473L74.4304 90.3628L72.351 88.172L64.8844 80.3054Z" fill="#393939" stroke="#393939" stroke-width="6.66667"/>
</svg>
