<svg width="1062" height="109" viewBox="0 0 1062 109" fill="none" xmlns="http://www.w3.org/2000/svg">
<path d="M1054.88 104.333H1058.21V100.999V29.666V26.3327H1054.88H784.066C775.065 26.3327 767.498 28.4373 762.128 32.925C756.667 37.4894 753.932 44.1386 753.932 52.1993C753.932 57.376 755.253 62.1185 758.09 66.0753C760.2 69.0173 763.055 71.3943 766.572 73.1805L749.671 99.1827L746.324 104.333H752.466H766.333H768.146L769.131 102.81L785.48 77.5327H1038.88V100.999V104.333H1042.21H1054.88ZM784.066 44.3327H1038.88V59.9327H783.799C779.792 59.9327 777.298 59.0004 775.855 57.7933C774.503 56.6614 773.666 54.9462 773.666 52.3327C773.666 49.5747 774.545 47.7542 775.955 46.5585C777.448 45.2926 780.004 44.3327 784.066 44.3327Z" fill="#393939" stroke="#393939" stroke-width="6.66667"/>
<path d="M753.798 80.3044L751.443 77.8228L749.024 80.2421C745.86 83.4061 740.793 87.3992 732.581 87.3992C726.698 87.3992 721.65 85.229 718.066 81.5046C714.481 77.7786 712.181 72.3057 712.181 65.3992C712.181 58.8404 714.282 53.3068 717.769 49.4522C721.229 45.6283 726.218 43.2658 732.447 43.2658C740.4 43.2658 745.281 46.5952 748.507 50.1668L750.878 52.7914L753.357 50.2696L761.224 42.2696L763.285 40.1739L761.464 37.867C756.894 32.0786 747.431 25.1325 732.314 25.1325C709.476 25.1325 692.581 42.6892 692.581 65.3992C692.581 76.6467 696.494 86.7056 703.538 93.9696C710.594 101.247 720.613 105.532 732.447 105.532C747.284 105.532 756.669 98.0801 761.369 92.6463L763.344 90.3618L761.265 88.1711L753.798 80.3044Z" fill="#393939" stroke="#393939" stroke-width="6.66667"/>
<path d="M673.47 26.3324H671.458L670.521 28.1126L650.403 66.3151V29.6657V26.3324H647.07H634.403H631.07V29.6657V100.999V104.332H634.403H647.07H649.082L650.019 102.552L670.137 64.3497V100.999V104.332H673.47H686.137H689.47V100.999V29.6657V26.3324H686.137H673.47ZM641.87 3.66569H638.537V6.99902C638.537 11.2146 639.847 16.4323 643.281 20.6658C646.814 25.0203 652.386 28.0657 660.27 28.0657C667.971 28.0657 673.47 25.0411 676.976 20.7144C680.388 16.5051 681.737 11.2918 681.737 6.99902V3.66569H678.403H668.803H665.47V6.99902C665.47 8.2653 665.071 9.65812 664.276 10.6594C663.575 11.5424 662.413 12.3324 660.27 12.3324C658.041 12.3324 656.896 11.5287 656.226 10.6752C655.456 9.6937 655.07 8.30627 655.07 6.99902V3.66569H651.737H641.87Z" fill="#393939" stroke="#393939" stroke-width="6.66667"/>
<path d="M607.072 102.343V104.333H610.405H621.605H624.939V101V54.9995C624.939 46.7016 623.083 39.2411 618.325 33.8314C613.496 28.3415 606.187 25.5329 596.539 25.5329C587.975 25.5329 581.097 27.9902 576.344 32.5644C571.583 37.1459 569.339 43.4819 569.339 50.4662V53.7995H572.672H582.198C579.277 55.0696 576.673 56.8195 574.467 58.9906C569.545 63.8349 566.805 70.5819 566.805 78.1995C566.805 86.3821 569.802 93.2437 574.859 98.0493C579.894 102.833 586.778 105.4 594.272 105.4C599.373 105.4 603.623 104.258 607.072 102.343ZM587.837 52.0323L587.871 50.5419C587.926 48.115 588.584 46.1412 589.763 44.8141C590.871 43.5685 592.815 42.4662 596.405 42.4662C599.971 42.4662 602.099 43.5252 603.408 45.0522C604.795 46.6707 605.739 49.3666 605.739 53.5329V53.5995C602.701 52.301 598.868 51.3995 594.272 51.3995C592.036 51.3995 589.884 51.6152 587.837 52.0323ZM595.739 88.3329C589.689 88.3329 585.739 84.0698 585.739 78.1995C585.739 75.1674 586.767 72.6939 588.404 70.9976C590.026 69.3167 592.436 68.1995 595.605 68.1995C598.834 68.1995 601.408 69.2923 603.156 70.9806C604.895 72.6597 606.005 75.107 606.005 78.1995C606.005 83.9586 601.764 88.3329 595.739 88.3329Z" fill="#393939" stroke="#393939" stroke-width="6.66667"/>
<path d="M494.32 104.332H497.654V100.998V64.8993L512.284 102.215L513.114 104.332H515.387H526.72H529L529.827 102.207L544.454 64.6216V100.998V104.332H547.787H560.32H563.654V100.998V29.665V26.3317H560.32H542.32H540.026L539.207 28.4746L521.53 74.7054L503.97 28.4812L503.153 26.3317H500.854H482.32H478.987V29.665V100.998V104.332H482.32H494.32Z" fill="#393939" stroke="#393939" stroke-width="6.66667"/>
<path d="M456.541 26.3317H456.186L455.838 26.4068L194.332 82.8685V29.665V26.3317H190.999H178.332H174.999V29.665V100.998V104.332H178.332H190.999H191.358L191.71 104.255L453.208 47.1384V100.998V104.332H456.541H469.208H472.541V100.998V29.665V26.3317H469.208H456.541Z" fill="#393939" stroke="#393939" stroke-width="6.66667"/>
<path d="M88.7041 27.617L87.7032 26.3317H86.0742H70.7409H63.7969L68.14 31.7499L93.4765 63.3578L67.3838 99.0305L63.5062 104.332H70.0742H85.2742H86.9746L87.9728 102.955L106.208 77.8072V100.998V104.332H109.541H122.208H125.541V100.998V77.7617L143.914 102.962L144.913 104.332H146.608H162.074H168.652L164.762 99.0272L138.406 63.0865L163.477 31.7474L167.81 26.3317H160.874H145.674H144.045L143.044 27.617L125.541 50.0929V29.665V26.3317H122.208H109.541H106.208V29.665V50.0929L88.7041 27.617Z" fill="#393939" stroke="#393939" stroke-width="6.66667"/>
<path d="M64.8844 80.3044L62.529 77.8228L60.1096 80.2421C56.9457 83.4061 51.8791 87.3992 43.6667 87.3992C37.7838 87.3992 32.7358 85.229 29.1519 81.5046C25.5665 77.7786 23.2667 72.3057 23.2667 65.3992C23.2667 58.8404 25.3677 53.3068 28.8551 49.4522C32.3148 45.6283 37.304 43.2658 43.5333 43.2658C51.486 43.2658 56.3671 46.5952 59.593 50.1668L61.9637 52.7914L64.4434 50.2696L72.3101 42.2696L74.3709 40.1739L72.5496 37.867C67.9799 32.0786 58.5168 25.1325 43.4 25.1325C20.5621 25.1325 3.66667 42.6892 3.66667 65.3992C3.66667 76.6467 7.58027 86.7056 14.6236 93.9696C21.68 101.247 31.6987 105.532 43.5333 105.532C58.3704 105.532 67.7551 98.0801 72.4546 92.6463L74.4304 90.3618L72.351 88.1711L64.8844 80.3044Z" fill="#393939" stroke="#393939" stroke-width="6.66667"/>
</svg>
